<svg width="322" height="70" viewBox="0 0 322 70" xmlns="http://www.w3.org/2000/svg"><g fill="none" fill-rule="evenodd"><path d="M25.308 21.451c0 3.125-2.52 5.658-5.629 5.658-3.11 0-5.629-2.533-5.629-5.658 0-3.124 2.52-5.657 5.63-5.657 3.108 0 5.628 2.533 5.628 5.657M11.258 45.62c0 3.125-2.52 5.658-5.629 5.658C2.519 51.278 0 48.745 0 45.62c0-3.125 2.52-5.657 5.629-5.657 3.109 0 5.629 2.532 5.629 5.657m29.09 0c0 3.125-2.52 5.658-5.628 5.658-3.11 0-5.63-2.533-5.63-5.658 0-3.125 2.52-5.657 5.63-5.657 3.108 0 5.628 2.532 5.628 5.657" fill="#F06000"/><path d="M319.494 25.238c-.08-.037-.207-.06-.416-.06h-.405v.843h.405c.39 0 .577-.145.577-.456 0-.144-.064-.279-.161-.327zm.22 2.134l-.774-1.045h-.267v1.045h-.437v-2.531h.907c.656 0 .944.215.944.713 0 .418-.252.698-.677.74l.842 1.078h-.538zm-.561-3.126a1.853 1.853 0 0 0-1.851 1.856c0 1.03.827 1.86 1.85 1.86a1.853 1.853 0 0 0 1.847-1.86 1.852 1.852 0 0 0-1.846-1.856zm0 4.06a2.199 2.199 0 0 1-2.193-2.204 2.2 2.2 0 0 1 2.193-2.2c1.206 0 2.187.988 2.187 2.2a2.197 2.197 0 0 1-2.187 2.205zM75.84 27.8h-2.322v5.18h2.322c2.265 0 3.257-.797 3.257-2.675 0-1.793-.936-2.505-3.257-2.505zm3.738 15.74L75.3 36.026h-1.783v7.514h-3.569V24.755h6.23c2.718 0 3.964.342 5.07 1.394 1.019.94 1.53 2.306 1.53 4.07 0 1.452-.341 2.619-1.022 3.53-.706.911-1.358 1.31-2.916 1.737l4.645 8.054h-3.908zm23.907 0V24.754h11.385V27.8h-7.817v4.64h6.4v3.046h-6.4v5.009h8.185v3.045zm37.585-14.487l-2.152 6.803h4.333l-2.181-6.803zm4.617 14.487l-1.474-4.639h-6.257l-1.53 4.639h-3.739l6.77-18.785h3.2l6.768 18.785h-3.738zm23.339 0V24.754h3.569v15.74h7.646v3.046zm36.51-15.74h-2.493v6.262l.454.028h.452c.397 0 .652.03.794.03 2.775 0 3.993-1.026 3.993-3.331 0-2.05-.992-2.989-3.2-2.989m4.757 7.77c-1.33 1.14-2.973 1.622-5.522 1.622-.708 0-1.104-.028-1.728-.084v6.432h-3.568V24.755h6.4c2.436 0 3.796.426 4.956 1.537 1.048 1.052 1.587 2.475 1.587 4.212 0 2.078-.736 3.87-2.125 5.067m27.816-6.518l-2.152 6.803h4.332l-2.18-6.803zm4.616 14.487l-1.473-4.639h-6.258l-1.53 4.639h-3.738l6.769-18.785h3.2l6.768 18.785h-3.738zm36.31-.256c-1.982.456-3.142.626-4.701.626-6.201 0-10.506-3.985-10.506-9.79 0-2.848 1.077-5.323 3.086-7.173 1.927-1.766 4.079-2.505 7.307-2.505 1.36 0 2.719.142 3.908.427.906.227 1.473.427 2.776.995l-.85 2.99a39.545 39.545 0 0 0-1.53-.541c-1.331-.456-2.662-.684-3.85-.684-4.191 0-7.11 2.59-7.11 6.32 0 3.841 3.2 6.773 7.364 6.773.85 0 1.332-.085 2.436-.398v-5.18h3.568v7.684c-.85.2-1.472.343-1.898.456m23.513.256V24.754h11.383V27.8h-7.815v4.64h6.4v3.046h-6.4v5.009h8.184v3.045zM55.74 0v70h1.298V0z" fill="#777776"/></g></svg>