<svg width="180" height="40" viewBox="0 0 180 40" xmlns="http://www.w3.org/2000/svg"><g fill="none" fill-rule="evenodd"><path d="M14.709 12.38c0 1.851-1.465 3.354-3.271 3.354-1.808 0-3.272-1.503-3.272-3.355 0-1.851 1.464-3.353 3.272-3.353 1.806 0 3.27 1.502 3.27 3.353M6.543 26.707c0 1.853-1.464 3.355-3.27 3.355C1.464 30.062 0 28.56 0 26.707c0-1.852 1.465-3.353 3.272-3.353 1.807 0 3.271 1.501 3.271 3.353m16.907 0c0 1.853-1.464 3.355-3.27 3.355-1.808 0-3.273-1.502-3.273-3.355 0-1.852 1.465-3.353 3.272-3.353 1.807 0 3.271 1.501 3.271 3.353" fill="#F06000"/><path fill="#FFF" d="M31 0v39.869h.588V0zm12.241 25.716l-2.372-4.252h-.99v4.252H37.9v-10.63h3.458c1.507 0 2.199.194 2.811.79.566.531.849 1.304.849 2.303 0 .82-.189 1.481-.566 1.997-.392.515-.754.74-1.619.982l2.578 4.558h-2.169zm-2.073-8.907h-1.289v2.932h1.289c1.256 0 1.807-.451 1.807-1.514 0-1.015-.519-1.418-1.807-1.418zm15.336 8.907v-10.63h6.316v1.723h-4.336v2.625h3.55v1.724h-3.55v2.835h4.54v1.723zm23.412 0l-.817-2.625h-3.47l-.85 2.625h-2.074l3.754-10.63h1.775l3.756 10.63h-2.074zm-2.56-8.198l-1.195 3.85h2.404l-1.21-3.85zm15.509 8.198v-10.63h1.98v8.907h4.24v1.723zm22.893-4.51c-.737.644-1.649.917-3.064.917a9.15 9.15 0 0 1-.958-.047v3.64h-1.98v-10.63h3.55c1.352 0 2.106.242 2.75.87.582.595.88 1.4.88 2.383 0 1.175-.407 2.19-1.178 2.867m-2.64-4.397h-1.382v3.543l.252.016h.25c.221 0 .363.017.44.017 1.54 0 2.217-.58 2.217-1.885 0-1.159-.55-1.69-1.777-1.69m20.632 8.906l-.817-2.625h-3.47l-.85 2.625h-2.074l3.754-10.63h1.775l3.756 10.63h-2.074zm-2.56-8.198l-1.195 3.85h2.404l-1.21-3.85zm22.704 8.052c-1.1.259-1.744.355-2.608.355-3.44 0-5.828-2.255-5.828-5.54 0-1.612.597-3.013 1.712-4.059 1.068-1 2.262-1.418 4.054-1.418.753 0 1.507.08 2.167.242.503.13.817.241 1.54.563l-.47 1.692a19.61 19.61 0 0 0-.85-.306 6.58 6.58 0 0 0-2.136-.387c-2.325 0-3.943 1.466-3.943 3.575 0 2.175 1.775 3.834 4.084 3.834.472 0 .739-.049 1.351-.226v-2.931h1.98v4.349c-.47.112-.817.194-1.053.257m13.044.146v-10.63h6.316v1.723h-4.336v2.625h3.55v1.724h-3.55v2.835h4.54v1.723zm11.212-8.621c-.67 0-1.216-.558-1.216-1.247 0-.686.545-1.244 1.216-1.244.669 0 1.214.558 1.214 1.244 0 .69-.545 1.247-1.214 1.247zm0-2.298c-.567 0-1.026.47-1.026 1.051 0 .583.459 1.053 1.026 1.053.565 0 1.024-.47 1.024-1.053 0-.58-.459-1.05-1.024-1.05zm.312 1.77l-.431-.591h-.148v.591h-.242v-1.433h.504c.363 0 .524.121.524.403 0 .238-.14.396-.376.42l.467.61h-.298zm-.122-1.208a.564.564 0 0 0-.231-.034h-.226v.477h.226c.216 0 .32-.081.32-.257 0-.083-.035-.159-.089-.186z"/><g fill="#F06000"><path d="M132.884 37.094c-1.74 0-2.884-1.16-2.884-2.93 0-2.289 1.813-4.164 4.028-4.164 1.752 0 2.894 1.15 2.894 2.921 0 2.298-1.822 4.173-4.038 4.173m1.061-6.307c-1.586 0-3.017 1.543-3.017 3.262 0 1.326.855 2.247 2.07 2.247 1.565 0 2.988-1.553 2.988-3.273 0-1.366-.794-2.236-2.041-2.236m7.66 5.966h-.783l.349-1.822-.237.332c-.32.415-.505.63-.75.879-.496.488-.97.746-1.381.746-.546 0-.803-.29-.803-.902 0-.144.01-.257.02-.34l.555-3.511.795-.135-.557 3.521-.03.208c-.012.05-.012.113-.012.175 0 .207.062.31.196.31.238 0 .587-.247 1.009-.703.382-.414.743-.871 1-1.263.092-.155.175-.3.237-.456.04-.104.083-.25.124-.435.042-.155.061-.28.083-.383l.133-.84.792-.134-.74 4.753z"/><path d="M144.576 35.815a9.317 9.317 0 0 1-.527.498c-.35.31-.73.599-1.028.776-.166.103-.238.125-.515.166-.074-.144-.114-.312-.114-.559 0-.094.01-.218.02-.374.02-.196.042-.34.052-.434l.442-2.807H142l.092-.58.919-.072.205-1.294.794-.135-.227 1.429h.978l-.104.652h-.977l-.495 3.19.278-.229.38-.362.322-.29.226-.227.38.455-.195.197zm4.516-.077c-.474.83-1.165 1.264-1.979 1.264-.34 0-.64-.063-.936-.208l-.403 2.539H145l1.114-7.094.804-.135-.33 1.688c.092-.135.164-.25.215-.31.217-.301.465-.57.744-.809.432-.383.998-.673 1.318-.673.514 0 .873.59.873 1.408 0 .767-.225 1.606-.646 2.33m-.496-2.971c-.143 0-.483.217-.865.569-.257.239-.7.745-.937 1.066-.196.28-.34.612-.38.892l-.136.849a1.4 1.4 0 0 0 .855.268c.98 0 1.772-1.324 1.772-2.95 0-.456-.102-.694-.31-.694m4.393 1.046l-2.174 1.346c-.02.094-.02.124-.02.238 0 .57.195.88.558.88.502 0 1.193-.496 1.821-1.315l.443.454c-.875.994-1.679 1.514-2.39 1.514-.813 0-1.226-.52-1.226-1.544 0-1.811 1.176-3.386 2.534-3.386.67 0 1.093.343 1.093.881 0 .383-.186.652-.64.932m-.544-1.222c-.65 0-1.31.798-1.526 1.843l1.947-1.233a.533.533 0 0 0 .042-.186c0-.218-.226-.424-.463-.424m4.564.269a.501.501 0 0 0-.298-.082c-.217 0-.413.093-.639.32a3.194 3.194 0 0 0-.804 1.254c-.103.279-.256.89-.309 1.242l-.185 1.17H154l.731-4.619.792-.134-.277 1.366c.566-.983 1.01-1.377 1.535-1.377.216 0 .35.03.535.145l-.309.714z"/><path d="M161.19 30.056c-.37-.321-.617-.434-.989-.434-.266 0-.503.082-.68.237a1.001 1.001 0 0 0-.255.352c-.136.248-.156.342-.25.952l-.132.84h.967l-.103.652h-.968l-.71 4.495c-.227 1.439-.886 2.185-1.917 2.185-.432 0-.762-.104-1.153-.362l.423-.654c.289.228.514.322.77.322.6 0 .94-.519 1.125-1.688l.679-4.298h-.905l.092-.58.916-.073.186-1.17c.185-1.138.937-1.832 1.998-1.832.484 0 .886.145 1.318.497l-.412.559z"/><path d="M160.554 36.919c-.937 0-1.554-.745-1.554-1.885 0-1.667 1.121-3.034 2.49-3.034.97 0 1.568.736 1.568 1.926 0 1.626-1.144 2.993-2.504 2.993m.835-4.287c-.432 0-.875.321-1.194.87-.27.455-.414.994-.414 1.47 0 .787.33 1.316.825 1.316.908 0 1.66-1.078 1.66-2.362 0-.84-.311-1.294-.877-1.294m5.619.228a.505.505 0 0 0-.299-.082c-.216 0-.411.093-.639.32a3.191 3.191 0 0 0-.802 1.254 8.02 8.02 0 0 0-.31 1.242l-.185 1.17H164l.731-4.619.794-.134-.278 1.366c.566-.983 1.009-1.377 1.535-1.377a.88.88 0 0 1 .534.145l-.308.714zm7.295.373l-.566 3.583h-.783l.546-3.448c.02-.155.052-.374.052-.456 0-.155-.073-.25-.197-.25-.236 0-.576.24-1.01.716-.38.404-.73.85-.989 1.263a2.902 2.902 0 0 0-.236.456c-.03.073-.072.228-.134.446a2.508 2.508 0 0 0-.082.362l-.144.911h-.783l.546-3.448.03-.217a.778.778 0 0 0 .021-.167c0-.217-.071-.321-.216-.321-.227 0-.578.249-.999.715-.382.414-.742.87-.99 1.254a2.08 2.08 0 0 0-.236.455 5.64 5.64 0 0 0-.217.818l-.144.911H167l.731-4.618.794-.134-.362 1.883c.103-.145.186-.248.248-.32.31-.424.494-.643.752-.891.505-.497.968-.736 1.411-.736.526 0 .782.26.782.799 0 .331-.081.787-.216 1.148.774-1.19 1.71-1.947 2.4-1.947.537 0 .804.25.804.767 0 .124-.02.31-.04.466"/></g></g></svg>