<?xml version="1.0" encoding="UTF-8"?>
<svg width="26px" height="26px" viewBox="0 0 26 26" version="1.1" xmlns="http://www.w3.org/2000/svg" xmlns:xlink="http://www.w3.org/1999/xlink">
    <!-- Generator: Sketch 50.2 (55047) - http://www.bohemiancoding.com/sketch -->
    <title>Icon/LeftNav/Accounting, Companies, Company [bank 1]</title>
    <desc>Created with Sketch.</desc>
    <defs>
        <path d="M3.00010281,21.0005 L22.0001028,21.0005 L22.0001028,23.0005 L3.00010281,23.0005 L3.00010281,21.0005 Z M22.5331028,9.1545 C22.9101028,9.3925 23.0841028,9.8505 22.9611028,10.2785 C22.8361028,10.7065 22.4451028,11.0005 22.0001028,11.0005 L3.00010281,11.0005 C2.55510281,11.0005 2.16210281,10.7065 2.03910281,10.2785 C1.91610281,9.8505 2.09010281,9.3925 2.46510281,9.1545 L11.9651028,3.1545 C12.2911028,2.9485 12.7071028,2.9485 13.0331028,3.1545 L22.5331028,9.1545 Z M6.45510281,9.0005 L18.5431028,9.0005 L12.5001028,5.1835 L6.45510281,9.0005 Z M8.00010281,20.0005 L5.00010281,20.0005 C4.44810281,20.0005 4.00010281,19.5535 4.00010281,19.0005 L4.00010281,13.0005 C4.00010281,12.4485 4.44810281,12.0005 5.00010281,12.0005 L8.00010281,12.0005 C8.55310281,12.0005 9.00010281,12.4485 9.00010281,13.0005 L9.00010281,19.0005 C9.00010281,19.5535 8.55310281,20.0005 8.00010281,20.0005 Z M6.00010281,14.0005 L6.00010281,18.0005 L7.00010281,18.0005 L7.00010281,14.0005 L6.00010281,14.0005 Z M14.0001028,20.0005 L11.0001028,20.0005 C10.4481028,20.0005 10.0001028,19.5535 10.0001028,19.0005 L10.0001028,13.0005 C10.0001028,12.4485 10.4481028,12.0005 11.0001028,12.0005 L14.0001028,12.0005 C14.5531028,12.0005 15.0001028,12.4485 15.0001028,13.0005 L15.0001028,19.0005 C15.0001028,19.5535 14.5531028,20.0005 14.0001028,20.0005 Z M12.0001028,14.0005 L12.0001028,18.0005 L13.0001028,18.0005 L13.0001028,14.0005 L12.0001028,14.0005 Z M20.0001028,20.0005 L17.0001028,20.0005 C16.4481028,20.0005 16.0001028,19.5535 16.0001028,19.0005 L16.0001028,13.0005 C16.0001028,12.4485 16.4481028,12.0005 17.0001028,12.0005 L20.0001028,12.0005 C20.5531028,12.0005 21.0001028,12.4485 21.0001028,13.0005 L21.0001028,19.0005 C21.0001028,19.5535 20.5531028,20.0005 20.0001028,20.0005 Z M18.0001028,14.0005 L18.0001028,18.0005 L19.0001028,18.0005 L19.0001028,14.0005 L18.0001028,14.0005 Z" id="path-1"></path>
    </defs>
    <g id="Icon/LeftNav/Accounting,-Companies,-Company-[bank-1]" stroke="none" stroke-width="1" fill="none" fill-rule="evenodd">
        <rect id="Bounding-Box" x="0" y="0" width="26" height="26"></rect>
        <mask id="mask-2" fill="white">
            <use xlink:href="#path-1"></use>
        </mask>
        <g id="Mask" fill-rule="nonzero"></g>
        <g id="Mixin/Fill/Black---100%" mask="url(#mask-2)" fill="#0E181C">
            <rect id="Rectangle" x="0" y="0" width="26" height="26"></rect>
        </g>
    </g>
</svg>