<?xml version="1.0" encoding="UTF-8"?>
<svg width="26px" height="26px" viewBox="0 0 26 26" version="1.1" xmlns="http://www.w3.org/2000/svg" xmlns:xlink="http://www.w3.org/1999/xlink">
    <!-- Generator: Sketch 50.2 (55047) - http://www.bohemiancoding.com/sketch -->
    <title>Icon/LeftNav/Property(ies), Company Profile [building 7]</title>
    <desc>Created with Sketch.</desc>
    <defs>
        <path d="M21,3 L5,3 C4.448,3 4,3.449 4,4 L4,22 C4,22.553 4.448,23 5,23 L9.999,23 C10.551,23 10.999,22.554 10.999,22.001 L11,20 C11,18.898 11.897,18 13,18 C14.103,18 15,18.898 15,20 L15,22 C15,22.553 15.448,23 16,23 L21,23 C21.552,23 22,22.553 22,22 L22,4 C22,3.448 21.552,3 21,3 Z M20,21 L17,21 L17,20 C17,17.795 15.206,16 13,16 C10.794,16 9,17.795 9,20 L9,21 L6,21 L6,5 L20,5 L20,21 Z M9,10 L11,10 C11.552,10 12,9.553 12,9 L12,8 C12,7.449 11.552,7 11,7 L9,7 C8.448,7 8,7.449 8,8 L8,9 C8,9.552 8.447,10 9,10 Z M15,10 L17,10 C17.552,10 18,9.553 18,9 L18,8 C18,7.449 17.552,7 17,7 L15,7 C14.448,7 14,7.449 14,8 L14,9 C14,9.552 14.447,10 15,10 Z M9,15 L11,15 C11.552,15 12,14.553 12,14 L12,13 C12,12.449 11.552,12 11,12 L9,12 C8.448,12 8,12.449 8,13 L8,14 C8,14.552 8.447,15 9,15 Z M15,15 L17,15 C17.552,15 18,14.553 18,14 L18,13 C18,12.449 17.552,12 17,12 L15,12 C14.448,12 14,12.449 14,13 L14,14 C14,14.552 14.447,15 15,15 Z" id="path-1"></path>
    </defs>
    <g id="Icon/LeftNav/Property(ies),-Company-Profile-[building-7]" stroke="none" stroke-width="1" fill="none" fill-rule="evenodd">
        <rect id="Bounding-Box" x="0" y="0" width="26" height="26"></rect>
        <mask id="mask-2" fill="white">
            <use xlink:href="#path-1"></use>
        </mask>
        <g id="Mask" fill-rule="nonzero"></g>
        <g id="Mixin/Fill/Black---100%" mask="url(#mask-2)" fill="#0E181C">
            <rect id="Rectangle" x="0" y="0" width="26" height="26"></rect>
        </g>
    </g>
</svg>