<?xml version="1.0" encoding="UTF-8"?>
<svg width="24px" height="24px" viewBox="0 0 24 24" version="1.1" xmlns="http://www.w3.org/2000/svg" xmlns:xlink="http://www.w3.org/1999/xlink">
    <!-- Generator: Sketch 50.2 (55047) - http://www.bohemiancoding.com/sketch -->
    <title>Icon/General/Help [interface question mark]</title>
    <desc>Created with Sketch.</desc>
    <defs>
        <path d="M12,22 C6.486,22 2,17.515 2,12 C2,6.487 6.486,2 12,2 C17.514,2 22,6.486 22,12 C22,17.515 17.514,22 12,22 Z M12,4 C7.589,4 4,7.589 4,12 C4,16.411 7.589,20 12,20 C16.411,20 20,16.411 20,12 C20,7.589 16.411,4 12,4 Z M13,15 L11,15 L11,12 L12,12 C13.104,12 14,11.103 14,10 C14,8.896 13.104,8 12,8 C10.896,8 10,8.896 10,10 L8,10 C8,7.795 9.795,6 12,6 C14.205,6 16,7.795 16,10 C16,11.86 14.723,13.428 13,13.875 L13,15 Z M12,18.25 C11.3096441,18.25 10.75,17.6903559 10.75,17 C10.75,16.3096441 11.3096441,15.75 12,15.75 C12.6903559,15.75 13.25,16.3096441 13.25,17 C13.25,17.6903559 12.6903559,18.25 12,18.25 Z" id="path-1"></path>
    </defs>
    <g id="Icon/General/Help-[interface-question-mark]" stroke="none" stroke-width="1" fill="none" fill-rule="evenodd">
        <rect id="Bounding-Box" x="0" y="0" width="24" height="24"></rect>
        <mask id="mask-2" fill="white">
            <use xlink:href="#path-1"></use>
        </mask>
        <g id="Mask" fill-rule="nonzero"></g>
        <g id="Mixin/Fill/Black---100%" mask="url(#mask-2)" fill="#0E181C">
            <rect id="Rectangle" x="0" y="0" width="24" height="24"></rect>
        </g>
    </g>
</svg>