<?xml version="1.0" encoding="UTF-8"?>
<svg width="38px" height="34px" viewBox="0 0 38 34" version="1.1" xmlns="http://www.w3.org/2000/svg" xmlns:xlink="http://www.w3.org/1999/xlink">
    <!-- Generator: Sketch 49 (51002) - http://www.bohemiancoding.com/sketch -->
    <title>settings-reporting</title>
    <desc>Created with Sketch.</desc>
    <defs>
        <path d="M20.0016667,20 L33.335,20 C34.255,20 35.0016667,19.2533333 35.0016667,18.3333333 C35.0016667,10.0633333 28.2716667,3.33333333 20.0016667,3.33333333 C19.0816667,3.33333333 18.335,4.08 18.335,5 L18.335,18.3333333 C18.335,19.2533333 19.0816667,20 20.0016667,20 Z M21.6683333,6.785 C26.7716667,7.51833333 30.8166667,11.5633333 31.55,16.6666667 L21.6683333,16.6666667 L21.6683333,6.785 Z M37.8433333,22.155 C37.5316667,21.8433333 37.1066667,21.6666667 36.665,21.6666667 L23.3333333,21.6666667 C22.66,21.6666667 22.05,22.0733333 21.7933333,22.695 C21.5366667,23.3183333 21.6783333,24.035 22.155,24.5116667 L31.58,33.94 C31.8933333,34.2516667 32.3166667,34.4266667 32.7583333,34.4266667 C33.2,34.4266667 33.625,34.2516667 33.9366667,33.94 C36.77,31.105 38.3316667,27.3383333 38.3316667,23.3316667 C38.3316667,22.8916667 38.1566667,22.4666667 37.8433333,22.155 Z M32.675,30.3233333 L27.3566667,25 L34.8816667,25 C34.6066667,26.9366667 33.8516667,28.7566667 32.675,30.3233333 Z M16.6666667,20.9766667 L16.6666667,8.44833333 C16.6666667,7.97 16.4616667,7.515 16.1033333,7.19833333 C15.745,6.88333333 15.2733333,6.735 14.7933333,6.79666667 C7.31,7.73166667 1.66666667,14.125 1.66666667,21.6666667 C1.66666667,29.9366667 8.395,36.6666667 16.6666667,36.6666667 C20.18,36.6666667 23.6,35.4233333 26.2916667,33.165 C26.65,32.8633333 26.865,32.4266667 26.885,31.96 C26.9066667,31.4933333 26.7283333,31.0383333 26.3983333,30.7083333 L16.6666667,20.9766667 Z M16.6666667,33.3333333 C10.235,33.3333333 5,28.1 5,21.6666667 C5,16.45 8.47,11.94 13.3333333,10.4966667 L13.3333333,21.6666667 C13.3333333,22.11 13.5083333,22.5333333 13.8216667,22.845 L22.6533333,31.6783333 C20.8533333,32.7533333 18.7833333,33.3333333 16.6666667,33.3333333 Z" id="path-1"></path>
    </defs>
    <g id="Settings" stroke="none" stroke-width="1" fill="none" fill-rule="evenodd">
        <g transform="translate(-1173.000000, -395.000000)" id="Group-4-Copy-3">
            <g transform="translate(1043.000000, 369.000000)">
                <g id="Icon/Report-Settings" transform="translate(129.000000, 23.000000)">
                    <rect id="Bounding-Box" x="0" y="0" width="40" height="40"></rect>
                    <mask id="mask-2" fill="white">
                        <use xlink:href="#path-1"></use>
                    </mask>
                    <g id="Mask"></g>
                    <g id="Mixin/Fill/Black" mask="url(#mask-2)" fill="#303436" fill-rule="evenodd">
                        <rect id="Rectangle" x="0" y="0" width="40" height="40"></rect>
                    </g>
                </g>
            </g>
        </g>
    </g>
</svg>