<?xml version="1.0" encoding="UTF-8"?>
<svg width="34px" height="29px" viewBox="0 0 34 29" version="1.1" xmlns="http://www.w3.org/2000/svg" xmlns:xlink="http://www.w3.org/1999/xlink">
    <!-- Generator: Sketch 49 (51002) - http://www.bohemiancoding.com/sketch -->
    <title>settings-documents</title>
    <desc>Created with Sketch.</desc>
    <defs>
        <path d="M24.2,20.9516667 L25.455,19.6966667 L23.6366667,17.8783333 L22.38,19.1333333 C22.0166667,18.925 21.6283333,18.7633333 21.2133333,18.655 L21.2133333,16.6666667 L18.7883333,16.6666667 L18.7883333,18.6566667 C18.3733333,18.765 17.985,18.9266667 17.6216667,19.135 L16.365,17.88 L14.5466667,19.6983333 L15.8016667,20.9533333 C15.595,21.3183333 15.4316667,21.7066667 15.3233333,22.1216667 L13.3333333,22.1216667 L13.3333333,24.5466667 L15.3216667,24.5466667 C15.43,24.9633333 15.5933333,25.35 15.8,25.715 L14.545,26.97 L16.3633333,28.7866667 L17.62,27.5316667 C17.9833333,27.74 18.3716667,27.9016667 18.7866667,28.01 L18.7866667,30 L21.2116667,30 L21.2116667,28.0116667 C21.6266667,27.9033333 22.015,27.7416667 22.3783333,27.5333333 L23.635,28.7883333 L25.4533333,26.9716667 L24.1983333,25.7166667 C24.405,25.3516667 24.5683333,24.965 24.6766667,24.5483333 L26.6666667,24.5483333 L26.6666667,22.1233333 L24.6783333,22.1233333 C24.5683333,21.705 24.4066667,21.3166667 24.2,20.9516667 Z M20,26 C18.525,26 17.3333333,24.8083333 17.3333333,23.3333333 C17.3333333,21.86 18.525,20.6666667 20,20.6666667 C21.475,20.6666667 22.6666667,21.86 22.6666667,23.3333333 C22.6666667,24.8083333 21.475,26 20,26 Z M33.3333333,11.6666667 L19.5833333,11.6666667 L16.8333333,8 C16.2083333,7.165 15.21,6.66666667 14.1666667,6.66666667 L6.66666667,6.66666667 C4.82833333,6.66666667 3.33333333,8.16333333 3.33333333,10 L3.33333333,31.6666667 C3.33333333,33.505 4.82833333,35 6.66666667,35 L33.3333333,35 C35.1716667,35 36.6666667,33.505 36.6666667,31.6666667 L36.6666667,15 C36.6666667,13.1633333 35.1716667,11.6666667 33.3333333,11.6666667 Z M6.66666667,31.6666667 L6.66666667,10 L14.1666667,10 L16.9166667,13.6666667 C17.5416667,14.5016667 18.54,15 19.5833333,15 L33.3333333,15 L33.335,31.6666667 L6.66666667,31.6666667 Z" id="path-1"></path>
    </defs>
    <g id="Settings" stroke="none" stroke-width="1" fill="none" fill-rule="evenodd">
        <g transform="translate(-856.000000, -398.000000)" id="Group-4-Copy-2">
            <g transform="translate(724.000000, 369.000000)">
                <g id="Icon/Document-Settings" transform="translate(129.000000, 23.000000)">
                    <rect id="Bounding-Box" x="0" y="0" width="40" height="40"></rect>
                    <mask id="mask-2" fill="white">
                        <use xlink:href="#path-1"></use>
                    </mask>
                    <g id="Mask"></g>
                    <g id="Mixin/Fill/Black" mask="url(#mask-2)" fill="#303436" fill-rule="evenodd">
                        <rect id="Rectangle" x="0" y="0" width="40" height="40"></rect>
                    </g>
                    <g id="folder-settings" stroke-width="1" fill-rule="evenodd" mask="url(#mask-2)">
                        <g id="Frame_-_24px">
                            <rect id="Rectangle-path" x="0" y="0" width="40" height="40"></rect>
                        </g>
                        <g id="Line_Icons" transform="translate(6.666667, 10.000000)">
                            <g id="Group"></g>
                        </g>
                    </g>
                </g>
            </g>
        </g>
    </g>
</svg>