<?xml version="1.0" encoding="UTF-8"?>
<svg width="34" height="34" viewBox="0 0 34 34" version="1.1" xmlns="http://www.w3.org/2000/svg" xmlns:xlink="http://www.w3.org/1999/xlink">
    <!-- Generator: Sketch 49 (51002) - http://www.bohemiancoding.com/sketch -->
    <title>settings-notificaitons</title>
    <desc>Created with Sketch.</desc>
    <defs>
        <path d="M20,36.6666667 C10.81,36.6666667 3.33333333,29.1916667 3.33333333,20 C3.33333333,10.8116667 10.81,3.33333333 20,3.33333333 C29.19,3.33333333 36.6666667,10.81 36.6666667,20 C36.6666667,29.1916667 29.19,36.6666667 20,36.6666667 Z M20,6.66666667 C27.3516667,6.66666667 33.3333333,12.6483333 33.3333333,20 C33.3333333,27.3516667 27.3516667,33.3333333 20,33.3333333 C12.6483333,33.3333333 6.66666667,27.3516667 6.66666667,20 C6.66666667,12.6483333 12.6483333,6.66666667 20,6.66666667 Z M21.6666667,25 L21.6666667,18.3333333 C21.6666667,17.4133333 20.9216667,16.6666667 20,16.6666667 L16.6666667,16.6666667 L16.6666667,20 L18.3333333,20 L18.3333333,25 L15,25 L15,28.3333333 L25,28.3333333 L25,25 L21.6666667,25 Z M20,15.4166667 C21.1505932,15.4166667 22.0833333,14.4839266 22.0833333,13.3333333 C22.0833333,12.1827401 21.1505932,11.25 20,11.25 C18.8494068,11.25 17.9166667,12.1827401 17.9166667,13.3333333 C17.9166667,14.4839266 18.8494068,15.4166667 20,15.4166667 Z" id="path-1"></path>
    </defs>
    <g id="Settings" stroke="none" stroke-width="1" fill="none" fill-rule="evenodd">
        <g transform="translate(-537.000000, -395.000000)" id="Group-4-Copy">
            <g transform="translate(405.000000, 369.000000)">
                <g id="Icon/Info" transform="translate(129.000000, 23.000000)">
                    <rect id="Bounding-Box" x="0" y="0" width="40" height="40"></rect>
                    <mask id="mask-2" fill="white">
                        <use xlink:href="#path-1"></use>
                    </mask>
                    <g id="Mask"></g>
                    <g id="Mixin/Fill/Black" mask="url(#mask-2)" fill="#303436" fill-rule="evenodd">
                        <rect id="Rectangle" x="0" y="0" width="40" height="40"></rect>
                    </g>
                </g>
            </g>
        </g>
    </g>
</svg>