<?xml version="1.0" encoding="UTF-8"?>
<svg width="24px" height="34px" viewBox="0 0 24 34" version="1.1" xmlns="http://www.w3.org/2000/svg" xmlns:xlink="http://www.w3.org/1999/xlink">
    <!-- Generator: Sketch 49 (51002) - http://www.bohemiancoding.com/sketch -->
    <title>settings-security</title>
    <desc>Created with Sketch.</desc>
    <defs>
        <path d="M28.3333333,16.85 L28.3333333,11.6666667 C28.3333333,7.07166667 24.595,3.33333333 20,3.33333333 C15.405,3.33333333 11.6666667,7.07166667 11.6666667,11.6666667 L11.6666667,16.85 C9.60833333,18.955 8.33333333,21.83 8.33333333,25 C8.33333333,31.4333333 13.5683333,36.6666667 20,36.6666667 C26.4316667,36.6666667 31.6666667,31.4333333 31.6666667,25 C31.6666667,21.83 30.3916667,18.955 28.3333333,16.85 Z M20,6.66666667 C22.7566667,6.66666667 25,8.91 25,11.6666667 L25,14.4766667 C23.4833333,13.75 21.79,13.3333333 20,13.3333333 C18.21,13.3333333 16.5166667,13.75 15,14.4766667 L15,11.6666667 C15,8.91 17.2433333,6.66666667 20,6.66666667 Z M20,33.3333333 C15.405,33.3333333 11.6666667,29.595 11.6666667,25 C11.6666667,20.405 15.405,16.6666667 20,16.6666667 C24.595,16.6666667 28.3333333,20.405 28.3333333,25 C28.3333333,29.595 24.595,33.3333333 20,33.3333333 Z M20,30 C21.3807119,30 22.5,28.8807119 22.5,27.5 C22.5,26.1192881 21.3807119,25 20,25 C18.6192881,25 17.5,26.1192881 17.5,27.5 C17.5,28.8807119 18.6192881,30 20,30 Z" id="path-1"></path>
    </defs>
    <g id="Settings" stroke="none" stroke-width="1" fill="none" fill-rule="evenodd">
        <g transform="translate(-223.000000, -395.000000)" id="Group-4">
            <g transform="translate(86.000000, 369.000000)">
                <g id="Icon/Lock" transform="translate(129.000000, 23.000000)">
                    <rect id="Bounding-Box" x="0" y="0" width="40" height="40"></rect>
                    <mask id="mask-2" fill="white">
                        <use xlink:href="#path-1"></use>
                    </mask>
                    <g id="Mask"></g>
                    <g id="Mixin/Fill/Black" mask="url(#mask-2)" fill="#303436" fill-rule="evenodd">
                        <rect id="Rectangle" x="0" y="0" width="40" height="40"></rect>
                    </g>
                </g>
            </g>
        </g>
    </g>
</svg>