<?xml version="1.0" encoding="UTF-8"?>
<svg width="119px" height="88px" viewBox="0 0 119 88" version="1.1" xmlns="http://www.w3.org/2000/svg" xmlns:xlink="http://www.w3.org/1999/xlink">
    <!-- Generator: Sketch 57.1 (83088) - https://sketch.com -->
    <title>Group 3</title>
    <desc>Created with Sketch.</desc>
    <defs>
        <polygon id="path-1" points="9.04037689 8.75 9.91666667 7.94139218 7 5.25 4.08333333 7.94139218 4.95962311 8.75 7 6.86721563"></polygon>
        <polygon id="path-3" points="9.04037689 8.75 9.91666667 7.94139218 7 5.25 4.08333333 7.94139218 4.95962311 8.75 7 6.86721563"></polygon>
    </defs>
    <g id="Prototype" stroke="none" stroke-width="1" fill="none" fill-rule="evenodd">
        <g id="Portal---Components-Overview" transform="translate(-315.000000, -668.000000)">
            <g id="Group-3" transform="translate(315.000000, 668.000000)">
                <rect id="Rectangle-Copy-4" stroke="#C6CCD0" fill="#F5F6F8" x="0.5" y="0.5" width="118" height="87" rx="2"></rect>
                <rect id="Rectangle" fill="#C6CCD0" x="40" y="11" width="39" height="4" rx="2"></rect>
                <rect id="Rectangle" fill="#C6CCD0" x="11" y="27" width="8" height="8" rx="2"></rect>
                <rect id="Rectangle-Copy-11" fill="#C6CCD0" x="11" y="42" width="8" height="8" rx="2"></rect>
                <rect id="Rectangle-Copy-25" fill="#C6CCD0" x="11" y="72" width="8" height="8" rx="2"></rect>
                <rect id="Rectangle-Copy-5" fill="#C6CCD0" x="26" y="27" width="8" height="8" rx="2"></rect>
                <rect id="Rectangle-Copy-12" fill="#C6CCD0" x="26" y="42" width="8" height="8" rx="2"></rect>
                <rect id="Rectangle-Copy-26" fill="#C6CCD0" x="26" y="72" width="8" height="8" rx="2"></rect>
                <rect id="Rectangle-Copy-6" fill="#C6CCD0" x="41" y="27" width="8" height="8" rx="2"></rect>
                <rect id="Rectangle-Copy-13" fill="#C6CCD0" x="41" y="42" width="8" height="8" rx="2"></rect>
                <rect id="Rectangle-Copy-27" fill="#C6CCD0" x="41" y="72" width="8" height="8" rx="2"></rect>
                <rect id="Rectangle-Copy-7" fill="#C6CCD0" x="56" y="27" width="8" height="8" rx="2"></rect>
                <rect id="Rectangle-Copy-14" fill="#C6CCD0" x="56" y="42" width="8" height="8" rx="2"></rect>
                <rect id="Rectangle-Copy-21" fill="#C6CCD0" x="56" y="57" width="8" height="8" rx="2"></rect>
                <rect id="Rectangle-Copy-28" fill="#C6CCD0" x="56" y="72" width="8" height="8" rx="2"></rect>
                <rect id="Rectangle-Copy-8" fill="#C6CCD0" x="71" y="27" width="8" height="8" rx="2"></rect>
                <g id="Group-2" transform="translate(69.000000, 40.000000)">
                    <rect id="Rectangle-Copy-33" fill="#FCDFCC" x="0" y="0" width="42" height="12" rx="3"></rect>
                    <rect id="Rectangle-Copy-32" fill="#F06000" x="0" y="0" width="12" height="12" rx="3"></rect>
                    <rect id="Rectangle-Copy-15" fill="#FFFFFF" x="2" y="2" width="8" height="8" rx="2"></rect>
                    <rect id="Rectangle-Copy-16" fill="#FFFFFF" x="17" y="2" width="8" height="8" rx="2"></rect>
                    <rect id="Rectangle-Copy-17" fill="#FFFFFF" x="32" y="2" width="8" height="8" rx="2"></rect>
                </g>
                <g id="Group-2-Copy" transform="translate(30.000000, 61.000000) scale(-1, 1) translate(-30.000000, -61.000000) translate(9.000000, 55.000000)">
                    <rect id="Rectangle-Copy-33" fill="#FCDFCC" x="0" y="0" width="42" height="12" rx="3"></rect>
                    <rect id="Rectangle-Copy-32" fill="#F06000" x="0" y="0" width="12" height="12" rx="3"></rect>
                    <rect id="Rectangle-Copy-15" fill="#FFFFFF" x="2" y="2" width="8" height="8" rx="2"></rect>
                    <rect id="Rectangle-Copy-16" fill="#FFFFFF" x="17" y="2" width="8" height="8" rx="2"></rect>
                    <rect id="Rectangle-Copy-17" fill="#FFFFFF" x="32" y="2" width="8" height="8" rx="2"></rect>
                </g>
                <rect id="Rectangle-Copy-22" fill="#C6CCD0" x="71" y="57" width="8" height="8" rx="2"></rect>
                <rect id="Rectangle-Copy-29" fill="#C6CCD0" x="71" y="72" width="8" height="8" rx="2"></rect>
                <rect id="Rectangle-Copy-9" fill="#C6CCD0" x="86" y="27" width="8" height="8" rx="2"></rect>
                <rect id="Rectangle-Copy-23" fill="#C6CCD0" x="86" y="57" width="8" height="8" rx="2"></rect>
                <rect id="Rectangle-Copy-30" fill="#C6CCD0" x="86" y="72" width="8" height="8" rx="2"></rect>
                <rect id="Rectangle-Copy-10" fill="#C6CCD0" x="101" y="27" width="8" height="8" rx="2"></rect>
                <rect id="Rectangle-Copy-24" fill="#C6CCD0" x="101" y="57" width="8" height="8" rx="2"></rect>
                <rect id="Rectangle-Copy-31" fill="#C6CCD0" x="101" y="72" width="8" height="8" rx="2"></rect>
                <g id="09-Icons/Arrow-Right" transform="translate(83.000000, 6.000000)">
                    <mask id="mask-2" fill="white">
                        <use xlink:href="#path-1"></use>
                    </mask>
                    <use id="Icon" fill="#C6CCD0" fill-rule="evenodd" transform="translate(7.000000, 7.000000) rotate(-270.000000) translate(-7.000000, -7.000000) " xlink:href="#path-1"></use>
                </g>
                <g id="09-Icons/Arrow-Right" transform="translate(30.000000, 13.000000) scale(-1, 1) translate(-30.000000, -13.000000) translate(23.000000, 6.000000)">
                    <mask id="mask-4" fill="white">
                        <use xlink:href="#path-3"></use>
                    </mask>
                    <use id="Icon" fill="#C6CCD0" fill-rule="evenodd" transform="translate(7.000000, 7.000000) rotate(-270.000000) translate(-7.000000, -7.000000) " xlink:href="#path-3"></use>
                </g>
            </g>
        </g>
    </g>
</svg>