<?xml version="1.0" encoding="UTF-8"?>
<svg width="226px" height="48px" viewBox="0 0 226 48" version="1.1" xmlns="http://www.w3.org/2000/svg" xmlns:xlink="http://www.w3.org/1999/xlink">
    <!-- Generator: Sketch 57.1 (83088) - https://sketch.com -->
    <title>Group 23</title>
    <desc>Created with Sketch.</desc>
    <defs>
        <polygon id="path-1" points="7.08333333 3.54250761 6.4571163 2.91666667 5.00022128 4.37415905 3.5428837 2.91666667 2.91666667 3.54250761 4.37400425 5 2.91666667 6.45749239 3.5428837 7.08333333 5.00022128 5.62628355 6.4571163 7.08333333 7.08333333 6.45749239 5.62599575 5"></polygon>
        <polygon id="path-3" points="7.08333333 3.54250761 6.4571163 2.91666667 5.00022128 4.37415905 3.5428837 2.91666667 2.91666667 3.54250761 4.37400425 5 2.91666667 6.45749239 3.5428837 7.08333333 5.00022128 5.62628355 6.4571163 7.08333333 7.08333333 6.45749239 5.62599575 5"></polygon>
        <polygon id="path-5" points="7.08333333 3.54250761 6.4571163 2.91666667 5.00022128 4.37415905 3.5428837 2.91666667 2.91666667 3.54250761 4.37400425 5 2.91666667 6.45749239 3.5428837 7.08333333 5.00022128 5.62628355 6.4571163 7.08333333 7.08333333 6.45749239 5.62599575 5"></polygon>
        <polygon id="path-7" points="9.04037689 8.75 9.91666667 7.94139218 7 5.25 4.08333333 7.94139218 4.95962311 8.75 7 6.86721563"></polygon>
    </defs>
    <g id="Dev-Portal" stroke="none" stroke-width="1" fill="none" fill-rule="evenodd">
        <g id="Portal---Components-Overview" transform="translate(-564.000000, -892.000000)">
            <g id="Group-23" transform="translate(564.000000, 892.000000)">
                <rect id="Rectangle-Copy-4" stroke="#C6C8C9" x="85.5" y="0.5" width="76" height="19" rx="2"></rect>
                <rect id="Rectangle" fill="#C6CCD0" x="96" y="8" width="39" height="4" rx="2"></rect>
                <rect id="Rectangle-Copy-4" stroke="#F06000" x="170.5" y="0.5" width="55" height="19" rx="2"></rect>
                <rect id="Rectangle-Copy-4" fill-opacity="0.1" fill="#F06000" x="0" y="28" width="53" height="20" rx="2"></rect>
                <rect id="Rectangle" fill="#C6CCD0" x="179" y="8" width="39" height="4" rx="2"></rect>
                <rect id="Rectangle" fill="#F06000" x="6" y="36" width="27" height="4" rx="2"></rect>
                <g id="09-Icons/Remove" transform="translate(39.000000, 33.000000)">
                    <mask id="mask-2" fill="white">
                        <use xlink:href="#path-1"></use>
                    </mask>
                    <use id="Icon" fill="#F06000" fill-rule="evenodd" xlink:href="#path-1"></use>
                </g>
                <rect id="Rectangle-Copy-4" fill-opacity="0.1" fill="#F06000" x="61" y="28" width="53" height="20" rx="2"></rect>
                <rect id="Rectangle" fill="#F06000" x="67" y="36" width="27" height="4" rx="2"></rect>
                <g id="09-Icons/Remove" transform="translate(100.000000, 33.000000)">
                    <mask id="mask-4" fill="white">
                        <use xlink:href="#path-3"></use>
                    </mask>
                    <use id="Icon" fill="#F06000" fill-rule="evenodd" xlink:href="#path-3"></use>
                </g>
                <rect id="Rectangle-Copy-4" fill-opacity="0.1" fill="#F06000" x="122" y="28" width="53" height="20" rx="2"></rect>
                <rect id="Rectangle" fill="#F06000" x="128" y="36" width="27" height="4" rx="2"></rect>
                <g id="09-Icons/Remove" transform="translate(161.000000, 33.000000)">
                    <mask id="mask-6" fill="white">
                        <use xlink:href="#path-5"></use>
                    </mask>
                    <use id="Icon" fill="#F06000" fill-rule="evenodd" xlink:href="#path-5"></use>
                </g>
                <g id="09-Icons/Arrow-Right" transform="translate(150.000000, 10.000000) rotate(90.000000) translate(-150.000000, -10.000000) translate(143.000000, 3.000000)">
                    <mask id="mask-8" fill="white">
                        <use xlink:href="#path-7"></use>
                    </mask>
                    <use id="Icon" fill="#C6CCD0" fill-rule="evenodd" transform="translate(7.000000, 7.000000) rotate(-270.000000) translate(-7.000000, -7.000000) " xlink:href="#path-7"></use>
                </g>
            </g>
        </g>
    </g>
</svg>