<?xml version="1.0" encoding="UTF-8"?>
<svg width="152px" height="44px" viewBox="0 0 152 44" version="1.1" xmlns="http://www.w3.org/2000/svg" xmlns:xlink="http://www.w3.org/1999/xlink">
    <!-- Generator: Sketch 57.1 (83088) - https://sketch.com -->
    <title>Group 4</title>
    <desc>Created with Sketch.</desc>
    <defs>
        <path d="M32,9.5 L30.5,9.5 L30.5,5 L27.5,5 L27.5,12.5 L26,12.5 L26,9.5 L15.5,9.5 L15.5,5 L12.5,5 L12.5,12.5 L11,12.5 L11,9.5 L8,9.5 C6.3455,9.5 5,10.847 5,12.5 L5,32 C5,33.6545 6.3455,35 8,35 L32,35 C33.6545,35 35,33.6545 35,32 L35,12.5 C35,10.847 33.6545,9.5 32,9.5 Z M31.6622917,31.6666667 L8.33333333,31.6666667 L8.33333333,15 L31.6666667,15 L31.6622917,31.6666667 Z" id="path-1"></path>
        <path d="M14.2583333,31.6666667 L25.7416667,31.6666667 C24.5866667,33.65 22.46,35 20,35 C17.6278571,35 15.5656633,33.7447066 14.3857724,31.8767106 L14.2583333,31.6666667 L25.7416667,31.6666667 Z M20,5 C25.515,5 30,9.485 30,15 L30,19.73 C30,22.1633333 31.5516667,24.315 33.86,25.0866667 L35,25.465 L35,30 L5,30 L5,25.465 L6.14,25.0866667 C8.44833333,24.315 10,22.1633333 10,19.73 L10,15 C10,9.485 14.485,5 20,5 Z M20,8.33333333 C16.3233333,8.33333333 13.3333333,11.3233333 13.3333333,15 L13.3333333,19.73 C13.3333333,22.4766667 12.0916667,24.9966667 10.0583333,26.6666667 L29.9433333,26.6666667 C27.9083333,24.9966667 26.6666667,22.4766667 26.6666667,19.73 L26.6666667,15 C26.6666667,11.3233333 23.6766667,8.33333333 20,8.33333333 Z" id="path-3"></path>
        <path d="M40.4704211,50.75 L35.8799784,50.75 C33.3483493,50.75 31.2895357,48.6984696 31.2895357,46.1706911 L31.2895357,39.3017278 L26.6990931,39.3017278 L26.6990931,46.1706911 C26.6990931,48.6984696 24.6402795,50.75 22.1086504,50.75 L17.5182077,50.75 C14.9865786,50.75 12.9277651,48.6984696 12.9277651,46.1706911 L12.9277651,32.4327644 L8.33732239,32.4327644 C7.41005297,32.4327644 6.57229718,31.8763784 6.21653788,31.0200476 C5.86077857,30.1660065 6.0581676,29.1814551 6.71460091,28.5266139 L27.3715929,7.91972393 C28.2690245,7.02675869 29.7196044,7.02675869 30.6170359,7.91972393 L51.2740279,28.5266139 C51.9304612,29.1814551 52.1278502,30.1660065 51.7720909,31.0200476 C51.4163316,31.8763784 50.5785758,32.4327644 49.6513064,32.4327644 L45.0608638,32.4327644 L45.0608638,46.1706911 C45.0608638,48.69618 43.0020502,50.75 40.4704211,50.75 Z M24.4038717,34.7224189 L33.5847571,34.7224189 C34.8517193,34.7224189 35.8799784,35.7504737 35.8799784,37.0120733 L35.8799784,46.1706911 L40.4727163,46.1706911 L40.4704211,30.14311 C40.4704211,28.8815104 41.4986802,27.8534555 42.7656424,27.8534555 L44.1106421,27.8534555 L28.9943144,12.776081 L13.8779867,27.8534555 L15.2229864,27.8534555 C16.4899486,27.8534555 17.5182077,28.8815104 17.5182077,30.14311 L17.5182077,46.1706911 L22.1086504,46.1706911 L22.1086504,37.0120733 C22.1086504,35.7481841 23.1346143,34.7224189 24.4038717,34.7224189 Z" id="path-5"></path>
    </defs>
    <g id="Dev-Portal" stroke="none" stroke-width="1" fill="none" fill-rule="evenodd">
        <g id="Portal---Components-Overview" transform="translate(-307.000000, -1152.000000)">
            <g id="Group-15" transform="translate(248.000000, 1096.000000)">
                <g id="Group-4" transform="translate(54.000000, 49.000000)">
                    <g id="09-Icons/Calendar" transform="translate(0.000000, 9.000000)">
                        <mask id="mask-2" fill="white">
                            <use xlink:href="#path-1"></use>
                        </mask>
                        <use id="Icon" fill="#C6CCD0" fill-rule="evenodd" xlink:href="#path-1"></use>
                    </g>
                    <g id="09-Icons/Notification" transform="translate(122.000000, 9.000000)">
                        <mask id="mask-4" fill="white">
                            <use xlink:href="#path-3"></use>
                        </mask>
                        <use id="Icon" fill="#C6CCD0" fill-rule="evenodd" xlink:href="#path-3"></use>
                    </g>
                    <g id="09-Icons/Home-1" transform="translate(52.000000, 0.000000)">
                        <mask id="mask-6" fill="white">
                            <use xlink:href="#path-5"></use>
                        </mask>
                        <use id="Icon" fill="#F06000" fill-rule="evenodd" xlink:href="#path-5"></use>
                    </g>
                </g>
            </g>
        </g>
    </g>
</svg>