<?xml version="1.0" encoding="UTF-8"?>
<svg width="48px" height="48px" viewBox="0 0 48 48" version="1.1" xmlns="http://www.w3.org/2000/svg" xmlns:xlink="http://www.w3.org/1999/xlink">
    <!-- Generator: Sketch 57.1 (83088) - https://sketch.com -->
    <title>28 Loaders/Full Page Loader 2</title>
    <desc>Created with Sketch.</desc>
    <defs>
        <path d="M24,0 C37.254834,0 48,10.745166 48,24 C48,37.254834 37.254834,48 24,48 C10.745166,48 0,37.254834 0,24 C0,10.745166 10.745166,0 24,0 Z M24,4 C12.954305,4 4,12.954305 4,24 C4,35.045695 12.954305,44 24,44 C35.045695,44 44,35.045695 44,24 C44,12.954305 35.045695,4 24,4 Z" id="path-1"></path>
    </defs>
    <g id="Dev-Portal" stroke="none" stroke-width="1" fill="none" fill-rule="evenodd">
        <g id="Portal---Components-Overview" transform="translate(-947.000000, -1151.000000)">
            <g id="28-Loaders/Full-Page-Loader-2" transform="translate(947.000000, 1151.000000)">
                <g id="28-Loaders/Full-Page-Loader">
                    <g id="Loader">
                        <mask id="mask-2" fill="white">
                            <use xlink:href="#path-1"></use>
                        </mask>
                        <use id="Circle" fill="#F5F6F8" xlink:href="#path-1"></use>
                        <rect id="Spinner" fill="#F06000" mask="url(#mask-2)" x="24" y="-24" width="48" height="48"></rect>
                    </g>
                </g>
            </g>
        </g>
    </g>
</svg>