<?xml version="1.0" encoding="UTF-8"?>
<svg width="170px" height="50px" viewBox="0 0 170 50" version="1.1" xmlns="http://www.w3.org/2000/svg" xmlns:xlink="http://www.w3.org/1999/xlink">
    <!-- Generator: Sketch 57.1 (83088) - https://sketch.com -->
    <title>Group 29</title>
    <desc>Created with Sketch.</desc>
    <defs>
        <polygon id="path-1" points="9.04037689 8.75 9.91666667 7.94139218 7 5.25 4.08333333 7.94139218 4.95962311 8.75 7 6.86721563"></polygon>
        <polygon id="path-3" points="9.04037689 8.75 9.91666667 7.94139218 7 5.25 4.08333333 7.94139218 4.95962311 8.75 7 6.86721563"></polygon>
        <polygon id="path-5" points="9.04037689 8.75 9.91666667 7.94139218 7 5.25 4.08333333 7.94139218 4.95962311 8.75 7 6.86721563"></polygon>
        <polygon id="path-7" points="9.04037689 8.75 9.91666667 7.94139218 7 5.25 4.08333333 7.94139218 4.95962311 8.75 7 6.86721563"></polygon>
    </defs>
    <g id="Dev-Portal" stroke="none" stroke-width="1" fill="none" fill-rule="evenodd">
        <g id="Portal---Components-Overview" transform="translate(-298.000000, -1662.000000)">
            <g id="Group-29" transform="translate(298.000000, 1662.000000)">
                <g id="Group-23">
                    <rect id="Rectangle-Copy-4" stroke="#C6C8C9" x="0.5" y="0.5" width="76" height="19" rx="2"></rect>
                    <rect id="Rectangle" fill="#C6CCD0" x="9" y="8" width="39" height="4" rx="2"></rect>
                    <g id="09-Icons/Arrow-Right" transform="translate(65.000000, 10.000000) rotate(90.000000) translate(-65.000000, -10.000000) translate(58.000000, 3.000000)">
                        <mask id="mask-2" fill="white">
                            <use xlink:href="#path-1"></use>
                        </mask>
                        <use id="Icon" fill="#C6CCD0" fill-rule="evenodd" transform="translate(7.000000, 7.000000) rotate(-270.000000) translate(-7.000000, -7.000000) " xlink:href="#path-1"></use>
                    </g>
                </g>
                <g id="Group-23" transform="translate(93.000000, 0.000000)">
                    <rect id="Rectangle-Copy-4" stroke="#C6C8C9" x="0.5" y="0.5" width="76" height="19" rx="2"></rect>
                    <rect id="Rectangle" fill="#C6CCD0" x="9" y="8" width="39" height="4" rx="2"></rect>
                    <g id="09-Icons/Arrow-Right" transform="translate(65.000000, 10.000000) rotate(90.000000) translate(-65.000000, -10.000000) translate(58.000000, 3.000000)">
                        <mask id="mask-4" fill="white">
                            <use xlink:href="#path-3"></use>
                        </mask>
                        <use id="Icon" fill="#C6CCD0" fill-rule="evenodd" transform="translate(7.000000, 7.000000) rotate(-270.000000) translate(-7.000000, -7.000000) " xlink:href="#path-3"></use>
                    </g>
                </g>
                <g id="Group-23" transform="translate(0.000000, 30.000000)">
                    <rect id="Rectangle-Copy-4" stroke="#C6C8C9" x="0.5" y="0.5" width="76" height="19" rx="2"></rect>
                    <rect id="Rectangle" fill="#C6CCD0" x="9" y="8" width="39" height="4" rx="2"></rect>
                    <g id="09-Icons/Arrow-Right" transform="translate(65.000000, 10.000000) rotate(90.000000) translate(-65.000000, -10.000000) translate(58.000000, 3.000000)">
                        <mask id="mask-6" fill="white">
                            <use xlink:href="#path-5"></use>
                        </mask>
                        <use id="Icon" fill="#C6CCD0" fill-rule="evenodd" transform="translate(7.000000, 7.000000) rotate(-270.000000) translate(-7.000000, -7.000000) " xlink:href="#path-5"></use>
                    </g>
                </g>
                <g id="Group-23" transform="translate(93.000000, 30.000000)">
                    <rect id="Rectangle-Copy-4" stroke="#C6C8C9" x="0.5" y="0.5" width="76" height="19" rx="2"></rect>
                    <rect id="Rectangle" fill="#C6CCD0" x="9" y="8" width="39" height="4" rx="2"></rect>
                    <g id="09-Icons/Arrow-Right" transform="translate(65.000000, 10.000000) rotate(90.000000) translate(-65.000000, -10.000000) translate(58.000000, 3.000000)">
                        <mask id="mask-8" fill="white">
                            <use xlink:href="#path-7"></use>
                        </mask>
                        <use id="Icon" fill="#C6CCD0" fill-rule="evenodd" transform="translate(7.000000, 7.000000) rotate(-270.000000) translate(-7.000000, -7.000000) " xlink:href="#path-7"></use>
                    </g>
                </g>
            </g>
        </g>
    </g>
</svg>