<?xml version="1.0" encoding="UTF-8"?>
<svg width="152px" height="88px" viewBox="0 0 152 88" version="1.1" xmlns="http://www.w3.org/2000/svg" xmlns:xlink="http://www.w3.org/1999/xlink">
    <!-- Generator: Sketch 57.1 (83088) - https://sketch.com -->
    <title>Group 30</title>
    <desc>Created with Sketch.</desc>
    <g id="Dev-Portal" stroke="none" stroke-width="1" fill="none" fill-rule="evenodd">
        <g id="Portal---Components-Overview" transform="translate(-603.000000, -1640.000000)">
            <g id="Group-18" transform="translate(542.000000, 1608.000000)">
                <g id="Group-30" transform="translate(61.000000, 32.000000)">
                    <path d="M1,30 L151,30" id="Line" stroke="#C6CCD0" stroke-linecap="round"></path>
                    <path d="M1,11 L151,11" id="Line" stroke="#C6CCD0" stroke-linecap="round"></path>
                    <path d="M0.5,87.5 L150.5,87.5" id="Line" stroke="#C6CCD0" stroke-linecap="round"></path>
                    <g id="Group-6" transform="translate(0.000000, 49.000000)">
                        <rect id="Rectangle-Copy-18" fill="#F5F6F8" x="0" y="0" width="151" height="20"></rect>
                        <rect id="Rectangle-Copy-20" fill="#F06000" x="20" y="8" width="4" height="4" rx="1"></rect>
                        <rect id="Rectangle-Copy-20" fill="#C6CCD4" x="11" y="5" width="2" height="2" rx="1"></rect>
                        <rect id="Rectangle-Copy-20" fill="#C6CCD4" x="11" y="9" width="2" height="2" rx="1"></rect>
                        <rect id="Rectangle-Copy-20" fill="#C6CCD4" x="14" y="5" width="2" height="2" rx="1"></rect>
                        <rect id="Rectangle-Copy-20" fill="#C6CCD4" x="14" y="9" width="2" height="2" rx="1"></rect>
                        <rect id="Rectangle-Copy-20" fill="#C6CCD4" x="11" y="13" width="2" height="2" rx="1"></rect>
                        <rect id="Rectangle-Copy-20" fill="#C6CCD4" x="14" y="13" width="2" height="2" rx="1"></rect>
                        <rect id="Rectangle-Copy-38" fill="#C6CCD0" x="28" y="8" width="39" height="4" rx="2"></rect>
                    </g>
                    <rect id="Rectangle-Copy-20" fill="#F06000" x="20" y="18" width="4" height="4" rx="1"></rect>
                    <rect id="Rectangle-Copy-20" fill="#F06000" x="20" y="38" width="4" height="4" rx="1"></rect>
                    <path d="M1,50 L151,50" id="Line" stroke="#C6CCD0" stroke-linecap="round"></path>
                    <path d="M0.5,68.5 L150.5,68.5" id="Line" stroke="#C6CCD0" stroke-linecap="round"></path>
                    <rect id="Rectangle-Copy-20" fill="#F06000" x="20" y="76" width="4" height="4" rx="1"></rect>
                    <rect id="Rectangle-Copy-40" fill="#C6CCD0" x="28" y="76" width="56" height="4" rx="2"></rect>
                    <rect id="Rectangle-Copy-37" fill="#C6CCD0" x="28" y="38" width="83" height="4" rx="2"></rect>
                    <rect id="Rectangle-Copy-35" fill="#C6CCD0" x="28" y="18" width="102" height="4" rx="2"></rect>
                    <rect id="Rectangle-Copy-35" fill="#C6CCD0" x="19" y="0" width="46" height="4" rx="2"></rect>
                </g>
            </g>
        </g>
    </g>
</svg>