<?xml version="1.0" encoding="UTF-8"?>
<svg width="153px" height="89px" viewBox="0 0 153 89" version="1.1" xmlns="http://www.w3.org/2000/svg" xmlns:xlink="http://www.w3.org/1999/xlink">
    <!-- Generator: Sketch 57.1 (83088) - https://sketch.com -->
    <title>Group 32</title>
    <desc>Created with Sketch.</desc>
    <g id="Dev-Portal" stroke="none" stroke-width="1" fill="none" fill-rule="evenodd">
        <g id="Portal---Components-Overview" transform="translate(-307.000000, -1892.000000)">
            <g id="Group-19" transform="translate(248.000000, 1864.000000)">
                <g id="Group-32" transform="translate(59.000000, 28.000000)">
                    <rect id="Rectangle" stroke="#C6CCD0" fill="#F5F6F8" x="0.5" y="0.5" width="152" height="12" rx="2"></rect>
                    <path d="M0.5,28.5 L152.5,28.5 L152.5,18 C152.5,17.1715729 151.828427,16.5 151,16.5 L2,16.5 C1.17157288,16.5 0.5,17.1715729 0.5,18 L0.5,28.5 Z" id="Rectangle" stroke="#C6CCD0" fill="#F5F6F8"></path>
                    <rect id="Rectangle" stroke="#C6CCD0" fill="#F5F6F8" x="0.5" y="28.5" width="152" height="12"></rect>
                    <rect id="Rectangle" stroke="#C6CCD0" fill="#F5F6F8" x="0.5" y="40.5" width="152" height="12"></rect>
                    <rect id="Rectangle" stroke="#C6CCD0" fill="#F5F6F8" x="0.5" y="52.5" width="152" height="12"></rect>
                    <path d="M0.5,76.5 L0.5,87 C0.5,87.8284271 1.17157288,88.5 2,88.5 L151,88.5 C151.828427,88.5 152.5,87.8284271 152.5,87 L152.5,76.5 L0.5,76.5 Z" id="Rectangle" stroke="#C6CCD0" fill="#F5F6F8"></path>
                    <rect id="Rectangle-Copy-37" fill="#C6CCD0" x="117" y="21" width="30" height="3" rx="1.5"></rect>
                    <rect id="Rectangle-Copy-37" fill="#C6CCD0" x="117" y="33" width="30" height="3" rx="1.5"></rect>
                    <rect id="Rectangle-Copy-37" fill="#C6CCD0" x="117" y="45" width="30" height="3" rx="1.5"></rect>
                    <rect id="Rectangle-Copy-37" fill="#C6CCD0" x="117" y="57" width="30" height="3" rx="1.5"></rect>
                    <rect id="Rectangle-Copy-37" fill="#C6CCD0" x="117" y="81" width="30" height="3" rx="1.5"></rect>
                    <rect id="Rectangle-Copy-37" fill="#F06000" x="4" y="21" width="30" height="3" rx="1.5"></rect>
                    <rect id="Rectangle-Copy-37" fill="#F06000" x="4" y="33" width="30" height="3" rx="1.5"></rect>
                    <rect id="Rectangle-Copy-37" fill="#F06000" x="4" y="45" width="30" height="3" rx="1.5"></rect>
                    <rect id="Rectangle-Copy-37" fill="#F06000" x="4" y="57" width="30" height="3" rx="1.5"></rect>
                    <rect id="Rectangle-Copy-37" fill="#F06000" x="4" y="81" width="30" height="3" rx="1.5"></rect>
                    <rect id="Rectangle-Copy-37" fill="#C6CCD0" x="41" y="21" width="30" height="3" rx="1.5"></rect>
                    <rect id="Rectangle-Copy-37" fill="#C6CCD0" x="41" y="33" width="30" height="3" rx="1.5"></rect>
                    <rect id="Rectangle-Copy-37" fill="#C6CCD0" x="41" y="45" width="30" height="3" rx="1.5"></rect>
                    <rect id="Rectangle-Copy-37" fill="#C6CCD0" x="41" y="57" width="30" height="3" rx="1.5"></rect>
                    <rect id="Rectangle-Copy-37" fill="#C6CCD0" x="41" y="81" width="30" height="3" rx="1.5"></rect>
                    <rect id="Rectangle-Copy-37" fill="#C6CCD0" x="78" y="21" width="30" height="3" rx="1.5"></rect>
                    <rect id="Rectangle-Copy-37" fill="#C6CCD0" x="78" y="33" width="30" height="3" rx="1.5"></rect>
                    <rect id="Rectangle-Copy-37" fill="#C6CCD0" x="78" y="45" width="30" height="3" rx="1.5"></rect>
                    <rect id="Rectangle-Copy-37" fill="#C6CCD0" x="78" y="57" width="30" height="3" rx="1.5"></rect>
                    <rect id="Rectangle" stroke="#C6CCD0" fill="#F5F6F8" x="0.5" y="64.5" width="152" height="12"></rect>
                    <rect id="Rectangle-Copy-37" fill="#C6CCD0" x="117" y="69" width="30" height="3" rx="1.5"></rect>
                    <rect id="Rectangle-Copy-37" fill="#F06000" x="4" y="69" width="30" height="3" rx="1.5"></rect>
                    <rect id="Rectangle-Copy-37" fill="#C6CCD0" x="41" y="69" width="30" height="3" rx="1.5"></rect>
                    <rect id="Rectangle-Copy-37" fill="#C6CCD0" x="78" y="69" width="30" height="3" rx="1.5"></rect>
                    <rect id="Rectangle-Copy-37" fill="#C6CCD0" x="78" y="81" width="30" height="3" rx="1.5"></rect>
                </g>
            </g>
        </g>
    </g>
</svg>