<?xml version="1.0" encoding="UTF-8"?>
<svg width="145px" height="85px" viewBox="0 0 145 85" version="1.1" xmlns="http://www.w3.org/2000/svg" xmlns:xlink="http://www.w3.org/1999/xlink">
    <!-- Generator: Sketch 57.1 (83088) - https://sketch.com -->
    <title>Group 34</title>
    <desc>Created with Sketch.</desc>
    <g id="Dev-Portal" stroke="none" stroke-width="1" fill="none" fill-rule="evenodd">
        <g id="Portal---Components-Overview" transform="translate(-899.000000, -1895.000000)">
            <g id="Group-20" transform="translate(836.000000, 1864.000000)">
                <g id="27-Cards/Card-Copy-4">
                    <g id="Master-Components/Card">
                        <g id="Group-34" transform="translate(63.000000, 31.000000)">
                            <rect id="Rectangle-Copy-18" stroke="#C6CCD0" fill="#F5F6F8" x="0.5" y="0.5" width="144" height="74" rx="2"></rect>
                            <path d="M16.8705185,85.5 L29.1294815,85.5 L23.4318895,75.7326993 C23.3884301,75.6581975 23.3264373,75.5962048 23.2519355,75.5527454 C23.0134096,75.4136053 22.7072507,75.4941734 22.5681105,75.7326993 L16.8705185,85.5 Z" id="Triangle" stroke="#C6CCD0" fill="#F5F6F8" transform="translate(23.000000, 80.000000) scale(1, -1) translate(-23.000000, -80.000000) "></path>
                            <polygon id="Rectangle" fill="#F5F6F8" points="16.555671 73 29.3905606 73 28.2684216 75 17.7637875 75"></polygon>
                            <g id="Stacked-Group" transform="translate(14.000000, 12.000000)" fill="#C6CCD0">
                                <rect id="Rectangle-Copy-37" x="0" y="48" width="83" height="4" rx="2"></rect>
                                <rect id="Rectangle-Copy-35" x="0" y="32" width="117" height="4" rx="2"></rect>
                                <rect id="Rectangle-Copy-35" x="0" y="16" width="117" height="4" rx="2"></rect>
                                <rect id="Rectangle-Copy-35" x="0" y="0" width="117" height="4" rx="2"></rect>
                            </g>
                        </g>
                    </g>
                </g>
            </g>
        </g>
    </g>
</svg>