<svg width="180" height="40" viewBox="0 0 180 40" xmlns="http://www.w3.org/2000/svg"><g fill="none" fill-rule="evenodd"><path d="M14.709 12.38c0 1.851-1.465 3.354-3.271 3.354-1.808 0-3.272-1.503-3.272-3.355 0-1.851 1.464-3.353 3.272-3.353 1.806 0 3.27 1.502 3.27 3.353M6.543 26.707c0 1.853-1.464 3.355-3.27 3.355C1.464 30.062 0 28.56 0 26.707c0-1.852 1.465-3.353 3.272-3.353 1.807 0 3.271 1.501 3.271 3.353m16.907 0c0 1.853-1.464 3.355-3.27 3.355-1.808 0-3.273-1.502-3.273-3.355 0-1.852 1.465-3.353 3.272-3.353 1.807 0 3.271 1.501 3.271 3.353" fill="#F65216"/><path fill="#FFF" d="M31 0v39.869h.588V0zm12.241 25.716l-2.372-4.252h-.99v4.252H37.9v-10.63h3.458c1.507 0 2.199.194 2.811.79.566.531.849 1.304.849 2.303 0 .82-.189 1.481-.566 1.997-.392.515-.754.74-1.619.982l2.578 4.558h-2.169zm-2.073-8.907h-1.289v2.932h1.289c1.256 0 1.807-.451 1.807-1.514 0-1.015-.519-1.418-1.807-1.418zm15.336 8.907v-10.63h6.316v1.723h-4.336v2.625h3.55v1.724h-3.55v2.835h4.54v1.723zm23.412 0l-.817-2.625h-3.47l-.85 2.625h-2.074l3.754-10.63h1.775l3.756 10.63h-2.074zm-2.56-8.198l-1.195 3.85h2.404l-1.21-3.85zm15.509 8.198v-10.63h1.98v8.907h4.24v1.723zm22.893-4.51c-.737.644-1.649.917-3.064.917a9.15 9.15 0 0 1-.958-.047v3.64h-1.98v-10.63h3.55c1.352 0 2.106.242 2.75.87.582.595.88 1.4.88 2.383 0 1.175-.407 2.19-1.178 2.867m-2.64-4.397h-1.382v3.543l.252.016h.25c.221 0 .363.017.44.017 1.54 0 2.217-.58 2.217-1.885 0-1.159-.55-1.69-1.777-1.69m20.632 8.906l-.817-2.625h-3.47l-.85 2.625h-2.074l3.754-10.63h1.775l3.756 10.63h-2.074zm-2.56-8.198l-1.195 3.85h2.404l-1.21-3.85zm22.704 8.052c-1.1.259-1.744.355-2.608.355-3.44 0-5.828-2.255-5.828-5.54 0-1.612.597-3.013 1.712-4.059 1.068-1 2.262-1.418 4.054-1.418.753 0 1.507.08 2.167.242.503.13.817.241 1.54.563l-.47 1.692a19.61 19.61 0 0 0-.85-.306 6.58 6.58 0 0 0-2.136-.387c-2.325 0-3.943 1.466-3.943 3.575 0 2.175 1.775 3.834 4.084 3.834.472 0 .739-.049 1.351-.226v-2.931h1.98v4.349c-.47.112-.817.194-1.053.257m13.044.146v-10.63h6.316v1.723h-4.336v2.625h3.55v1.724h-3.55v2.835h4.54v1.723zm11.212-8.621c-.67 0-1.216-.558-1.216-1.247 0-.686.545-1.244 1.216-1.244.669 0 1.214.558 1.214 1.244 0 .69-.545 1.247-1.214 1.247zm0-2.298c-.567 0-1.026.47-1.026 1.051 0 .583.459 1.053 1.026 1.053.565 0 1.024-.47 1.024-1.053 0-.58-.459-1.05-1.024-1.05zm.312 1.77l-.431-.591h-.148v.591h-.242v-1.433h.504c.363 0 .524.121.524.403 0 .238-.14.396-.376.42l.467.61h-.298zm-.122-1.208a.564.564 0 0 0-.231-.034h-.226v.477h.226c.216 0 .32-.081.32-.257 0-.083-.035-.159-.089-.186z"/></g></svg>