<svg width="24" height="22" viewBox="0 0 24 22" xmlns="http://www.w3.org/2000/svg"><path d="M14.709 3.38c0 1.851-1.465 3.354-3.271 3.354-1.808 0-3.272-1.503-3.272-3.355 0-1.851 1.464-3.353 3.272-3.353 1.806 0 3.27 1.502 3.27 3.353M6.543 17.707c0 1.853-1.464 3.355-3.27 3.355C1.464 21.062 0 19.56 0 17.707c0-1.852 1.465-3.353 3.272-3.353 1.807 0 3.271 1.501 3.271 3.353m16.907 0c0 1.853-1.464 3.355-3.27 3.355-1.808 0-3.273-1.502-3.273-3.355 0-1.852 1.465-3.353 3.272-3.353 1.807 0 3.271 1.501 3.271 3.353" fill="#F65216" fill-rule="evenodd"/></svg>