<svg width="60" height="60" viewBox="0 0 60 60" xmlns="http://www.w3.org/2000/svg"><defs><linearGradient x1="50%" y1="100%" x2="50%" y2="0%" id="a"><stop stop-color="#0076CC" offset="0%"/><stop stop-color="#178DE3" offset="100%"/></linearGradient></defs><path d="M114.122 57.88a3.005 3.005 0 0 1 .65 3.27 2.997 2.997 0 0 1-2.771 1.85h-3v27H61V63h-3a3 3 0 0 1-2.121-5.121l27-27a2.997 2.997 0 0 1 4.242 0l27 27zM88.298 69.174l2.115 2.114c.517-.606.964-1.271 1.331-1.987v-2.425h.885c.168-.74.264-1.507.264-2.298 0-5.711-4.629-10.34-10.34-10.34-5.71 0-10.34 4.629-10.34 10.34s4.63 10.34 10.34 10.34l5.745-5.744zm-9.191 0v-2.298h4.02a.575.575 0 0 0 0-1.149H81.98a2.876 2.876 0 0 1-2.872-2.872c0-1.387.988-2.547 2.297-2.814v-1.207h2.298v1.149H86v2.297h-4.021a.575.575 0 0 0 0 1.149h1.149A2.875 2.875 0 0 1 86 66.301a2.876 2.876 0 0 1-2.298 2.814v1.208h-2.298v-1.15h-2.297zm13.786 0v2.297h2.971l-4.12 4.12-2.634-2.633a1.148 1.148 0 0 0-1.624 0l-6.894 6.893 1.625 1.625 6.08-6.082 2.635 2.634c.45.45 1.175.45 1.625 0l4.932-4.932v2.971h2.298v-6.893h-6.894z" transform="translate(-55 -30)" fill="url(#a)"/></svg>