<svg width="60" height="60" viewBox="0 0 60 60" xmlns="http://www.w3.org/2000/svg"><defs><linearGradient x1="50%" y1="100%" x2="50%" y2="0%" id="a"><stop stop-color="#0076CC" offset="0%"/><stop stop-color="#178DE3" offset="100%"/></linearGradient></defs><path d="M114.12 57.88a3.005 3.005 0 0 1 .652 3.27A2.997 2.997 0 0 1 112 63h-3v27H61V63h-3a3 3 0 0 1-2.121-5.12l27-27a2.997 2.997 0 0 1 4.242 0l27 27zM96.256 75.533V55.84h-22.51v19.695L85 81.162l11.255-5.628zm-5.627-14.068V72.72L85 75.534V61.466h5.628z" transform="translate(-55 -30)" fill="url(#a)"/></svg>