<svg width="60" height="60" viewBox="0 0 60 60" xmlns="http://www.w3.org/2000/svg"><defs><linearGradient x1="50%" y1="100%" x2="50%" y2="0%" id="a"><stop stop-color="#0076CC" offset="0%"/><stop stop-color="#178DE3" offset="100%"/></linearGradient></defs><path d="M59.122 27.88l-27-27a2.997 2.997 0 0 0-4.242 0l-27 27A3 3 0 0 0 3 33h3v27h48V33h3c1.213 0 2.31-.728 2.773-1.85a3.005 3.005 0 0 0-.651-3.27zm-25.447 9.187l1.658 11.6H24.667l1.658-11.6C23.768 35.73 22 33.083 22 30c0-4.416 3.584-8 8-8s8 3.584 8 8c0 3.083-1.765 5.73-4.325 7.067z" fill="url(#a)"/></svg>