<svg width="60" height="60" viewBox="0 0 60 60" xmlns="http://www.w3.org/2000/svg"><defs><linearGradient x1="50%" y1="100%" x2="50%" y2="0%" id="a"><stop stop-color="#0076CC" offset="0%"/><stop stop-color="#178DE3" offset="100%"/></linearGradient></defs><path d="M114.122 57.88a3.005 3.005 0 0 1 .65 3.27 2.997 2.997 0 0 1-2.771 1.85h-3v27H61V63h-3a3 3 0 0 1-2.121-5.121l27-27a2.997 2.997 0 0 1 4.242 0l27 27zM72.5 77.5V80h25v-2.5h-25zm10-12.652V76.25h5V64.848h-5zM90 55v21.25h5V55h-5zm-15 6.047V76.25h5V61.047h-5z" transform="translate(-55 -30)" fill="url(#a)"/></svg>