<svg width="60" height="60" viewBox="0 0 60 60" xmlns="http://www.w3.org/2000/svg"><defs><linearGradient x1="50%" y1="100%" x2="50%" y2="0%" id="a"><stop stop-color="#0076CC" offset="0%"/><stop stop-color="#178DE3" offset="100%"/></linearGradient></defs><path d="M114.122 57.88a3.005 3.005 0 0 1 .65 3.27 2.997 2.997 0 0 1-2.771 1.85h-3v27H61V63h-3a3 3 0 0 1-2.121-5.121l27-27a2.997 2.997 0 0 1 4.242 0l27 27zm-20.62 6.396v-5.309l-4.97-4.969H76.166a2.17 2.17 0 0 0-2.167 2.167V75.67a2.17 2.17 0 0 0 2.167 2.167h7.869l1.483-5.324 7.985-8.236zm-15.17-.526h10.825v2.167H78.332V63.75zm0-4.334h10.825v2.167H78.332v-2.167zm0 8.668h6.501v2.167h-6.5v-2.167zm21.354 1.401l-3.25-3.25a1.082 1.082 0 0 0-1.533 0l-7.585 7.585a1.087 1.087 0 0 0-.285.502l-1.083 4.335a1.083 1.083 0 0 0 1.314 1.314l4.334-1.084c.19-.047.364-.146.503-.286l7.585-7.585a1.081 1.081 0 0 0 0-1.53zm-8.905 7.373l-2.29.572.572-2.29 3.355-3.356 1.719 1.718-3.356 3.356zm4.888-4.888l-1.718-1.719 1.718-1.718 1.719 1.718-1.719 1.719z" transform="translate(-55 -30)" fill="url(#a)"/></svg>