<svg width="26" height="26" viewBox="0 0 26 26" xmlns="http://www.w3.org/2000/svg" xmlns:xlink="http://www.w3.org/1999/xlink"><defs><path d="M3 21h19v2H3v-2zM22.533 9.155a1 1 0 0 1 .428 1.123 1.001 1.001 0 0 1-.96.723H3a1 1 0 0 1-.536-1.846l9.5-6a1 1 0 0 1 1.068 0l9.5 6zM6.455 9h12.088L12.5 5.184 6.455 9zM8 20H5a1 1 0 0 1-1-1v-6a1 1 0 0 1 1-1h3a1 1 0 0 1 1 1v6a1 1 0 0 1-1 1zm-2-6v4h1v-4H6zm8 6h-3a1 1 0 0 1-1-1v-6a1 1 0 0 1 1-1h3a1 1 0 0 1 1 1v6a1 1 0 0 1-1 1zm-2-6v4h1v-4h-1zm8 6h-3a1 1 0 0 1-1-1v-6a1 1 0 0 1 1-1h3a1 1 0 0 1 1 1v6a1 1 0 0 1-1 1zm-2-6v4h1v-4h-1z" id="a"/></defs><g fill="none" fill-rule="evenodd"><path d="M0 0h26v26H0z"/><mask id="b" fill="#fff"><use xlink:href="#a"/></mask><g mask="url(#b)" fill="#0E181C"><path d="M0 0h26v26H0z"/></g></g></svg>