<svg width="26" height="26" viewBox="0 0 26 26" xmlns="http://www.w3.org/2000/svg" xmlns:xlink="http://www.w3.org/1999/xlink"><defs><path d="M21 3H5c-.552 0-1 .449-1 1v18a1 1 0 0 0 1 1h4.999c.552 0 1-.446 1-.999L11 20c0-1.102.897-2 2-2s2 .898 2 2v2a1 1 0 0 0 1 1h5a1 1 0 0 0 1-1V4a1 1 0 0 0-1-1zm-1 18h-3v-1c0-2.205-1.794-4-4-4s-4 1.795-4 4v1H6V5h14v16zM9 10h2a1 1 0 0 0 1-1V8c0-.551-.448-1-1-1H9c-.552 0-1 .449-1 1v1a1 1 0 0 0 1 1zm6 0h2a1 1 0 0 0 1-1V8c0-.551-.448-1-1-1h-2c-.552 0-1 .449-1 1v1a1 1 0 0 0 1 1zm-6 5h2a1 1 0 0 0 1-1v-1c0-.551-.448-1-1-1H9c-.552 0-1 .449-1 1v1a1 1 0 0 0 1 1zm6 0h2a1 1 0 0 0 1-1v-1c0-.551-.448-1-1-1h-2c-.552 0-1 .449-1 1v1a1 1 0 0 0 1 1z" id="a"/></defs><g fill="none" fill-rule="evenodd"><path d="M0 0h26v26H0z"/><mask id="b" fill="#fff"><use xlink:href="#a"/></mask><g mask="url(#b)" fill="#0E181C"><path d="M0 0h26v26H0z"/></g></g></svg>