<svg width="24" height="34" viewBox="0 0 24 34" xmlns="http://www.w3.org/2000/svg" xmlns:xlink="http://www.w3.org/1999/xlink"><defs><path d="M28.333 16.85v-5.183c0-4.595-3.738-8.334-8.333-8.334-4.595 0-8.333 3.739-8.333 8.334v5.183A11.626 11.626 0 0 0 8.333 25c0 6.433 5.235 11.667 11.667 11.667 6.432 0 11.667-5.234 11.667-11.667 0-3.17-1.275-6.045-3.334-8.15zM20 6.667c2.757 0 5 2.243 5 5v2.81a11.54 11.54 0 0 0-5-1.144c-1.79 0-3.483.417-5 1.144v-2.81c0-2.757 2.243-5 5-5zm0 26.666c-4.595 0-8.333-3.738-8.333-8.333 0-4.595 3.738-8.333 8.333-8.333 4.595 0 8.333 3.738 8.333 8.333 0 4.595-3.738 8.333-8.333 8.333zM20 30a2.5 2.5 0 1 0 0-5 2.5 2.5 0 0 0 0 5z" id="a"/></defs><g transform="translate(-8 -3)" fill="none" fill-rule="evenodd"><path d="M0 0h40v40H0z"/><mask id="b" fill="#fff"><use xlink:href="#a"/></mask><g mask="url(#b)" fill="#303436"><path d="M0 0h40v40H0z"/></g></g></svg>