<svg width="34" height="29" viewBox="0 0 34 29" xmlns="http://www.w3.org/2000/svg" xmlns:xlink="http://www.w3.org/1999/xlink"><defs><path d="M24.2 20.952l1.255-1.255-1.818-1.819-1.257 1.255a4.747 4.747 0 0 0-1.167-.478v-1.988h-2.425v1.99c-.415.108-.803.27-1.166.478l-1.257-1.255-1.818 1.818 1.255 1.255c-.207.365-.37.754-.479 1.169h-1.99v2.425h1.989c.108.416.271.803.478 1.168l-1.255 1.255 1.818 1.817 1.257-1.255c.363.208.752.37 1.167.478V30h2.425v-1.988a4.74 4.74 0 0 0 1.166-.479l1.257 1.255 1.818-1.816-1.255-1.255a4.84 4.84 0 0 0 .479-1.169h1.99v-2.425h-1.989a4.889 4.889 0 0 0-.478-1.171zM20 26a2.664 2.664 0 0 1-2.667-2.667A2.665 2.665 0 0 1 20 20.667a2.665 2.665 0 0 1 2.667 2.666A2.664 2.664 0 0 1 20 26zm13.333-14.333h-13.75L16.833 8a3.348 3.348 0 0 0-2.666-1.333h-7.5A3.338 3.338 0 0 0 3.333 10v21.667A3.337 3.337 0 0 0 6.667 35h26.666a3.337 3.337 0 0 0 3.334-3.333V15a3.338 3.338 0 0 0-3.334-3.333zm-26.666 20V10h7.5l2.75 3.667A3.348 3.348 0 0 0 19.583 15h13.75l.002 16.667H6.667z" id="a"/></defs><g transform="translate(-3 -6)" fill="none" fill-rule="evenodd"><path d="M0 0h40v40H0z"/><mask id="b" fill="#fff"><use xlink:href="#a"/></mask><g mask="url(#b)" fill="#303436"><path d="M0 0h40v40H0z"/></g><g mask="url(#b)"><path d="M0 0h40v40H0z"/></g></g></svg>