<svg width="34" height="34" viewBox="0 0 34 34" xmlns="http://www.w3.org/2000/svg" xmlns:xlink="http://www.w3.org/1999/xlink"><defs><path d="M20 36.667c-9.19 0-16.667-7.475-16.667-16.667C3.333 10.812 10.81 3.333 20 3.333c9.19 0 16.667 7.477 16.667 16.667 0 9.192-7.477 16.667-16.667 16.667zm0-30c7.352 0 13.333 5.981 13.333 13.333S27.352 33.333 20 33.333 6.667 27.352 6.667 20 12.648 6.667 20 6.667zM21.667 25v-6.667c0-.92-.745-1.666-1.667-1.666h-3.333V20h1.666v5H15v3.333h10V25h-3.333zM20 15.417a2.083 2.083 0 1 0 0-4.167 2.083 2.083 0 0 0 0 4.167z" id="a"/></defs><g transform="translate(-3 -3)" fill="none" fill-rule="evenodd"><path d="M0 0h40v40H0z"/><mask id="b" fill="#fff"><use xlink:href="#a"/></mask><g mask="url(#b)" fill="#303436"><path d="M0 0h40v40H0z"/></g></g></svg>