<svg width="24" height="24" viewBox="0 0 24 24" xmlns="http://www.w3.org/2000/svg" xmlns:xlink="http://www.w3.org/1999/xlink"><defs><path d="M12 22C6.486 22 2 17.515 2 12 2 6.487 6.486 2 12 2s10 4.486 10 10c0 5.515-4.486 10-10 10zm0-18c-4.411 0-8 3.589-8 8s3.589 8 8 8 8-3.589 8-8-3.589-8-8-8zm1 11h-2v-3h1a2 2 0 1 0-2-2H8c0-2.205 1.795-4 4-4s4 1.795 4 4a4.011 4.011 0 0 1-3 3.875V15zm-1 3.25a1.25 1.25 0 1 1 0-2.5 1.25 1.25 0 0 1 0 2.5z" id="a"/></defs><g fill="none" fill-rule="evenodd"><path d="M0 0h24v24H0z"/><mask id="b" fill="#fff"><use xlink:href="#a"/></mask><g mask="url(#b)" fill="#0E181C"><path d="M0 0h24v24H0z"/></g></g></svg>