<svg width="38" height="34" viewBox="0 0 38 34" xmlns="http://www.w3.org/2000/svg" xmlns:xlink="http://www.w3.org/1999/xlink"><defs><path d="M20.002 20h13.333c.92 0 1.667-.747 1.667-1.667 0-8.27-6.73-15-15-15-.92 0-1.667.747-1.667 1.667v13.333c0 .92.747 1.667 1.667 1.667zm1.666-13.215a11.69 11.69 0 0 1 9.882 9.882h-9.882V6.785zm16.175 15.37a1.67 1.67 0 0 0-1.178-.488H23.333a1.668 1.668 0 0 0-1.178 2.845l9.425 9.428a1.67 1.67 0 0 0 2.357 0 14.91 14.91 0 0 0 4.395-10.608c0-.44-.175-.865-.489-1.177zm-5.168 8.168L27.357 25h7.525a11.54 11.54 0 0 1-2.207 5.323zm-16.008-9.346V8.448c0-.478-.205-.933-.564-1.25a1.655 1.655 0 0 0-1.31-.401c-7.483.935-13.126 7.328-13.126 14.87 0 8.27 6.728 15 15 15 3.513 0 6.933-1.244 9.625-3.502a1.668 1.668 0 0 0 .106-2.457l-9.731-9.731zm0 12.356C10.235 33.333 5 28.1 5 21.667c0-5.217 3.47-9.727 8.333-11.17v11.17c0 .443.175.866.489 1.178l8.831 8.833a11.687 11.687 0 0 1-5.986 1.655z" id="a"/></defs><g transform="translate(-1 -3)" fill="none" fill-rule="evenodd"><path d="M0 0h40v40H0z"/><mask id="b" fill="#fff"><use xlink:href="#a"/></mask><g mask="url(#b)" fill="#303436"><path d="M0 0h40v40H0z"/></g></g></svg>