<?xml version="1.0" encoding="UTF-8"?>
<svg width="180px" height="40px" viewBox="0 0 180 40" version="1.1" xmlns="http://www.w3.org/2000/svg" xmlns:xlink="http://www.w3.org/1999/xlink">
    <!-- Generator: Sketch 43.2 (39069) - http://www.bohemiancoding.com/sketch -->
    <title>Logo_RealPage</title>
    <desc>Created with Sketch.</desc>
    <defs></defs>
    <g id="Global-Shell" stroke="none" stroke-width="1" fill="none" fill-rule="evenodd">
        <g id="Global-Shell-(Light):-Collapsed-Nav-Copy" transform="translate(-72.000000, -8.000000)">
            <g id="Logo_RealPage" transform="translate(72.000000, 8.000000)">
                <g id="3-Dots">
                    <g id="3-dots" transform="translate(0.000000, 9.000000)" fill="#F65216">
                        <path d="M14.7085002,3.37928539 C14.7085002,5.2310687 13.2440285,6.733681 11.4376767,6.733681 C9.63004924,6.733681 8.16557758,5.2310687 8.16557758,3.37928539 C8.16557758,1.52750209 9.63004924,0.0261975451 11.4376767,0.0261975451 C13.2440285,0.0261975451 14.7085002,1.52750209 14.7085002,3.37928539" id="Fill-2"></path>
                        <path d="M6.54305015,17.7071972 C6.54305015,19.5602882 5.07857849,21.0615928 3.27222669,21.0615928 C1.46459922,21.0615928 0.000127567217,19.5602882 0.000127567217,17.7071972 C0.000127567217,15.8554139 1.46459922,14.3541093 3.27222669,14.3541093 C5.07857849,14.3541093 6.54305015,15.8554139 6.54305015,17.7071972" id="Fill-4"></path>
                        <path d="M23.4500437,17.7071972 C23.4500437,19.5602882 21.9855721,21.0615928 20.1792203,21.0615928 C18.3715928,21.0615928 16.9071212,19.5602882 16.9071212,17.7071972 C16.9071212,15.8554139 18.3715928,14.3541093 20.1792203,14.3541093 C21.9855721,14.3541093 23.4500437,15.8554139 23.4500437,17.7071972" id="Fill-6"></path>
                    </g>
                    <polygon id="Fill-1" fill="#FFFFFF" points="31 0 31 39.8686235 31.2946803 39.8686235 31.5881429 39.8686235 31.5881429 0"></polygon>
                </g>
                <g id="REALPAGE" transform="translate(37.000000, 14.000000)" fill="#FFFFFF">
                    <path d="M6.24148431,11.7158435 L3.86942989,7.46408907 L2.8794503,7.46408907 L2.8794503,11.7158435 L0.899491116,11.7158435 L0.899491116,1.08645749 L4.35650472,1.08645749 C5.86400132,1.08645749 6.55564758,1.27994602 7.16814418,1.87539136 C7.73436867,2.40717274 8.01687207,3.17987854 8.01687207,4.17852901 C8.01687207,4.99991903 7.82813057,5.66027665 7.45064758,6.17582996 C7.05855234,6.69138327 6.69689928,6.91607962 5.83234146,7.15825236 L8.41018499,11.7158435 L6.24148431,11.7158435 Z M4.16776323,2.80912955 L2.8794503,2.80912955 L2.8794503,5.741417 L4.16776323,5.741417 C5.42441629,5.741417 5.97481084,5.28952767 5.97481084,4.22721323 C5.97481084,3.21233468 5.45607615,2.80912955 4.16776323,2.80912955 L4.16776323,2.80912955 Z" id="Fill-11"></path>
                    <polygon id="Fill-13" points="19.5040449 11.7158435 19.5040449 1.08645749 25.8201877 1.08645749 25.8201877 2.80912955 21.484004 2.80912955 21.484004 5.43433198 25.0347796 5.43433198 25.0347796 7.15825236 21.484004 7.15825236 21.484004 9.99317139 26.0247591 9.99317139 26.0247591 11.7158435"></polygon>
                    <path d="M42.9159054,11.7158435 L42.0988374,9.09064103 L38.6284292,9.09064103 L37.7784836,11.7158435 L35.7047625,11.7158435 L39.4588918,1.08645749 L41.2342796,1.08645749 L44.9896265,11.7158435 L42.9159054,11.7158435 Z M40.3551095,3.51817139 L39.1605585,7.36796896 L41.5654904,7.36796896 L40.3551095,3.51817139 Z" id="Fill-15"></path>
                    <polygon id="Fill-17" points="55.8645462 11.7158435 55.8645462 1.08645749 57.8445054 1.08645749 57.8445054 9.99317139 62.0857095 9.99317139 62.0857095 11.7158435"></polygon>
                    <path d="M78.7580374,7.20593792 C78.0213367,7.85006748 77.1092891,8.12344804 75.6943367,8.12344804 C75.3010238,8.12344804 75.0818401,8.10721997 74.736017,8.07601215 L74.736017,11.7160931 L72.7560578,11.7160931 L72.7560578,1.08545884 L76.3068333,1.08545884 C77.6584659,1.08545884 78.4122142,1.32763158 79.0563707,1.95553306 C79.6384251,2.55097841 79.9367585,3.35614035 79.9367585,4.33856275 C79.9367585,5.51447368 79.5288333,6.52935223 78.7580374,7.20593792 M76.1180918,2.80937922 L74.736017,2.80937922 L74.736017,6.35209177 L74.9880782,6.36831984 L75.2389217,6.36831984 C75.4593231,6.36831984 75.6005748,6.38454791 75.6785068,6.38454791 C77.2176632,6.38454791 77.8946972,5.80533063 77.8946972,4.49959514 C77.8946972,3.34116059 77.3443027,2.80937922 76.1180918,2.80937922" id="Fill-19"></path>
                    <path d="M96.749851,11.7158435 L95.932783,9.09064103 L92.4623748,9.09064103 L91.6124292,11.7158435 L89.5387081,11.7158435 L93.2928374,1.08645749 L95.0682251,1.08645749 L98.8235721,11.7158435 L96.749851,11.7158435 Z M94.1890551,3.51817139 L92.994504,7.36796896 L95.399436,7.36796896 L94.1890551,3.51817139 Z" id="Fill-21"></path>
                    <path d="M116.894048,11.5701653 C115.794477,11.8285661 115.15032,11.9246862 114.285763,11.9246862 C110.845797,11.9246862 108.457912,9.67023279 108.457912,6.38467274 C108.457912,4.77310054 109.054579,3.37249325 110.16998,2.32640688 C111.237892,1.3265081 112.432443,0.908323212 114.223661,0.908323212 C114.977409,0.908323212 115.731157,0.98821525 116.391143,1.15049595 C116.894048,1.2790722 117.208212,1.39142038 117.931518,1.71348516 L117.460273,3.40494939 C117.08279,3.25889676 116.800286,3.16277665 116.611545,3.09911269 C115.872409,2.84071188 115.13449,2.71213563 114.474504,2.71213563 C112.149939,2.71213563 110.531633,4.1776552 110.531633,6.28730432 C110.531633,8.46186572 112.307021,10.1208738 114.615756,10.1208738 C115.088218,10.1208738 115.354892,10.0721896 115.967388,9.89492915 L115.967388,6.96389001 L117.94613,6.96389001 L117.94613,11.3130128 C117.476103,11.425361 117.13028,11.5065013 116.894048,11.5701653" id="Fill-23"></path>
                    <polygon id="Fill-25" points="129.93779 11.7158435 129.93779 1.08645749 136.253933 1.08645749 136.253933 2.80912955 131.91775 2.80912955 131.91775 5.43433198 135.467307 5.43433198 135.467307 7.15825236 131.91775 7.15825236 131.91775 9.99317139 136.457287 9.99317139 136.457287 11.7158435"></polygon>
                    <path d="M141.15008,3.09524291 C140.479135,3.09524291 139.933611,2.53724696 139.933611,1.84817814 C139.933611,1.16160594 140.479135,0.603609987 141.15008,0.603609987 C141.81859,0.603609987 142.364114,1.16160594 142.364114,1.84817814 C142.364114,2.53724696 141.81859,3.09524291 141.15008,3.09524291 L141.15008,3.09524291 Z M141.15008,0.797098516 C140.582638,0.797098516 140.12357,1.26771255 140.12357,1.84817814 C140.12357,2.43114035 140.582638,2.90050607 141.15008,2.90050607 C141.715087,2.90050607 142.174155,2.43114035 142.174155,1.84817814 C142.174155,1.26771255 141.715087,0.797098516 141.15008,0.797098516 L141.15008,0.797098516 Z M141.461808,2.56720648 L141.030747,1.97550607 L140.883407,1.97550607 L140.883407,2.56720648 L140.641087,2.56720648 L140.641087,1.13414305 L141.145209,1.13414305 C141.50808,1.13414305 141.668815,1.25522942 141.668815,1.53734818 C141.668815,1.77452767 141.528781,1.93306343 141.29255,1.95678138 L141.760141,2.56720648 L141.461808,2.56720648 Z M141.340039,1.35883941 C141.294985,1.33761808 141.224359,1.32513495 141.108679,1.32513495 L140.883407,1.32513495 L140.883407,1.80199055 L141.108679,1.80199055 C141.325427,1.80199055 141.428931,1.7208502 141.428931,1.54483806 C141.428931,1.46244939 141.393618,1.38630229 141.340039,1.35883941 L141.340039,1.35883941 Z" id="Fill-8"></path>
                </g>
            </g>
        </g>
    </g>
</svg>