<?xml version="1.0" encoding="UTF-8"?>
<svg width="322px" height="70px" viewBox="0 0 322 70" version="1.1" xmlns="http://www.w3.org/2000/svg" xmlns:xlink="http://www.w3.org/1999/xlink">
    <!-- Generator: Sketch 45.1 (43504) - http://www.bohemiancoding.com/sketch -->
    <title>Logo</title>
    <desc>Created with Sketch.</desc>
    <defs></defs>
    <g id="Single-Sign-On" stroke="none" stroke-width="1" fill="none" fill-rule="evenodd">
        <g id="SSO-Desktop" transform="translate(-189.000000, -125.000000)">
            <g id="Logo-&amp;-Tag" transform="translate(189.000000, 124.000000)">
                <g id="Logo" transform="translate(0.000000, 0.555556)">
                    <path d="M25.3079569,21.8957996 C25.3079569,25.0208395 22.787797,27.5537516 19.6791986,27.5537516 C16.569892,27.5537516 14.0504402,25.0208395 14.0504402,21.8957996 C14.0504402,18.7714713 16.569892,16.2385592 19.6791986,16.2385592 C22.787797,16.2385592 25.3079569,18.7714713 25.3079569,21.8957996" id="Fill-2" fill="#F06000"></path>
                    <path d="M11.2578,46.0647916 C11.2578,49.1898315 8.73764007,51.722032 5.62904161,51.722032 C2.51973503,51.722032 0.000283243596,49.1898315 0.000283243596,46.0647916 C0.000283243596,42.9397516 2.51973503,40.4075512 5.62904161,40.4075512 C8.73764007,40.4075512 11.2578,42.9397516 11.2578,46.0647916" id="Fill-4" fill="#F06000"></path>
                    <path d="M40.3483335,46.0647916 C40.3483335,49.1898315 37.8281736,51.722032 34.7195751,51.722032 C31.6102686,51.722032 29.0908168,49.1898315 29.0908168,46.0647916 C29.0908168,42.9397516 31.6102686,40.4075512 34.7195751,40.4075512 C37.8281736,40.4075512 40.3483335,42.9397516 40.3483335,46.0647916" id="Fill-6" fill="#F06000"></path>
                    <path d="M319.494032,25.6829267 C319.414016,25.645207 319.286556,25.6231445 319.077664,25.6231445 L318.672626,25.6231445 L318.672626,26.4657879 L319.077664,26.4657879 C319.467832,26.4657879 319.654773,26.3206028 319.654773,26.0095933 C319.654773,25.8651198 319.591043,25.73061 319.494032,25.6829267 L319.494032,25.6829267 Z M319.714254,27.8165795 L318.939583,26.7711038 L318.672626,26.7711038 L318.672626,27.8165795 L318.235722,27.8165795 L318.235722,25.2850908 L319.14281,25.2850908 C319.798519,25.2850908 320.087427,25.5000218 320.087427,25.9982062 C320.087427,26.4166812 319.835341,26.6963762 319.409767,26.7390777 L320.251709,27.8165795 L319.714254,27.8165795 Z M319.152723,24.6901162 C318.128798,24.6901162 317.301727,25.5213725 317.301727,26.5462092 C317.301727,27.5760276 318.128798,28.407284 319.152723,28.407284 C320.171692,28.407284 320.998764,27.5760276 320.998764,26.5462092 C320.998764,25.5213725 320.171692,24.6901162 319.152723,24.6901162 L319.152723,24.6901162 Z M319.152723,28.7510312 C317.942565,28.7510312 316.960418,27.7639143 316.960418,26.5462092 C316.960418,25.3341975 317.942565,24.3470806 319.152723,24.3470806 C320.358633,24.3470806 321.340072,25.3341975 321.340072,26.5462092 C321.340072,27.7639143 320.358633,28.7510312 319.152723,28.7510312 L319.152723,28.7510312 Z" id="Fill-8" fill="#777776"></path>
                    <path d="M75.839535,28.2447335 L73.5176456,28.2447335 L73.5176456,33.4251402 L75.839535,33.4251402 C78.1047757,33.4251402 79.0968364,32.6273333 79.0968364,30.7498896 C79.0968364,28.9564256 78.1614244,28.2447335 75.839535,28.2447335 L75.839535,28.2447335 Z M79.5776424,43.9845156 L75.3013722,36.4704706 L73.5176456,36.4704706 L73.5176456,43.9845156 L69.9494844,43.9845156 L69.9494844,25.1994031 L76.1794273,25.1994031 C78.8971496,25.1994031 80.1434214,25.5410153 81.2487796,26.5936078 C82.2677484,27.5330414 82.778295,28.8994902 82.778295,30.6637749 C82.778295,32.1156267 82.4376946,33.2820901 81.7572018,34.1930559 C81.0505091,35.1047335 80.3990488,35.5025694 78.8405009,35.9302963 L83.486404,43.9845156 L79.5776424,43.9845156 Z" id="Fill-10" fill="#777776"></path>
                    <polygon id="Fill-12" fill="#777776" points="103.484818 43.984658 103.484818 25.1988337 114.869794 25.1988337 114.869794 28.2448758 107.052979 28.2448758 107.052979 32.8843965 113.453576 32.8843965 113.453576 35.9304386 107.052979 35.9304386 107.052979 40.9393275 115.238011 40.9393275 115.238011 43.984658"></polygon>
                    <path d="M141.069969,29.497098 L138.918025,36.3001627 L143.250944,36.3001627 L141.069969,29.497098 Z M145.686839,43.9843021 L144.213264,39.3454931 L137.955705,39.3454931 L136.425482,43.9843021 L132.687374,43.9843021 L139.456188,25.1991895 L142.656133,25.1991895 L149.424947,43.9843021 L145.686839,43.9843021 Z" id="Fill-14" fill="#777776"></path>
                    <polygon id="Fill-16" fill="#777776" points="169.026395 43.984658 169.026395 25.1988337 172.594556 25.1988337 172.594556 40.9393275 180.241425 40.9393275 180.241425 43.984658"></polygon>
                    <path d="M205.535503,28.2447335 L203.042959,28.2447335 L203.042959,34.5069121 L203.496857,34.5346681 L203.949339,34.5346681 C204.34588,34.5346681 204.600799,34.5638475 204.743129,34.5638475 C207.5175,34.5638475 208.736156,33.5382992 208.736156,31.2331285 C208.736156,29.184167 207.744095,28.2447335 205.535503,28.2447335 M210.293287,36.0149877 C208.962751,37.153695 207.319938,37.6369339 204.770745,37.6369339 C204.062636,37.6369339 203.666803,37.6084662 203.042959,37.5522426 L203.042959,43.9845156 L199.474798,43.9845156 L199.474798,25.1994031 L205.875395,25.1994031 C208.31129,25.1994031 209.67086,25.6257066 210.83145,26.736658 C211.879451,27.7885389 212.417614,29.211923 212.417614,30.9484517 C212.417614,33.0265926 211.681889,34.819345 210.293287,36.0149877" id="Fill-18" fill="#777776"></path>
                    <path d="M238.108517,29.497098 L235.956573,36.3001627 L240.289492,36.3001627 L238.108517,29.497098 Z M242.725387,43.9843021 L241.251812,39.3454931 L234.994253,39.3454931 L233.46403,43.9843021 L229.725922,43.9843021 L236.494736,25.1991895 L239.694681,25.1991895 L246.463495,43.9843021 L242.725387,43.9843021 Z" id="Fill-20" fill="#777776"></path>
                    <path d="M279.035021,43.7281641 C277.053024,44.1843588 275.893141,44.3544532 274.333885,44.3544532 C268.132975,44.3544532 263.82838,40.3696892 263.82838,34.5637052 C263.82838,31.7169368 264.904706,29.2416718 266.914319,27.3912723 C268.841084,25.6255643 270.993027,24.8861162 274.220588,24.8861162 C275.580157,24.8861162 276.939727,25.0284546 278.12935,25.3131314 C279.035021,25.5408729 279.602216,25.7401467 280.905137,26.3087887 L280.055406,29.2978954 C279.374913,29.0409746 278.866491,28.8708802 278.525891,28.7570094 C277.193938,28.3015265 275.863401,28.073785 274.674486,28.073785 C270.483897,28.073785 267.56578,30.6643442 267.56578,34.3928991 C267.56578,38.2346129 270.765724,41.1667843 274.928697,41.1667843 C275.779136,41.1667843 276.26065,41.0813813 277.364592,40.7682367 L277.364592,35.5878301 L280.932753,35.5878301 L280.932753,43.2726812 C280.083022,43.4726667 279.461303,43.6150051 279.035021,43.7281641" id="Fill-22" fill="#777776"></path>
                    <polygon id="Fill-24" fill="#777776" points="302.547851 43.984658 302.547851 25.1988337 313.931411 25.1988337 313.931411 28.2448758 306.116012 28.2448758 306.116012 32.8843965 312.515193 32.8843965 312.515193 35.9304386 306.116012 35.9304386 306.116012 40.9393275 314.299628 40.9393275 314.299628 43.984658"></polygon>
                    <polygon id="Fill-1" fill="#777776" points="55.7407407 0.444444444 55.7407407 70.4444444 56.3888889 70.4444444 57.037037 70.4444444 57.037037 0.444444444"></polygon>
                </g>
            </g>
        </g>
    </g>
</svg>