<?xml version="1.0" encoding="UTF-8"?>
<svg width="1059px" height="854px" viewBox="0 0 1059 854" version="1.1" xmlns="http://www.w3.org/2000/svg" xmlns:xlink="http://www.w3.org/1999/xlink">
    <!-- Generator: Sketch 57.1 (83088) - https://sketch.com -->
    <title>Path Copy</title>
    <desc>Created with Sketch.</desc>
    <g id="Home-Page" stroke="none" stroke-width="1" fill="none" fill-rule="evenodd">
        <path d="M-6.62628804,421.620563 C17.027648,555.017911 104.974996,669.160737 208.649694,756.372399 C275.207844,812.374116 353.467143,860.950886 440.282122,866.613981 C481.173234,869.256759 522.190166,858.182262 557.545252,837.920967 C595.542532,816.275359 620.203018,783.429408 649.392982,752.219463 L654.677372,746.556368 L717.460958,678.725075 L884.925793,495.618337 C936.385685,439.364927 989.103766,380.972126 1013.63843,308.86205 C1036.41164,241.911683 1032.25962,165.774517 1000.05,102.85124 C967.840388,39.9279624 907.447359,-8.3971147 838.372833,-23.7503944 C784.774021,-35.7058171 728.910469,-28.1550238 674.556744,-20.6042305 L316.728051,29.1051586 C257.593211,37.2851847 197.200183,45.968597 144.230464,73.4031459 C24.1993202,135.948884 -30.1544053,288.349062 -6.62628804,421.620563 Z" id="Path-Copy" fill="#F4F5F6" fill-rule="nonzero" transform="translate(508.000000, 418.500000) rotate(10.000000) translate(-508.000000, -418.500000) "></path>
    </g>
</svg>