<?xml version="1.0" encoding="UTF-8"?>
<svg width="320px" height="231px" viewBox="0 0 320 231" version="1.1" xmlns="http://www.w3.org/2000/svg" xmlns:xlink="http://www.w3.org/1999/xlink">
    <!-- Generator: Sketch 57.1 (83088) - https://sketch.com -->
    <title>Group 226</title>
    <desc>Created with Sketch.</desc>
    <defs>
        <polygon id="path-1" points="0.401908689 0.233058353 72.3827474 0.233058353 72.3827474 6.29698342 0.401908689 6.29698342"></polygon>
        <polygon id="path-3" points="4.79002133e-07 0.331539554 28.0126597 0.331539554 28.0126597 51.7022604 4.79002133e-07 51.7022604"></polygon>
    </defs>
    <g id="Home-Page" stroke="none" stroke-width="1" fill="none" fill-rule="evenodd">
        <g id="Mobile---Header-V2" transform="translate(-37.000000, -161.000000)">
            <g id="Group-226" transform="translate(37.000000, 161.000000)">
                <g id="Group-81" transform="translate(41.405751, 0.000000)">
                    <path d="M210.427317,204.949149 C210.427317,206.624146 198.236413,207.981496 183.199123,207.981496 C168.161133,207.981496 155.970229,206.624146 155.970229,204.949149 C155.970229,203.274851 168.161133,201.917501 183.199123,201.917501 C198.236413,201.917501 210.427317,203.274851 210.427317,204.949149" id="Fill-1" fill="#EBEDEE" opacity="0.8"></path>
                    <path d="M218.335836,221.741105 C187.082957,221.741105 195.643109,210.985157 179.152538,194.277161 C162.985229,177.895909 138.335436,185.457186 116.032442,192.642045" id="Stroke-3" stroke="#7D7D7D" stroke-width="2"></path>
                    <g id="Group-9" transform="translate(205.911232, 224.125632)">
                        <mask id="mask-2" fill="white">
                            <use xlink:href="#path-1"></use>
                        </mask>
                        <g id="Clip-8" opacity="0.1"></g>
                        <path d="M72.3830272,3.2654057 C72.3830272,4.93970363 56.2695955,6.29705339 36.3917683,6.29705339 C16.5153405,6.29705339 0.401908689,4.93970363 0.401908689,3.2654057 C0.401908689,1.59040811 16.5153405,0.233058353 36.3917683,0.233058353 C56.2695955,0.233058353 72.3830272,1.59040811 72.3830272,3.2654057" id="Fill-7" fill="#EBEDEE" opacity="0.8" mask="url(#mask-2)"></path>
                    </g>
                    <path d="M220.477343,226.82396 L258.844789,226.82396 C267.357361,226.82396 269.456466,223.477463 269.456466,218.14042 C269.456466,212.803376 253.509563,207.645447 242.751649,207.645447 C229.369853,207.645447 221.498208,212.630559 217.795386,215.450908 C211.378421,220.338766 210.798369,226.82396 220.477343,226.82396" id="Fill-10" fill="#C6CCD0"></path>
                    <path d="M242.751649,207.645307 C242.459873,207.645307 242.18559,207.66 241.900112,207.664898 C235.31172,209.984986 232.7774,215.954527 232.748713,216.025193 L233.395937,216.291065 C233.426724,216.215502 236.455033,209.086617 244.57927,207.693584 C243.957935,207.663499 243.345696,207.645307 242.751649,207.645307" id="Fill-12" fill="#959DA8"></path>
                    <path d="M257.707774,219.714525 C253.247175,219.014861 241.089857,213.505 234.180302,214.729414 C227.715058,215.874765 220.259036,218.259223 213.16546,221.640003 C212.592404,224.528219 214.719497,226.82382 220.477343,226.82382 L258.844789,226.82382 C266.912351,226.82382 269.215769,223.813862 269.435475,218.956788 C265.711662,220.083249 261.338526,220.284053 257.707774,219.714525" id="Fill-14" fill="#9BA3A7"></path>
                    <path d="M125.183282,180.305065 L125.183282,144.778184 L93.4154223,144.778184 L93.4154223,180.305065 C93.4154223,186.709796 88.2222359,191.902709 81.8164663,191.902709 L59.7156866,191.902709 C57.1344868,191.902709 55.0423786,193.994007 55.0423786,196.57507 L55.0423786,200.164351 L163.556325,200.164351 L163.556325,196.57507 C163.556325,193.994007 161.464217,191.902709 158.883017,191.902709 L136.781538,191.902709 C130.376468,191.902709 125.183282,186.709796 125.183282,180.305065" id="Fill-16" fill="#C6CCD0"></path>
                    <polygon id="Fill-18" fill="#9BA3A7" points="93.4152824 157.139022 125.183142 157.139022 125.183142 144.778044 93.4152824 144.778044"></polygon>
                    <path d="M208.486694,150.77704 L10.1114501,150.77704 C4.60759604,150.77704 0.14559794,146.315277 0.14559794,140.811014 L0.14559794,10.0387609 C0.14559794,4.53519741 4.60759604,0.0727351561 10.1114501,0.0727351561 L208.486694,0.0727351561 C213.990548,0.0727351561 218.452546,4.53519741 218.452546,10.0387609 L218.452546,140.811014 C218.452546,146.315277 213.990548,150.77704 208.486694,150.77704" id="Fill-20" fill="#C6CCD0"></path>
                    <path d="M204.950611,133.351678 L13.6479527,133.351678 C10.6707217,133.351678 8.25745032,130.939233 8.25745032,127.96216 L8.25745032,13.2668045 C8.25745032,10.2904304 10.6707217,7.87728637 13.6479527,7.87728637 L204.950611,7.87728637 C207.927842,7.87728637 210.341114,10.2904304 210.341114,13.2668045 L210.341114,127.96216 C210.341114,130.939233 207.927842,133.351678 204.950611,133.351678" id="Fill-21" fill="#5E5E5E"></path>
                    <path d="M210.341184,16.5063226 L8.25752029,16.5063226 L8.25752029,13.2668745 C8.25752029,10.2905003 10.6707917,7.87735634 13.6480226,7.87735634 L204.950681,7.87735634 C207.927912,7.87735634 210.341184,10.2905003 210.341184,13.2668745 L210.341184,16.5063226 Z" id="Fill-22" fill="#C24C00"></path>
                    <path d="M15.8521531,12.1918395 C15.8521531,13.2686236 14.979625,14.1411057 13.902784,14.1411057 C12.8266427,14.1411057 11.9534149,13.2686236 11.9534149,12.1918395 C11.9534149,11.1150553 12.8266427,10.2425733 13.902784,10.2425733 C14.979625,10.2425733 15.8521531,11.1150553 15.8521531,12.1918395" id="Fill-23" fill="#FFFFFF"></path>
                    <path d="M22.6742453,12.1918395 C22.6742453,13.2686236 21.8017172,14.1411057 20.7248762,14.1411057 C19.6487349,14.1411057 18.7755071,13.2686236 18.7755071,12.1918395 C18.7755071,11.1150553 19.6487349,10.2425733 20.7248762,10.2425733 C21.8017172,10.2425733 22.6742453,11.1150553 22.6742453,12.1918395" id="Fill-24" fill="#FFFFFF"></path>
                    <path d="M29.4963374,12.1918395 C29.4963374,13.2686236 28.6238093,14.1411057 27.5469683,14.1411057 C26.470827,14.1411057 25.5975992,13.2686236 25.5975992,12.1918395 C25.5975992,11.1150553 26.470827,10.2425733 27.5469683,10.2425733 C28.6238093,10.2425733 29.4963374,11.1150553 29.4963374,12.1918395" id="Fill-25" fill="#FFFFFF"></path>
                    <polygon id="Fill-26" fill="#404040" points="19.4015302 98.3573818 27.273175 98.3573818 27.273175 96.2583873 19.4015302 96.2583873"></polygon>
                    <polygon id="Fill-27" fill="#404040" points="19.4015302 102.905203 27.273175 102.905203 27.273175 100.806209 19.4015302 100.806209"></polygon>
                    <polygon id="Fill-28" fill="#404040" points="19.4015302 118.094227 29.3722803 118.094227 29.3722803 115.995232 19.4015302 115.995232"></polygon>
                    <polygon id="Fill-29" fill="#404040" points="31.4713855 118.094227 37.4405412 118.094227 37.4405412 115.995232 31.4713855 115.995232"></polygon>
                    <polygon id="Fill-30" fill="#FF995B" points="39.5396465 118.094227 53.1040648 118.094227 53.1040648 115.995232 39.5396465 115.995232"></polygon>
                    <polygon id="Fill-31" fill="#404040" points="55.2024703 118.094227 68.7668886 118.094227 68.7668886 115.995232 55.2024703 115.995232"></polygon>
                    <polygon id="Fill-32" fill="#404040" points="19.4015302 113.546405 37.4405412 113.546405 37.4405412 111.447411 19.4015302 111.447411"></polygon>
                    <polygon id="Fill-33" fill="#FF995B" points="19.4015302 122.642048 31.4713855 122.642048 31.4713855 120.543054 19.4015302 120.543054"></polygon>
                    <polygon id="Fill-34" fill="#404040" points="33.5047189 122.642048 37.4405412 122.642048 37.4405412 120.543054 33.5047189 120.543054"></polygon>
                    <polygon id="Fill-35" fill="#404040" points="39.5396465 122.642048 43.4754689 122.642048 43.4754689 120.543054 39.5396465 120.543054"></polygon>
                    <polygon id="Fill-36" fill="#404040" points="45.5409885 122.642048 68.7668886 122.642048 68.7668886 120.543054 45.5409885 120.543054"></polygon>
                    <polygon id="Fill-37" fill="#404040" points="60.0430071 113.546405 93.2788406 113.546405 93.2788406 111.447411 60.0430071 111.447411"></polygon>
                    <polygon id="Fill-38" fill="#404040" points="39.5396465 113.546405 51.0049595 113.546405 51.0049595 111.447411 39.5396465 111.447411"></polygon>
                    <polygon id="Fill-39" fill="#4BA848" points="53.1040648 113.546405 57.9439018 113.546405 57.9439018 111.447411 53.1040648 111.447411"></polygon>
                    <polygon id="Fill-40" fill="#C24C00" points="29.3722803 102.905203 93.2788406 102.905203 93.2788406 100.806209 29.3722803 100.806209"></polygon>
                    <polygon id="Fill-41" fill="#404040" points="29.3722803 98.3573818 38.7601787 98.3573818 38.7601787 96.2583873 29.3722803 96.2583873"></polygon>
                    <polygon id="Fill-42" fill="#404040" points="40.859284 98.3573818 68.1182651 98.3573818 68.1182651 96.2583873 40.859284 96.2583873"></polygon>
                    <polygon id="Fill-43" fill="#404040" points="70.2173703 98.3573818 93.2788406 98.3573818 93.2788406 96.2583873 70.2173703 96.2583873"></polygon>
                    <polygon id="Fill-44" fill="#404040" points="19.4015302 93.8102601 93.2788406 93.8102601 93.2788406 91.7112656 19.4015302 91.7112656"></polygon>
                    <polygon id="Fill-45" fill="#404040" points="125.319583 98.3573818 133.191228 98.3573818 133.191228 96.2583873 125.319583 96.2583873"></polygon>
                    <polygon id="Fill-46" fill="#404040" points="125.319583 102.905203 133.191228 102.905203 133.191228 100.806209 125.319583 100.806209"></polygon>
                    <polygon id="Fill-47" fill="#404040" points="125.319583 118.094227 135.290333 118.094227 135.290333 115.995232 125.319583 115.995232"></polygon>
                    <polygon id="Fill-48" fill="#404040" points="137.390138 118.094227 143.359294 118.094227 143.359294 115.995232 137.390138 115.995232"></polygon>
                    <polygon id="Fill-49" fill="#FF995B" points="145.4577 118.094227 159.022118 118.094227 159.022118 115.995232 145.4577 115.995232"></polygon>
                    <polygon id="Fill-50" fill="#404040" points="161.121223 118.094227 174.685641 118.094227 174.685641 115.995232 161.121223 115.995232"></polygon>
                    <polygon id="Fill-51" fill="#404040" points="125.320283 113.546405 143.359294 113.546405 143.359294 111.447411 125.320283 111.447411"></polygon>
                    <polygon id="Fill-52" fill="#FF995B" points="125.319583 122.642048 137.389439 122.642048 137.389439 120.543054 125.319583 120.543054"></polygon>
                    <polygon id="Fill-53" fill="#404040" points="139.423472 122.642048 143.359294 122.642048 143.359294 120.543054 139.423472 120.543054"></polygon>
                    <polygon id="Fill-54" fill="#404040" points="145.458399 122.642048 149.394222 122.642048 149.394222 120.543054 145.458399 120.543054"></polygon>
                    <polygon id="Fill-55" fill="#404040" points="151.459741 122.642048 174.685641 122.642048 174.685641 120.543054 151.459741 120.543054"></polygon>
                    <polygon id="Fill-56" fill="#404040" points="165.96106 113.546405 199.196894 113.546405 199.196894 111.447411 165.96106 111.447411"></polygon>
                    <polygon id="Fill-57" fill="#404040" points="145.4577 113.546405 156.923013 113.546405 156.923013 111.447411 145.4577 111.447411"></polygon>
                    <polygon id="Fill-58" fill="#FF995B" points="159.022118 113.546405 163.861955 113.546405 163.861955 111.447411 159.022118 111.447411"></polygon>
                    <polygon id="Fill-59" fill="#C24C00" points="135.290333 102.905203 199.196894 102.905203 199.196894 100.806209 135.290333 100.806209"></polygon>
                    <polygon id="Fill-60" fill="#404040" points="135.290333 98.3573818 144.678232 98.3573818 144.678232 96.2583873 135.290333 96.2583873"></polygon>
                    <polygon id="Fill-61" fill="#404040" points="146.777337 98.3573818 174.036318 98.3573818 174.036318 96.2583873 146.777337 96.2583873"></polygon>
                    <polygon id="Fill-62" fill="#404040" points="176.135424 98.3573818 199.196894 98.3573818 199.196894 96.2583873 176.135424 96.2583873"></polygon>
                    <polygon id="Fill-63" fill="#404040" points="125.319583 93.8102601 199.196894 93.8102601 199.196894 91.7112656 125.319583 91.7112656"></polygon>
                    <polygon id="Fill-64" fill="#9BA3A7" points="55.0422386 200.164211 163.556185 200.164211 163.556185 196.538548 55.0422386 196.538548"></polygon>
                    <polygon id="Fill-65" fill="#FF995B" points="162.985229 194.277231 203.413297 194.277231 203.413297 191.006998 162.985229 191.006998"></polygon>
                    <polygon id="Fill-66" fill="#FF995B" points="160.554465 204.949219 163.656942 204.949219 163.656942 159.79565 160.554465 159.79565"></polygon>
                    <polygon id="Fill-67" fill="#FF995B" points="202.740883 204.949219 205.84406 204.949219 205.84406 159.79565 202.740883 159.79565"></polygon>
                    <g id="Group-70" transform="translate(160.430618, 159.756468)" fill="#000000" opacity="0.15">
                        <polygon id="Fill-68" points="0.123847211 3.93141665 3.2263248 3.93141665 3.2263248 0.0391812302 0.123847211 0.0391812302"></polygon>
                        <polygon id="Fill-69" points="42.3102656 3.93141665 45.4134428 3.93141665 45.4134428 0.0391812302 42.3102656 0.0391812302"></polygon>
                    </g>
                    <polygon id="Fill-71" fill="#FF995B" points="157.215488 160.314801 209.181638 160.314801 209.181638 155.331088 157.215488 155.331088"></polygon>
                    <polygon id="Fill-72" fill="#000000" opacity="0.15" points="157.215488 160.314801 209.181638 160.314801 209.181638 158.316558 157.215488 158.316558"></polygon>
                    <polygon id="Fill-73" fill="#FF995B" points="162.985229 168.827623 203.413297 168.827623 203.413297 165.55669 162.985229 165.55669"></polygon>
                    <polygon id="Fill-74" fill="#FF995B" points="162.985229 177.310359 203.413297 177.310359 203.413297 174.040126 162.985229 174.040126"></polygon>
                    <polygon id="Fill-75" fill="#FF995B" points="162.985229 185.793795 203.413297 185.793795 203.413297 182.523562 162.985229 182.523562"></polygon>
                    <path d="M109.299212,21.4039764 L109.299212,127.406696" id="Stroke-76" stroke="#7D7D7D" stroke-width="2"></path>
                    <polygon id="Fill-77" fill="#4F4F4F" points="125.320283 67.635799 201.347777 67.635799 201.347777 26.3555743 125.320283 26.3555743"></polygon>
                    <polygon id="Fill-78" fill="#757575" points="125.320283 65.8327627 201.347777 65.8327627 201.347777 24.5525381 125.320283 24.5525381"></polygon>
                    <polygon id="Fill-79" fill="#858585" points="125.319583 65.8327627 141.718493 65.8327627 141.718493 24.5525381 125.319583 24.5525381"></polygon>
                    <polygon id="Fill-80" fill="#FFFFFF" points="125.320283 29.8783867 201.347777 29.8783867 201.347777 24.5525381 125.320283 24.5525381"></polygon>
                </g>
                <polygon id="Fill-77" fill="#4F4F4F" points="61.8530351 67.9872204 138.019169 67.9872204 138.019169 26.5814696 61.8530351 26.5814696"></polygon>
                <polygon id="Fill-78" fill="#757575" points="61.8530351 66.4536741 138.019169 66.4536741 138.019169 25.0479233 61.8530351 25.0479233"></polygon>
                <polygon id="Fill-79" fill="#858585" points="62.3642173 66.4536741 78.7220447 66.4536741 78.7220447 25.0479233 62.3642173 25.0479233"></polygon>
                <polygon id="Fill-80" fill="#FFFFFF" points="61.8530351 30.6709265 138.019169 30.6709265 138.019169 25.0479233 61.8530351 25.0479233"></polygon>
                <polygon id="Fill-96" fill="#424242" points="63.77012 28.115016 63.3865815 27.3485937 63.77012 26.5814696 64.5365893 26.5814696 64.9201278 27.3485937 64.5365893 28.115016"></polygon>
                <polygon id="Fill-98" fill="#424242" points="63.77012 65.4313099 63.3865815 64.6648877 63.77012 63.8977636 64.5365893 63.8977636 64.9201278 64.6648877 64.5365893 65.4313099"></polygon>
                <polygon id="Fill-100" fill="#424242" points="135.846797 28.115016 135.463259 27.3485937 135.846797 26.5814696 136.613267 26.5814696 136.996805 27.3485937 136.613267 28.115016"></polygon>
                <polygon id="Fill-102" fill="#424242" points="135.846797 65.4313099 135.463259 64.6648877 135.846797 63.8977636 136.613267 63.8977636 136.996805 64.6648877 136.613267 65.4313099"></polygon>
                <text id="CSS" font-family="LucidaGrande, Lucida Grande" font-size="14" font-weight="normal" letter-spacing="0.075863078" fill="#FFFFFF">
                    <tspan x="196.805112" y="50.8506922">CSS</tspan>
                </text>
                <text id="HTML" font-family="LucidaGrande, Lucida Grande" font-size="14" font-weight="normal" letter-spacing="0.075863078" fill="#FFFFFF">
                    <tspan x="86.3897764" y="49.9173589">HTML</tspan>
                </text>
                <g id="Group-210" transform="translate(0.000000, 26.070288)">
                    <polygon id="Fill-96" fill="#424242" points="168.10206 1.74361761 167.661285 0.980160053 168.10206 0.216003357 168.98291 0.216003357 169.423684 0.980160053 168.98291 1.74361761"></polygon>
                    <polygon id="Fill-98" fill="#424242" points="168.10206 38.6230922 167.661285 37.8596346 168.10206 37.0954779 168.98291 37.0954779 169.423684 37.8596346 168.98291 38.6230922"></polygon>
                    <polygon id="Fill-100" fill="#424242" points="240.263799 1.74361761 239.823025 0.980160053 240.263799 0.216003357 241.144649 0.216003357 241.585423 0.980160053 241.144649 1.74361761"></polygon>
                    <polygon id="Fill-102" fill="#424242" points="240.263799 38.6230922 239.823025 37.8596346 240.263799 37.0954779 241.144649 37.0954779 241.585423 37.8596346 241.144649 38.6230922"></polygon>
                    <polygon id="Fill-104" fill="#B8B8B8" points="241.661743 0.674077893 240.555267 1.0732851 241.951634 2.47155901 241.686192 3.46223608 240.69637 3.72790813 239.299304 2.32963421 238.901141 3.43776629 240.378538 4.91644096 241.924391 4.50185274 245.27246 7.85281618 246.072979 7.05090609 242.72491 3.70064179 243.13914 2.15275256"></polygon>
                    <path d="M245.853639,3.91303959 C245.665734,3.82355006 245.493895,3.77810616 245.333931,3.76062774 C245.328343,3.7599286 245.325548,3.75783119 245.31996,3.75713205 C244.450287,3.61730466 243.233442,4.20877453 243.233442,4.20877453 L243.801349,4.77717288 C243.648371,5.0008967 243.508664,5.22392139 243.370355,5.40429873 C243.044838,5.83007314 242.277849,4.85547622 242.277849,4.85547622 C240.493796,8.77623628 242.872999,10.2122636 242.872999,10.2122636 L243.0155,11.4413464 C243.0155,11.4413464 247.811627,13.858962 247.699163,10.6597112 C247.586001,7.46115966 247.202507,4.55205077 245.853639,3.91303959" id="Fill-106" fill="#D2A68A"></path>
                    <path d="M241.614867,30.0208037 C241.614867,30.0208037 243.938332,16.7682107 243.014871,11.4414862 C243.014871,11.4414862 245.427604,9.31051674 247.698535,10.6598511 C247.698535,10.6598511 248.621297,29.9070915 246.351065,33.2454705 C244.837111,35.4705904 240.3665,38.8025873 232.939232,43.2414611 L234.011576,74.0603171 C236.790281,108.214136 238.179633,125.291046 238.179633,125.291046 L243.499271,128.983887 C243.499271,128.983887 237.267342,129.97806 232.939232,129.197124 L233.151586,125.291046 C233.151586,125.291046 227.618506,89.7951634 224.35496,81.9109959 C224.35496,81.9109959 223.335047,86.3370328 221.897208,92.3831037 C219.111208,104.098155 214.756142,121.895481 213.211263,125.362358 L217.490584,129.197124 L207.336042,128.983887 L207.18013,125.077809 L212.438469,102.036365 L213.140712,74.509233 C212.099897,60.1629426 211.57949,52.9897974 211.57949,52.9897974 C211.57949,52.9897974 203.562427,65.3847965 203.70423,79.3759253 C203.70423,79.3759253 206.297184,83.6889012 205.871079,84.3279124 C205.444974,84.9676227 204.610227,84.4257916 204.610227,84.4257916 C204.610227,84.4257916 205.450562,87.2733764 204.128239,87.9333617 C203.553346,88.2200079 200.296786,88.1458993 199.657628,80.262431 C199.657628,80.262431 199.160971,68.1883357 201.573704,58.1745971 C203.986437,48.1601593 211.024959,40.2562761 217.978855,38.6230922 C219.475089,38.2716967 222.010373,38.6201383 225.276979,37.3716778 C229.536498,35.7437369 235.550673,34.1612687 241.614867,30.0208037 Z" id="Fill-112" fill="#FAFAFA"></path>
                    <path d="M238.35815,126.717845 C238.35815,126.717845 235.410863,80.9016519 234.984758,74.5094427 C234.558653,68.1172335 234.083987,57.3418484 233.151446,50.2756712 C231.124303,49.3842716 230.294446,47.1039731 230.04018,46.5390704 L227.173657,36.6854661 L224.748481,37.5474281 L225.773541,47.0235723 L217.907361,48.1226156 L217.33111,38.774035 L214.044474,39.7624752 L214.044474,49.2461287 C213.730832,52.1433523 212.534245,54.0526953 211.72744,55.0265931 L213.140572,74.5094427 L212.438469,102.036365 L207.17999,125.078019 L207.445975,128.989822 L207.336042,128.989822 L217.616685,129.260801 L213.211822,125.361869 C214.347576,122.812691 218.062969,113.335698 220.500231,103.662411 C223.087656,93.3931416 224.368791,82.9752921 224.368791,82.9752921 C227.633035,90.8587605 233.151446,125.291256 233.151446,125.291256 L232.442295,129.387651 C236.770406,130.168587 243.017547,130.041737 243.742348,129.260801 C244.225549,128.740177 242.430816,127.892525 238.35815,126.717845 Z" id="Fill-114" fill="#F15F00"></path>
                    <path d="M204.128309,87.9330121 C205.450632,87.273726 204.610297,84.425442 204.610297,84.425442 C204.610297,84.425442 205.445044,84.9679723 205.87045,84.328262 C206.297254,83.6892508 203.704299,79.3762749 203.704299,79.3762749 C203.704299,79.3762749 201.944695,81.1856413 199.713581,80.8556487 C200.464504,88.1462489 203.568784,88.2119678 204.128309,87.9330121 Z" id="Fill-116" fill="#D2A68A"></path>
                    <path d="M232.442295,129.387651 C236.770406,130.097102 243.114235,130.423526 244.146634,129.387651 C244.8349,128.697067 242.908472,127.218127 238.367349,124.95083 L233.152005,125.258605 L232.442295,129.387651 Z" id="Fill-118" fill="#1A2E35"></path>
                    <path d="M206.517572,129.180131 C210.845682,129.889582 217.189512,130.216006 218.221911,129.180131 C218.910177,128.489547 217.28761,127.07978 213.354211,124.95083 L207.227281,125.051086 L206.517572,129.180131 Z" id="Fill-118" fill="#1A2E35"></path>
                    <path d="M211.820624,56.3169202 C211.820624,56.3169202 214.269681,54.8794947 215.696085,49.5122202 L228.99266,47.8657527 C228.99266,47.8657527 230.176352,51.9333682 233.385412,53.1030243" id="Stroke-122" stroke="#C24C00"></path>
                    <path d="M225.16615,23.8089602 L227.728603,30.3292357 C228.298384,31.7811189 227.563068,33.4138276 226.087973,33.9695029 L225.216569,34.2981565 L225.637324,39.077932 L218.884727,39.6556055 L217.69787,26.1684904 L225.16615,23.8089602 Z" id="Fill-1" fill="#D2A68A"></path>
                    <path d="M214.333666,75.1341915 L221.698998,75.1341915 C221.698998,75.1341915 221.980507,80.4944746 217.918537,80.6902329 C213.403919,80.9076645 214.333666,75.1341915 214.333666,75.1341915 Z" id="Stroke-124" stroke="#C24C00"></path>
                    <g id="Group-8" transform="translate(216.929495, 47.909119) rotate(-5.000000) translate(-216.929495, -47.909119) translate(201.929495, 21.409119)">
                        <path d="M21.5722746,14.7920624 C21.5722746,14.7920624 24.1757629,12.5997855 23.9552121,10.64134 C23.9552121,10.64134 20.1146626,9.0944896 21.1567766,8.01530177 C22.1988906,6.93654857 23.8329871,8.10563775 23.8329871,8.10563775 C23.8329871,8.10563775 22.8879436,5.99687717 23.2266306,5.1967222 C23.2266306,5.1967222 28.2031743,4.77295735 27.1439911,2.00262179 C27.1439911,2.00262179 25.6508933,0.903875581 22.5038886,0.995582641 C19.356884,1.0872897 18.0906256,6.35023187 18.0906256,6.35023187 L21.5722746,14.7920624 Z" id="Fill-3" fill="#081216"></path>
                        <g id="Group-7" transform="translate(0.088341, 0.315742)">
                            <mask id="mask-4" fill="white">
                                <use xlink:href="#path-3"></use>
                            </mask>
                            <g id="Clip-6"></g>
                            <path d="M23.0285201,0.697513131 C20.7252517,0.140672857 18.1387483,0.662270076 16.3123587,2.0530892 C14.4856165,3.44390831 13.468369,5.66614315 13.6701254,7.82333853 C13.8119193,9.33814912 14.5007835,10.9189603 13.8493077,12.3197116 C13.5145754,13.0393107 12.8669796,13.594549 12.2313763,14.1209521 C10.3750054,15.6610736 8.45549754,17.1758842 7.01604297,19.0479313 C5.57694111,20.9202987 4.64646301,23.2312819 5.04433234,25.4855559 C5.21328572,26.4435262 5.6270275,27.3774672 6.31836074,28.1175713 C6.68166342,28.5065265 7.11797935,28.8403744 7.43754461,29.2591259 C8.57965534,30.7575966 7.93805577,32.8510341 8.63785432,34.5587203 C9.53552937,36.7501976 12.363294,37.7293137 14.9244014,37.9651218 C18.4385612,38.2890375 22.2278433,37.6126912 24.8182267,35.4314665 C27.4082573,33.2492806 28.3722439,29.3619716 26.3772537,26.7139366 C25.3899875,25.4032153 23.3166974,24.2352368 23.4814182,22.6544256 C23.5837073,21.6724259 23.5646221,21.5706305 24.0340938,20.6809036 C24.9740953,18.9001681 26.1381097,18.8851664 23.9943675,16.2239966 C23.4395317,15.535242 22.4528794,13.9633195 21.8613662,13.4705576 C21.2702057,12.978116 20.8709255,12.1713704 21.2250574,11.5180923 C21.4977108,11.0141166 22.0910637,11.1268036 22.3767677,10.6298766 C22.8035602,9.88592769 21.0172434,10.6810322 20.4144432,10.0453757 C19.8112902,9.41068029 20.3820541,6.70164819 20.294932,5.86670817 C20.2289732,5.23169239 20.5651163,4.62647302 20.891736,4.06194335 C21.5368628,2.94858319 22.1816369,1.83426186 22.8260582,0.720901704" id="Fill-5" fill="#081216" mask="url(#mask-4)"></path>
                        </g>
                    </g>
                    <path d="M225.203977,75.1341915 L233.007289,74.0603171 C233.007289,74.0603171 233.258062,78.7263572 229.923964,79.2542056 C225.203977,80.0008839 225.203977,75.1341915 225.203977,75.1341915 Z" id="Stroke-126" stroke="#C24C00"></path>
                    <path d="M212.427789,64.6853799 C213.985517,59.090886 212.97474,51.0864669 212.97474,51.0864669 C212.97474,51.0864669 212.367016,51.7303721 211.57977,52.9895177 L212.427789,64.6853799 Z" id="Fill-134" fill="#000000" opacity="0.2"></path>
                    <path d="M243.137953,12.3170853 C243.137953,12.3170853 244.702667,10.3895647 247.741285,11.6759767" id="Stroke-136" stroke="#C24C00"></path>
                    <path d="M203.707652,78.3950362 C203.707652,78.3950362 201.948746,79.7457688 199.64708,79.9289427" id="Stroke-138" stroke="#C24C00"></path>
                    <path d="M233.045339,124.088181 L237.955272,123.450479" id="Stroke-140" stroke="#C24C00"></path>
                    <path d="M207.336042,123.754273 L213.695486,124.08846" id="Stroke-142" stroke="#C24C00"></path>
                    <path d="M224.262718,82.9673529 C223.878236,83.9968371 217.448921,84.4677611 216.675556,82.781107 C215.902192,81.094453 221.040342,93.9559079 221.585616,98.9697513 C223.428576,90.12543 224.6472,81.9378688 224.262718,82.9673529 Z" id="Fill-144" fill="#000000" opacity="0.2"></path>
                    <path d="M117.922495,199.04601 C117.922495,200.719744 107.1775,202.07537 93.9229945,202.07537 C80.6684895,202.07537 69.9223024,200.719744 69.9223024,199.04601 C69.9223024,197.372276 80.6684895,196.01665 93.9229945,196.01665 C107.1775,196.01665 117.922495,197.372276 117.922495,199.04601" id="Fill-146" fill="#EBEDEE" opacity="0.8"></path>
                    <path d="M46.9688681,199.04601 C46.9688681,200.719744 36.5368342,202.07537 23.6683827,202.07537 C10.7987737,202.07537 0.36673979,200.719744 0.36673979,199.04601 C0.36673979,197.372276 10.7987737,196.01665 23.6683827,196.01665 C36.5368342,196.01665 46.9688681,197.372276 46.9688681,199.04601" id="Fill-148" fill="#EBEDEE" opacity="0.8"></path>
                    <path d="M86.6910853,146.287108 L90.7083484,165.422486 C90.7083484,165.422486 79.9956468,182.993895 77.7645325,185.003914 C75.5320211,187.014632 74.2676764,188.28007 74.2676764,188.28007 C74.2676764,188.28007 77.91332,193.715161 86.2447227,197.438065 C86.2447227,197.438065 83.9151153,191.109477 83.4065833,188.428986 C82.8966542,185.748495 97.4771329,173.538068 100.453582,169.815164 C103.429332,166.092259 94.204506,148.967599 94.204506,148.967599 L86.6910853,146.287108 Z" id="Fill-154" fill="#F15F00"></path>
                    <path d="M100.453722,169.815373 C103.429472,166.092469 94.2046457,148.967808 94.2046457,148.967808 L86.691225,146.287317 L89.4937393,159.637338 L96.6739597,173.713062 C98.3546301,172.092463 99.739821,170.708171 100.453722,169.815373" id="Fill-156" fill="#000000" opacity="0.2"></path>
                    <path d="M103.051356,86.6727479 L105.06383,91.8897078 L103.508895,92.3014995 C103.508895,92.3014995 104.240259,95.8258489 103.417387,96.6032892 C102.594516,97.3814287 99.774538,97.5191586 99.6529933,98.113425 C99.53075,98.7090897 98.9355999,102.506802 98.9355999,102.506802 L92.8541719,102.095709 C92.8541719,102.095709 93.8146547,96.4201153 93.2663063,94.1325392 C92.7172594,91.8435648 91.4368485,87.9081229 91.4368485,87.9081229 L103.051356,86.6727479 Z" id="Fill-158" fill="#6F452A"></path>
                    <path d="M103.503656,192.598779 C103.503656,192.598779 107.520221,169.467832 107.371433,164.603237 C107.222646,159.738643 99.6351807,142.117595 99.6351807,142.117595 C99.6351807,142.117595 104.1973,115.264443 103.007698,109.208519 C101.817398,103.152595 99.884557,101.655742 94.9731717,101.216684 C92.1965031,100.968491 89.2696499,102.457652 87.9305622,106.726583 C86.5914745,110.994814 84.6579352,129.212226 84.6579352,129.212226 C84.6579352,129.212226 82.872485,132.885491 83.5668267,140.380938 C84.26047,147.875687 95.1219592,161.823469 97.0568955,166.638425 C98.9904348,171.453381 96.0146843,192.796634 96.0146843,192.796634 C95.7667051,194.534689 94.7251924,198.108677 94.7251924,198.108677 C94.7251924,198.108677 103.750937,199.399284 111.289505,198.951836 L103.503656,192.598779 Z" id="Fill-160" fill="#F15F00"></path>
                    <path d="M102.207528,124.472566 L96.9412883,123.773429 L96.4648888,128.54434 C96.3454397,129.744758 97.050958,130.873864 98.1811843,131.292647 L101.148552,132.390292" id="Stroke-162" stroke="#C24C00"></path>
                    <path d="M94.9731717,101.216684 C92.1958046,100.96919 89.2696499,102.457652 87.9305622,106.726583 C87.6253033,107.699781 87.289309,109.40218 86.9526161,111.444359 L88.1785414,111.444359 C88.1785414,111.444359 89.5022614,103.946814 95.3699384,103.946814 C101.237615,103.946814 101.172652,111.838672 101.172652,111.838672 L103.204684,111.838672 C103.197,110.759904 103.136228,109.862212 103.007698,109.208519 C101.817398,103.153294 99.884557,101.655742 94.9731717,101.216684" id="Fill-164" fill="#FAFAFA"></path>
                    <path d="M96.8272877,90.0816698 L96.8272877,87.3340615 L91.4367088,87.9080529 C91.4367088,87.9080529 92.7171197,91.844194 93.2661666,94.1324693 C93.4338145,94.8288097 93.4603588,95.8397617 93.4170497,96.9087422 C95.9883496,96.3690084 96.8272877,93.8577085 96.8272877,93.8577085 C95.5419871,93.789193 95.2325369,91.3862593 95.4455895,90.4941606 C95.6593406,89.6013627 96.8272877,90.0816698 96.8272877,90.0816698" id="Fill-166" fill="#081216"></path>
                    <path d="M111.289784,198.951766 L103.503936,192.598709 L95.9758459,193.040563 C95.6747782,194.845735 94.7247733,198.108607 94.7247733,198.108607 C94.7247733,198.108607 103.751216,199.399214 111.289784,198.951766" id="Fill-168" fill="#1A2E35"></path>
                    <path d="M86.2449323,197.438135 C86.2449323,197.438135 83.9153248,191.109547 83.4067928,188.429056 C83.3893295,188.339566 83.3914251,188.238192 83.4074914,188.129126 L83.4067928,188.127029 L77.7640435,185.003984 C75.5322306,187.014702 74.267886,188.28014 74.267886,188.28014 C74.267886,188.28014 77.912831,193.715231 86.2449323,197.438135" id="Fill-170" fill="#1A2E35"></path>
                    <path d="M96.2672738,190.867995 L103.860327,190.50794" id="Stroke-172" stroke="#C24C00"></path>
                    <path d="M78.6320406,184.013866 L83.8689423,187.014562" id="Stroke-174" stroke="#C24C00"></path>
                    <path d="M103.051356,86.6727479 L91.4368485,87.9081229 C91.4368485,87.9081229 91.6610776,88.598171 91.9607482,89.56298 L103.87353,88.8030182 L103.051356,86.6727479 Z" id="Fill-176" fill="#000000"></path>
                    <path d="M91.5282864,88.9148801 L108.629771,86.535717 L103.051286,85.4366737 L100.079029,79.5786051 C100.079029,79.5786051 93.4492521,80.5853624 91.5282864,82.6911629 C89.6080193,84.7955651 91.5282864,88.9148801 91.5282864,88.9148801" id="Fill-178" fill="#FFFFFF"></path>
                    <path d="M15.7374589,146.287108 L19.754722,165.422486 C19.754722,165.422486 9.04202036,182.993895 6.81020751,185.003914 C4.57839466,187.014632 3.31404998,188.28007 3.31404998,188.28007 C3.31404998,188.28007 6.95899503,193.715161 15.2903978,197.438065 C15.2903978,197.438065 12.9614889,191.109477 12.4522583,188.428986 C11.9430278,185.748495 26.5235065,173.538068 29.499257,169.815164 C32.4750075,166.092259 23.2508796,148.967599 23.2508796,148.967599 L15.7374589,146.287108 Z" id="Fill-180" fill="#F15F00"></path>
                    <path d="M29.4993967,169.815373 C32.4751472,166.092469 23.2510193,148.967808 23.2510193,148.967808 L15.7375986,146.287317 L18.5401129,159.637338 L25.7203333,173.713062 C27.4010037,172.092463 28.7861945,170.708171 29.4993967,169.815373" id="Fill-182" fill="#000000" opacity="0.2"></path>
                    <path d="M32.0977298,86.6727479 L35.1789587,91.8848139 L32.5552689,92.3014995 C32.5552689,92.3014995 33.0735804,94.2688709 32.2507085,95.0470103 C31.4278367,95.8251498 28.8209116,97.5191586 28.6993669,98.113425 C28.5771236,98.7090897 27.9819735,102.506802 27.9819735,102.506802 L21.9005455,102.095709 C21.9005455,102.095709 22.8610283,96.4201153 22.3119814,94.1325392 C21.763633,91.8435648 20.4832221,87.9081229 20.4832221,87.9081229 L32.0977298,86.6727479 Z" id="Fill-184" fill="#FFCAA8"></path>
                    <path d="M32.5493314,192.598779 C32.5493314,192.598779 36.5665945,169.467832 36.417807,164.603237 C36.2690195,159.738643 28.6815543,142.117595 28.6815543,142.117595 C28.6815543,142.117595 33.2436731,115.264443 32.053373,109.208519 C30.8637713,103.152595 28.9309306,101.655742 24.0195452,101.216684 C21.2421781,100.968491 18.3160235,102.457652 16.9769358,106.726583 C15.6378481,110.994814 13.7036103,129.212226 13.7036103,129.212226 C13.7036103,129.212226 11.9188586,132.885491 12.6125018,140.380938 C13.3068436,147.875687 24.1683328,161.823469 26.1025706,166.638425 C28.0368084,171.453381 25.0610579,192.796634 25.0610579,192.796634 C24.8130787,194.534689 23.771566,198.108677 23.771566,198.108677 C23.771566,198.108677 32.7973106,199.399284 40.3358784,198.951836 L32.5493314,192.598779 Z" id="Fill-186" fill="#F15F00"></path>
                    <path d="M31.253902,124.472566 L25.9869634,123.773429 L25.5112624,128.54434 C25.3918133,129.744758 26.0973316,130.873864 27.2275579,131.292647 L30.194926,132.390292" id="Stroke-188" stroke="#C24C00"></path>
                    <path d="M24.0196151,101.216684 C21.242248,100.96919 18.3160934,102.457652 16.9770057,106.726583 C16.6717468,107.699781 16.3357524,109.40218 15.9990595,111.444359 L17.2249849,111.444359 C17.2249849,111.444359 18.5487049,103.946814 24.4156833,103.946814 C30.2840588,103.946814 30.2190952,111.838672 30.2190952,111.838672 L32.2504291,111.838672 C32.2434438,110.759904 32.1826714,109.862212 32.0534428,109.208519 C30.8638412,103.153294 28.9310004,101.655742 24.0196151,101.216684" id="Fill-190" fill="#FAFAFA"></path>
                    <path d="M25.8737312,90.0816698 L25.8737312,87.3340615 L20.585138,87.8975659 C20.585138,87.8975659 20.6549913,91.6022926 20.2414598,94.4820378 C20.139474,95.1916618 22.5068022,95.8397617 22.4634932,96.9087422 C25.0347931,96.3690084 25.8737312,93.8577085 25.8737312,93.8577085 C24.587732,93.789193 24.2789804,91.3862593 24.4920329,90.4941606 C24.705784,89.6013627 25.8737312,90.0816698 25.8737312,90.0816698" id="Fill-192" fill="#081216"></path>
                    <path d="M40.3362277,198.951766 L32.5503792,192.598709 L25.0222893,193.040563 C24.7212216,194.845735 23.7712168,198.108607 23.7712168,198.108607 C23.7712168,198.108607 32.7976598,199.399214 40.3362277,198.951766" id="Fill-194" fill="#1A2E35"></path>
                    <path d="M15.2906772,197.438135 C15.2906772,197.438135 12.9617683,191.109547 12.4525377,188.429056 C12.435773,188.339566 12.4378686,188.238192 12.4532363,188.129126 L12.4525377,188.127029 L6.80978839,185.003984 C4.57867408,187.014702 3.31363086,188.28014 3.31363086,188.28014 C3.31363086,188.28014 6.95857591,193.715231 15.2906772,197.438135" id="Fill-196" fill="#1A2E35"></path>
                    <path d="M25.3136474,190.867995 L32.9067008,190.50794" id="Stroke-198" stroke="#C24C00"></path>
                    <path d="M7.67841414,184.013866 L12.9153158,187.014562" id="Stroke-200" stroke="#C24C00"></path>
                    <path d="M32.0977298,86.6727479 L20.4832221,87.9081229 C20.4832221,87.9081229 20.6236272,88.5841883 20.5803181,89.56298 L33.308986,88.7219183 L32.0977298,86.6727479 Z" id="Fill-202" fill="#000000"></path>
                    <path d="M20.57466,88.9148801 L37.6761443,86.535717 L32.09766,85.4366737 L29.1254022,79.5786051 C29.1254022,79.5786051 22.4956257,80.5853624 20.57466,82.6911629 C18.6543929,84.7955651 20.57466,88.9148801 20.57466,88.9148801" id="Fill-204" fill="#FFFFFF"></path>
                    <path d="M32.728086,92.5887749 L30.5570455,92.7698514 C29.911601,92.8236849 29.4009734,93.339648 29.3548702,93.9863497 L29.0873321,97.7029617 L33.4203321,97.3051528 L32.728086,92.5887749 Z" id="Fill-206" fill="#081216"></path>
                    <polygon id="Fill-208" fill="#757575" points="14.5790817 145.5721 106.250358 145.5721 106.250358 113.90609 14.5790817 113.90609"></polygon>
                </g>
                <path d="M220.40245,45.172883 C220.40245,45.172883 222.032116,42.2775184 224.478072,43.0797965 C226.922571,43.8813584 225.926421,48.2466113 224.25088,50.8296604 C222.575338,53.4127096 219.361153,57.4663634 213.837182,57.2435879 C213.837182,57.2435879 211.030049,54.7493624 211.120343,51.8991259 C211.210638,49.0481731 217.414,44.1485457 217.414,44.1485457 L220.40245,45.172883 Z" id="Fill-130" fill="#FFFFFF"></path>
                <path d="M221.31497,43.9616613 C220.6822,44.5856571 220.319489,45.2613404 220.319489,45.2613404 C220.319489,45.2613404 223.493394,45.853125 223.897764,49.0734824 C223.897764,49.0734824 223.458919,45.1444816 221.31497,43.9616613" id="Fill-132" fill="#000000" opacity="0.1"></path>
                <text id="&lt;code/:&gt;" font-family="LucidaGrande, Lucida Grande" font-size="14" font-weight="normal" letter-spacing="0.075863078" fill="#FFFFFF">
                    <tspan x="28.115016" y="161.77721">&lt;</tspan>
                    <tspan x="39.3197853" y="161.77721" letter-spacing="-0.00813692202">c</tspan>
                    <tspan x="46.4825468" y="161.77721">ode/:&gt;</tspan>
                </text>
                <g id="Group-225" transform="translate(14.313099, 132.907348)">
                    <polygon id="Fill-211" fill="#C24C00" points="0.147792585 12.8688161 92.0691768 12.8688161 92.0691768 6.86881611 0.147792585 6.86881611"></polygon>
                    <path d="M6.06124707,10.3866739 C6.06124707,11.0707758 5.50369779,11.6258677 4.81656734,11.6258677 C4.12873645,11.6258677 3.57188761,11.0707758 3.57188761,10.3866739 C3.57188761,9.70326929 4.12873645,9.1481774 4.81656734,9.1481774 C5.50369779,9.1481774 6.06124707,9.70326929 6.06124707,10.3866739" id="Fill-213" fill="#FFFFFF"></path>
                    <path d="M10.9636182,10.3866739 C10.9636182,11.0707758 10.4067693,11.6258677 9.71963887,11.6258677 C9.03180798,11.6258677 8.4742587,11.0707758 8.4742587,10.3866739 C8.4742587,9.70326929 9.03180798,9.1481774 9.71963887,9.1481774 C10.4067693,9.1481774 10.9636182,9.70326929 10.9636182,10.3866739" id="Fill-214" fill="#FFFFFF"></path>
                    <path d="M15.686901,10.0923703 C15.686901,10.6445797 15.238955,11.0926518 14.6874637,11.0926518 C14.1348469,11.0926518 13.686901,10.6445797 13.686901,10.0923703 C13.686901,9.54072381 14.1348469,9.09265176 14.6874637,9.09265176 C15.238955,9.09265176 15.686901,9.54072381 15.686901,10.0923703" id="Fill-215" fill="#FFFFFF"></path>
                    <g id="Group-218" transform="translate(0.686901, 7.092652)" fill="#000000" opacity="0.2">
                        <path d="M73.1219973,0.198157445 C71.8570048,4.33833404 70.4631316,10.6849312 71.935454,14.5238519 C74.0241625,19.9708654 83.1242632,28.2386663 83.1242632,28.2386663 C82.5302911,30.6961334 82.7754447,31.6452289 82.8195723,31.7833046 L88.5414568,31.7833046 C88.516241,30.8948786 88.3733515,29.3376924 87.6497982,27.248427 C86.6551752,24.376733 79.1520748,12.2463015 79.1520748,12.2463015 C79.1520748,12.2463015 80.9739161,3.82578059 81.8585703,0.198157445 L73.1219973,0.198157445 Z" id="Fill-216"></path>
                        <path d="M16.5027281,27.248427 C15.5081051,24.376733 8.0043043,12.2463015 8.0043043,12.2463015 C8.0043043,12.2463015 9.82684603,3.82578059 10.7107998,0.198157445 L1.97422675,0.198157445 C0.709934739,4.33833404 -0.684638892,10.6849312 0.787683445,14.5238519 C2.87639192,19.970168 11.9771931,28.2386663 11.9771931,28.2386663 C11.3825206,30.6961334 11.6283746,31.6452289 11.6725022,31.7833046 L17.3936863,31.7833046 C17.3684705,30.8948786 17.2262814,29.3376924 16.5027281,27.248427" id="Fill-217"></path>
                    </g>
                    <path d="M80.8665689,0.113708163 C84.4899387,0.191811545 84.5403703,4.22320129 83.8448346,6.79712613 C83.1485985,9.37174833 80.8665689,19.9170996 80.8665689,19.9170996 C80.8665689,19.9170996 88.3696692,32.0475311 89.3642923,34.9192251 C90.3589154,37.7909191 90.2594531,39.6723738 90.2594531,40.1674934 C90.2594531,40.1674934 86.2809607,43.0886994 82.8502115,39.4736285 L84.5403703,39.4736285 C84.5403703,39.4736285 84.1929527,38.5831105 84.8387573,35.9094644 C84.8387573,35.9094644 75.7386565,27.6416635 73.649948,22.1953473 C71.5612396,16.7483338 75.241345,6.25319186 76.1365057,4.17299197 C77.0309661,2.09418678 78.5852397,0.0641961981 80.8665689,0.113708163" id="Fill-219" fill="#FAFAFA"></path>
                    <path d="M90.2595931,40.1671447 C90.2595931,39.6720251 90.3590555,37.7912677 89.3644324,34.9195738 C89.3041946,34.7452359 89.2187411,34.535333 89.1136753,34.2975361 L84.8388974,35.9098131 C84.1930928,38.5834592 84.5405104,39.4739772 84.5405104,39.4739772 L82.8503516,39.4739772 C86.2811008,43.0883507 90.2595931,40.1671447 90.2595931,40.1671447" id="Fill-220" fill="#6F452A"></path>
                    <path d="M88.2485633,32.5405587 L83.1437654,34.2978848" id="Stroke-221" stroke="#C24C00"></path>
                    <path d="M9.71935869,0.113708163 C13.3427286,0.191811545 13.3931601,4.22320129 12.696924,6.79712613 C12.0006878,9.37174833 9.71935869,19.9170996 9.71935869,19.9170996 C9.71935869,19.9170996 17.222459,32.0475311 18.2170821,34.9192251 C19.2117052,37.7909191 19.1122429,39.6723738 19.1122429,40.1674934 C19.1122429,40.1674934 15.1337505,43.0886994 11.7023009,39.4736285 L13.3931601,39.4736285 C13.3931601,39.4736285 13.0450421,38.5831105 13.6915471,35.9094644 C13.6915471,35.9094644 4.59144631,27.6416635 2.5020374,22.1953473 C0.414029369,16.7483338 4.09413477,6.25319186 4.98929555,4.17299197 C5.88375588,2.09418678 7.43732912,0.0641961981 9.71935869,0.113708163" id="Fill-222" fill="#FAFAFA"></path>
                    <path d="M19.112383,40.1671447 C19.112383,39.6720251 19.2118453,37.7912677 18.2172222,34.9195738 C18.1569844,34.7452359 18.0715309,34.535333 17.9664651,34.2975361 L13.6916872,35.9098131 C13.0451822,38.5834592 13.3933002,39.4739772 13.3933002,39.4739772 L11.702441,39.4739772 C15.1338906,43.0883507 19.112383,40.1671447 19.112383,40.1671447" id="Fill-223" fill="#FFCAA8"></path>
                    <path d="M17.1013531,32.5405587 L11.9965552,34.2978848" id="Stroke-224" stroke="#C24C00"></path>
                </g>
            </g>
        </g>
    </g>
</svg>