<?xml version="1.0" encoding="UTF-8"?>
<svg width="521px" height="528px" viewBox="0 0 521 528" version="1.1" xmlns="http://www.w3.org/2000/svg" xmlns:xlink="http://www.w3.org/1999/xlink">
    <!-- Generator: Sketch 57.1 (83088) - https://sketch.com -->
    <title>Group 292</title>
    <desc>Created with Sketch.</desc>
    <defs>
        <polygon id="path-1" points="0.255296666 0 598.925979 0 598.925979 286.412646 0.255296666 286.412646"></polygon>
        <polygon id="path-3" points="-5.68434189e-14 0.255725577 342.895335 0.255725577 342.895335 484.695865 -5.68434189e-14 484.695865"></polygon>
        <polygon id="path-5" points="-5.68434189e-14 0.255725577 342.895335 0.255725577 342.895335 219.540408 -5.68434189e-14 219.540408"></polygon>
    </defs>
    <g id="Page-1" stroke="none" stroke-width="1" fill="none" fill-rule="evenodd">
        <g id="Home" transform="translate(-882.000000, 0.000000)">
            <g id="Group-292" transform="translate(195.000000, 0.000000)">
                <g transform="translate(906.000000, 282.000000) scale(-1, 1) translate(-906.000000, -282.000000) translate(604.000000, -11.000000)">
                    <g id="Group-3" transform="translate(4.212395, 298.975165)">
                        <mask id="mask-2" fill="white">
                            <use xlink:href="#path-1"></use>
                        </mask>
                        <g id="Clip-2"></g>
                    </g>
                    <path d="M313.328752,532.99067 C340.922016,540.200759 385.655049,540.200759 413.24556,532.99067 C440.838824,525.7836 440.838824,514.09287 413.24556,506.884291 C385.655049,499.675712 340.922016,499.675712 313.328752,506.884291 C285.735487,514.09287 285.735487,525.7836 313.328752,532.99067" id="Fill-4" fill="#F06000" opacity="0.1"></path>
                    <polygon id="Fill-6" fill="#F0F0F0" points="146.316902 353.796336 74.8330636 312.400758 3.35076874 353.796336 74.8330636 395.191913"></polygon>
                    <polygon id="Fill-7" fill="#ECECEC" points="74.8338353 450.013084 146.316902 408.777335 146.316902 353.796336 74.8338353 395.032085"></polygon>
                    <polygon id="Fill-8" fill="#E1E1E1" points="74.8338353 450.013084 3.35076874 408.777335 3.35076874 353.796336 74.8338353 395.032085"></polygon>
                    <polygon id="Fill-9" fill="#ECECEC" points="35.7415333 430.057875 40.2092249 433.231093 40.2092249 377.106369 35.7415333 373.934725"></polygon>
                    <g id="Group-56" transform="translate(0.000000, 196.045620)">
                        <path d="M115.700482,185.266683 L105.450255,191.378427 C103.346813,192.63265 101.639985,195.239902 101.639985,197.201716 C101.639985,199.16353 103.346813,199.73566 105.450255,198.481438 L115.700482,192.369693 C117.803924,191.115471 119.510752,188.508218 119.510752,186.547998 C119.510752,184.58459 117.805467,184.01246 115.700482,185.266683" id="Fill-10" fill="#E1E1E1"></path>
                        <polygon id="Fill-12" fill="#FAFAFA" points="41.142924 180.126703 112.809214 138.513388 107.407824 135.374727 35.7415333 176.988043"></polygon>
                        <polygon id="Fill-14" fill="#FAFAFA" points="107.407715 180.126703 35.7415333 138.513388 41.1414852 135.374727 112.809214 176.988043"></polygon>
                        <polygon id="Fill-16" fill="#E1E1E1" points="6.70153749 155.483279 74.9398766 194.671095 142.966133 155.568966 74.7692884 116.355137"></polygon>
                        <polygon id="Fill-18" fill="#F0F0F0" points="107.2246 185.7207 107.2246 179.996927 112.809214 176.770305 112.809214 182.495678"></polygon>
                        <polygon id="Fill-20" fill="#F0F0F0" points="142.966133 96.2175223 71.4822949 54.8211705 5.12943637e-14 96.2175223 71.4822949 137.612326"></polygon>
                        <polygon id="Fill-22" fill="#E1E1E1" points="5.58461457 96.5317738 73.1700228 135.374727 141.84921 95.903252 74.2638019 57.0587693"></polygon>
                        <polygon id="Fill-24" fill="#ECECEC" points="71.4830665 192.433497 142.966133 151.198628 142.966133 96.2167483 71.4830665 137.451616"></polygon>
                        <polygon id="Fill-26" fill="#E1E1E1" points="71.4830665 192.433497 4.05880841e-14 151.197747 4.05880841e-14 96.2167483 71.4830665 137.452498"></polygon>
                        <polygon id="Fill-28" fill="#ECECEC" points="32.3907645 170.300561 37.9753791 173.413907 37.9753791 118.349684 32.3907645 115.236338"></polygon>
                        <path d="M112.349713,123.732395 L102.099486,129.844144 C99.9945012,131.099961 98.2892165,133.705622 98.2892165,135.667437 C98.2892165,137.627659 99.9945012,138.202976 102.099486,136.947159 L112.349713,130.837004 C114.453155,129.581187 116.159983,126.973933 116.159983,125.012117 C116.159983,123.051896 114.453155,122.478172 112.349713,123.732395" id="Fill-30" fill="#E1E1E1"></path>
                        <polygon id="Fill-32" fill="#FAFAFA" points="37.7922637 118.592736 109.458446 76.9779738 104.058494 73.8407603 32.3907645 115.455523"></polygon>
                        <polygon id="Fill-34" fill="#FAFAFA" points="104.057055 118.592736 32.3907645 76.9779738 37.7921553 73.8407603 109.458446 115.455523"></polygon>
                        <polygon id="Fill-36" fill="#F0F0F0" points="103.873831 124.186733 103.873831 118.461936 109.458446 115.236338 109.458446 120.962735"></polygon>
                        <polygon id="Fill-38" fill="#E1E1E1" points="73.7169123 136.119655 80.1635272 139.849925 142.966133 103.661828 142.966133 96.2167483"></polygon>
                        <polygon id="Fill-40" fill="#F0F0F0" points="149.667671 41.3955778 78.1838324 -4.05542028e-14 6.70153749 41.3955778 78.1838324 82.7911555"></polygon>
                        <polygon id="Fill-42" fill="#ECECEC" points="78.184604 137.612326 149.667671 96.3774579 149.667671 41.3955778 78.184604 82.6304459"></polygon>
                        <polygon id="Fill-44" fill="#E1E1E1" points="78.184604 137.612326 6.70153749 96.3759159 6.70153749 41.3955778 78.184604 82.6304459"></polygon>
                        <polygon id="Fill-46" fill="#ECECEC" points="40.2092249 115.47939 45.7938395 118.592736 45.7938395 63.5269694 40.2092249 60.4151675"></polygon>
                        <path d="M119.051251,68.9123065 L108.801024,75.0238894 C106.697582,76.2780786 104.990754,78.8852624 104.990754,80.8470247 C104.990754,82.8071934 106.696039,83.3809013 108.801024,82.126712 L119.051251,76.0151292 C121.154693,74.7593463 122.861521,72.1537562 122.861521,70.1919939 C122.861521,68.2302316 121.154693,67.6565237 119.051251,68.9123065" id="Fill-48" fill="#E1E1E1"></path>
                        <polygon id="Fill-50" fill="#FAFAFA" points="45.6107241 63.7715657 117.276906 22.1568032 111.876954 19.0195898 40.2092249 60.6327962"></polygon>
                        <polygon id="Fill-52" fill="#FAFAFA" points="111.875515 63.7715657 40.2092249 22.1568032 45.6106157 19.0195898 117.276906 60.6327962"></polygon>
                        <polygon id="Fill-54" fill="#F0F0F0" points="111.692291 69.3655627 111.692291 63.641789 117.276906 60.4151675 117.276906 66.140541"></polygon>
                    </g>
                    <g id="Group-222" transform="translate(122.861521, 0.000000)">
                        <path d="M55.8461457,439.759017 L55.8461457,415.681247 C55.8461457,415.681247 54.6089055,402.0939 45.0512251,391.791356 C35.4919981,381.485732 26.9287494,384.992293 24.1418659,389.880226 C21.3534358,394.77124 27.6973849,404.05431 31.7462534,409.277962 C36.6225263,415.565748 55.8461457,444.76861 55.8461457,457.84468 L55.8461457,439.759017 Z" id="Fill-57" fill="#081216"></path>
                        <path d="M55.259094,436.587491 C54.9780196,436.587491 54.7290243,436.383165 54.6816694,436.09588 C50.3754262,409.900697 30.5535704,391.924634 30.3534576,391.747962 C30.1121002,391.529809 30.0891866,391.158028 30.3061027,390.915296 C30.5199637,390.66949 30.8911652,390.651055 31.1325225,390.864598 C31.3341629,391.04588 51.4615344,409.286183 55.8380462,435.902308 C55.8915114,436.223392 55.6745953,436.52604 55.3553314,436.57981 C55.3232523,436.585955 55.2911731,436.587491 55.259094,436.587491" id="Fill-59" fill="#FAFAFA"></path>
                        <path d="M54.6383528,440.275524 C54.6383528,440.275524 55.5867694,437.373181 51.3556074,436.639504 C47.125975,435.904285 45.4998993,432.356121 45.1037059,426.409633 C44.7059828,420.463145 42.925407,416.192093 37.6188628,415.31507 C32.3107889,414.436507 28.0398546,417.127686 24.5903714,414.45192 C21.1424179,411.776155 12.2318904,405.305611 4.8097652,408.251111 C-2.61388973,411.196611 -0.178600496,417.58084 3.67931373,421.72396 C7.54028736,425.867081 8.6600309,427.261994 5.70617191,433.996106 C2.75078322,440.730219 4.90307716,447.021967 11.7316771,448.595675 C18.5602771,450.170924 22.3768893,449.363262 22.4839686,456.915826 C22.5895182,464.466849 23.625128,467.826969 27.3637253,470.783259 C31.105382,473.739548 42.8795159,472.409372 47.7715102,473.55767 C52.6650342,474.704426 54.6383528,479.101868 54.6383528,479.101868 L54.6383528,440.275524 Z" id="Fill-61" fill="#1A2E35"></path>
                        <path d="M55.2564439,471.270273 C55.0108946,471.270273 54.7822268,471.113568 54.699354,470.867758 C42.2285198,433.799535 14.0041644,418.82814 13.7217827,418.68219 C13.4332623,418.533167 13.3196958,418.175205 13.46856,417.887914 C13.6158896,417.597551 13.971936,417.483863 14.2619911,417.634422 C14.5505115,417.783445 43.1846273,432.953025 55.8150685,470.492897 C55.9194269,470.80016 55.7521465,471.135077 55.4452099,471.23801 C55.3822879,471.259518 55.3193659,471.270273 55.2564439,471.270273" id="Fill-63" fill="#FAFAFA"></path>
                        <path d="M37.394923,438.82509 C37.3525606,438.82509 37.3086853,438.819192 37.26481,438.80887 C29.2386564,437.021755 16.3907588,437.989038 16.2621588,437.996411 C15.9399023,438.021478 15.663034,437.789978 15.638827,437.478855 C15.613107,437.167732 15.8506388,436.893472 16.1713823,436.869879 C16.7039377,436.827118 29.324894,435.881952 37.523523,437.707405 C37.8367018,437.776708 38.0318712,438.078984 37.960763,438.384209 C37.8987324,438.646673 37.6596877,438.82509 37.394923,438.82509" id="Fill-65" fill="#FAFAFA"></path>
                        <path d="M44.5000141,456.690682 C40.6521272,456.690682 36.5694002,456.513912 36.3123455,456.501605 C35.9775397,456.48706 35.7220718,456.283439 35.7426996,456.047372 C35.7649142,455.810187 36.0505305,455.618872 36.3885099,455.644604 C36.4821286,455.647961 45.8884269,456.057441 49.5585969,455.64908 C49.891816,455.615516 50.2012337,455.773266 50.2535967,456.007095 C50.3075465,456.240925 50.0806401,456.461328 49.7474211,456.498248 C48.4446932,456.642574 46.5040888,456.690682 44.5000141,456.690682" id="Fill-67" fill="#FAFAFA"></path>
                        <path d="M34.0327102,434.349892 C34.0231327,434.349892 34.0121869,434.349892 34.0026093,434.348354 C33.7139148,434.331436 33.4908949,434.053058 33.5086818,433.728539 C33.8302136,427.182793 35.7621408,421.538318 35.844234,421.301465 C35.949587,420.99694 36.2547001,420.844678 36.5228713,420.96618 C36.7937789,421.083069 36.9278645,421.426043 36.8225116,421.72903 C36.8033565,421.785936 34.8700611,427.441178 34.5553704,433.793135 C34.54032,434.106888 34.3090907,434.349892 34.0327102,434.349892" id="Fill-69" fill="#FAFAFA"></path>
                        <g id="Group-73" transform="translate(54.729223, 0.000000)">
                            <mask id="mask-4" fill="white">
                                <use xlink:href="#path-3"></use>
                            </mask>
                            <g id="Clip-72"></g>
                            <path d="M-5.68434189e-14,201.916883 L-5.68434189e-14,481.837603 C-5.68434189e-14,484.389932 1.78497793,485.425659 3.98742275,484.149495 L338.906377,289.970659 C341.110357,288.694495 342.895335,285.588854 342.895335,283.034985 L342.895335,3.1142644 C342.895335,0.560395105 341.110357,-0.473790953 338.906377,0.802373064 L3.98742275,194.981209 C1.78497793,196.258914 -5.68434189e-14,199.363014 -5.68434189e-14,201.916883" id="Fill-71" fill="#F06000" mask="url(#mask-4)"></path>
                        </g>
                        <g id="Group-76" transform="translate(54.729223, 0.000000)">
                            <mask id="mask-6" fill="white">
                                <use xlink:href="#path-5"></use>
                            </mask>
                            <g id="Clip-75"></g>
                            <path d="M338.906377,0.803357393 L3.98742275,195.091502 C1.78497793,196.368385 -5.68434189e-14,199.475774 -5.68434189e-14,202.031081 L-5.68434189e-14,219.540408 L342.895335,20.1971656 L342.895335,3.11655016 C342.895335,0.561243216 341.110357,-0.475067144 338.906377,0.803357393" id="Fill-74" fill="#1A2E35" mask="url(#mask-6)"></path>
                        </g>
                        <path d="M68.6915229,196.578241 C66.5318622,197.821459 64.7830564,200.844185 64.781529,203.332145 C64.781529,205.817058 66.5318622,206.825649 68.6915229,205.582431 C70.8496562,204.339213 72.5999894,201.314963 72.5999894,198.83005 C72.5999894,196.34209 70.8496562,195.335022 68.6915229,196.578241" id="Fill-77" fill="#FFFFFF"></path>
                        <path d="M84.32768,187.627883 C82.1675974,188.871101 80.4184498,191.893828 80.4184498,194.380264 C80.4184498,196.8667 82.1675974,197.875292 84.32768,196.632073 C86.486235,195.388855 88.2369102,192.364605 88.2369102,189.878169 C88.2369102,187.391732 86.486235,186.384665 84.32768,187.627883" id="Fill-79" fill="#FFFFFF"></path>
                        <path d="M99.9646008,178.677191 C97.8060458,179.920443 96.0553706,182.944775 96.0553706,185.431279 C96.0553706,187.91626 97.8045182,188.924878 99.9646008,187.681626 C102.123156,186.438374 103.873831,183.415566 103.873831,180.929062 C103.873831,178.442558 102.123156,177.433939 99.9646008,178.677191" id="Fill-81" fill="#FFFFFF"></path>
                        <path d="M164.187668,191.570423 L89.3538331,234.831179 L89.3538331,321.351153 L164.187668,278.090397 L164.187668,191.570423 Z M161.953823,193.808022 L161.953823,276.599177 L90.4707561,317.994755 L90.4707561,235.203599 L161.953823,193.808022 Z" id="Fill-83" fill="#C05513"></path>
                        <path d="M189.876895,177.025517 L189.876895,262.054785 L262.476885,219.540922 L262.476885,134.511653 L189.876895,177.025517 Z M188.759973,265.411183 L188.759973,176.653097 L264.710731,132.274055 L264.710731,221.03214 L188.759973,265.411183 Z" id="Fill-85" fill="#C05513"></path>
                        <path d="M235.174637,176.292673 L239.021504,167.22702 C235.352569,166.428897 231.077782,167.417354 226.735352,169.949275 L226.735352,178.14483 C229.716085,176.457416 232.633587,175.803243 235.174637,176.292673" id="Fill-87" fill="#FF6613"></path>
                        <path d="M226.735352,219.239119 L226.735352,227.372004 C231.27352,224.357009 235.489529,219.939029 239.021504,214.773634 L235.18061,210.590013 C232.731323,214.111729 229.840724,217.123556 226.735352,219.239119" id="Fill-95" fill="#FF6613"></path>
                        <g id="Group-111" transform="translate(212.215354, 166.956836)" fill="#C05513">
                            <path d="M22.9592829,9.33583687 L26.8061499,0.270183554 C23.1372152,-0.527939418 18.8624284,0.460517489 14.5199979,2.99243866 L14.5199979,11.187994 C17.5007316,9.50057969 20.4182332,8.84640675 22.9592829,9.33583687" id="Fill-99"></path>
                            <path d="M30.1735763,15.6631916 L36.8584562,9.31860765 C35.2298855,5.12192974 32.3692245,2.31470312 28.6934883,1.1187994 L24.5723041,10.010973 C27.0696564,10.8858709 29.0141477,12.8260674 30.1735763,15.6631916" id="Fill-101"></path>
                            <path d="M3.84089356,55.5673964 L-4.31876757e-14,64.6080543 C3.53050346,65.3911411 7.74651302,64.5617083 12.2861521,61.9119981 L12.2861521,53.7023712 C9.17930901,55.4651157 6.2887093,56.0516317 3.84089356,55.5673964" id="Fill-103"></path>
                            <path d="M24.5723041,41.9097992 L28.6919087,45.8707754 C32.3692245,40.6970411 35.2298855,34.8794043 36.8584562,29.0887844 L30.1735763,30.3735875 C29.0141477,34.351074 27.0696564,38.3345642 24.5723041,41.9097992" id="Fill-105"></path>
                            <path d="M14.5199979,52.2822834 L14.5199979,60.4151675 C19.0581659,57.4001731 23.2741754,52.9821929 26.8061499,47.816798 L22.9652564,43.6331766 C20.5159696,47.1548927 17.6253699,50.1667201 14.5199979,52.2822834" id="Fill-107"></path>
                            <path d="M36.9756997,11.187994 L30.1569187,17.3354894 C30.5809762,18.8021585 30.8276713,20.4443395 30.8276713,22.2864515 C30.8276713,24.1285634 30.5809762,26.0408802 30.1569187,27.969985 L36.9756997,26.6650921 C37.6206541,23.8523229 37.9753791,21.0639729 37.9753791,18.3794037 C37.9753791,15.6948346 37.6206541,13.2941369 36.9756997,11.187994" id="Fill-109"></path>
                        </g>
                        <path d="M224.501506,179.564918 L224.501506,171.432034 C219.96241,174.447028 215.746905,178.865008 212.215354,184.030403 L216.057258,188.214025 C218.504781,184.692308 221.395035,181.680481 224.501506,179.564918" id="Fill-112" fill="#FFC29C"></path>
                        <path d="M215.566122,188.818603 L211.447047,184.857626 C207.770204,190.031361 204.908332,195.848997 203.27997,201.639617 L209.96557,200.354814 C211.12327,196.377328 213.069091,192.393838 215.566122,188.818603" id="Fill-114" fill="#FFC29C"></path>
                        <path d="M209.312368,208.44195 C209.312368,206.599838 209.55745,204.689048 209.981508,202.758417 L203.164339,204.06331 C202.51616,206.877605 202.163047,209.664429 202.163047,212.348998 C202.163047,215.033567 202.51616,217.434265 203.164339,219.540408 L209.981508,213.394439 C209.55745,211.927769 209.312368,210.285588 209.312368,208.44195" id="Fill-116" fill="#FFC29C"></path>
                        <path d="M209.96557,215.06521 L203.27997,221.409794 C204.908332,225.606472 207.770204,228.413699 211.445468,229.609602 L215.566122,220.717429 C213.069091,219.842531 211.12327,217.902334 209.96557,215.06521" id="Fill-118" fill="#FFC29C"></path>
                        <path d="M212.215354,207.906427 C212.215354,198.512157 218.716526,187.090337 226.735352,182.393976 C234.754177,177.697616 241.25535,181.50489 241.25535,190.89761 C241.25535,200.290331 234.754177,211.713701 226.735352,216.410061 C218.716526,221.106421 212.215354,217.299148 212.215354,207.906427" id="Fill-120" fill="#FF6613"></path>
                        <path d="M212.215354,207.906427 C212.215354,198.512157 218.716526,187.090337 226.735352,182.393976 C234.754177,177.697616 241.25535,181.50489 241.25535,190.89761 C241.25535,200.290331 234.754177,211.713701 226.735352,216.410061 C218.716526,221.106421 212.215354,217.299148 212.215354,207.906427" id="Fill-122" fill="#C05513"></path>
                        <path d="M230.125923,200.71621 C230.161303,201.124981 230.251718,201.401737 230.403065,201.544886 C230.550481,201.688036 230.817796,201.668949 231.203043,201.487626 C231.588291,201.307894 231.855605,201.077265 232.003021,200.795738 C232.152403,200.51262 232.244784,200.151566 232.280164,199.709393 C232.333234,199.144749 232.333234,198.603962 232.280164,198.088624 C232.244784,197.678263 232.152403,197.403098 232.003021,197.259949 C231.855605,197.116799 231.588291,197.134295 231.203043,197.314027 C230.817796,197.49535 230.550481,197.72757 230.403065,198.009097 C230.251718,198.292215 230.161303,198.653269 230.125923,199.093851 C230.072853,199.660086 230.072853,200.200873 230.125923,200.71621 L230.125923,200.71621 Z M234.52183,195.964627 C234.564473,196.599737 234.564473,197.225248 234.52183,197.842761 C234.493402,198.353088 234.412856,198.857017 234.280191,199.354546 C234.145947,199.852076 233.942212,200.343206 233.667407,200.823138 C233.394181,201.30627 233.051464,201.755806 232.643994,202.174947 C232.234945,202.595687 231.757984,202.965235 231.208374,203.286789 C230.658763,203.608343 230.180223,203.797117 229.772753,203.854709 C229.365283,203.9123 229.027304,203.859508 228.760395,203.694731 C228.490328,203.529955 228.286593,203.27879 228.146032,202.941238 C228.00705,202.603686 227.923345,202.197343 227.893337,201.719011 C227.864909,201.407055 227.852275,201.104698 227.852275,200.818339 C227.852275,200.53038 227.864909,200.205626 227.893337,199.840877 C227.923345,199.33055 228.00705,198.826621 228.146032,198.324292 C228.286593,197.821964 228.490328,197.330833 228.760395,196.854101 C229.027304,196.375768 229.365283,195.929432 229.772753,195.508691 C230.180223,195.089551 230.658763,194.718403 231.208374,194.398449 C231.757984,194.076894 232.234945,193.888121 232.643994,193.830529 C233.051464,193.772937 233.389443,193.82573 233.657931,193.990507 C233.92484,194.153683 234.128575,194.404848 234.269136,194.7424 C234.409697,195.081552 234.493402,195.487894 234.52183,195.964627 L234.52183,195.964627 Z M221.189082,197.358854 C221.224478,197.767697 221.314933,198.044502 221.466346,198.187677 C221.613827,198.332443 221.88126,198.311762 222.268643,198.131998 C222.652094,197.952234 222.919526,197.721563 223.068973,197.439986 C223.218421,197.156818 223.310842,196.794109 223.346238,196.351857 C223.397365,195.787112 223.397365,195.24782 223.346238,194.7308 C223.310842,194.321956 223.218421,194.046742 223.068973,193.903568 C222.919526,193.760393 222.652094,193.777892 222.268643,193.957656 C221.88126,194.13742 221.613827,194.369681 221.466346,194.652849 C221.314933,194.934426 221.224478,195.295545 221.189082,195.737796 C221.137955,196.304132 221.137955,196.843424 221.189082,197.358854 L221.189082,197.358854 Z M229.593061,187.893001 C229.683527,187.697389 229.775429,187.532104 229.870203,187.397147 C229.966413,187.259156 230.105702,187.13633 230.283762,187.027151 L231.857584,186.068802 C231.998309,185.982368 232.110315,185.95659 232.195037,185.991466 C232.276887,186.027859 232.319966,186.114293 232.319966,186.255316 C232.319966,186.285643 232.312786,186.328102 232.299863,186.384208 C232.286939,186.437281 232.266835,186.496419 232.242424,186.560107 L222.759284,207.555845 C222.668818,207.749941 222.576915,207.915226 222.480706,208.0517 C222.385932,208.188174 222.248079,208.311 222.068582,208.420179 L220.493324,209.380045 C220.354035,209.466478 220.240594,209.490741 220.158743,209.455864 C220.075457,209.420987 220.033814,209.333037 220.033814,209.193531 C220.033814,209.161687 220.040994,209.117712 220.052482,209.064639 C220.065405,209.010049 220.085509,208.950911 220.111356,208.888739 L229.593061,187.893001 Z M225.586455,193.728849 C225.629087,194.363832 225.629087,194.987619 225.586455,195.605008 C225.558033,196.115233 225.477506,196.619061 225.343293,197.118091 C225.21066,197.613921 225.005394,198.104953 224.730654,198.586389 C224.457492,199.067824 224.116435,199.51887 223.709061,199.937927 C223.298529,200.358583 222.820102,200.728057 222.273778,201.049547 C221.724297,201.371037 221.24587,201.559773 220.838496,201.617353 C220.429543,201.674933 220.091644,201.620552 219.823219,201.457408 C219.556373,201.291065 219.352687,201.03995 219.212158,200.704065 C219.07163,200.366581 218.986366,199.95872 218.957944,199.480483 C218.931102,199.170189 218.916891,198.867893 218.916891,198.579991 C218.916891,198.292089 218.931102,197.9674 218.957944,197.605924 C218.986366,197.095698 219.07163,196.588671 219.212158,196.086443 C219.352687,195.584215 219.556373,195.094782 219.823219,194.618145 C220.091644,194.139908 220.429543,193.692061 220.838496,193.271405 C221.24587,192.852348 221.724297,192.482874 222.273778,192.161384 C222.820102,191.841494 223.298529,191.651159 223.709061,191.591979 C224.116435,191.535998 224.454334,191.58878 224.72118,191.753524 C224.988025,191.918267 225.191712,192.169382 225.332241,192.506866 C225.472769,192.844351 225.558033,193.252212 225.586455,193.728849 L225.586455,193.728849 Z" id="Fill-124" fill="#FFC29C"></path>
                        <path d="M289.283035,118.847948 L289.283035,203.877216 L361.883024,161.363353 L361.883024,76.3340847 L289.283035,118.847948 Z M288.166112,207.233614 L288.166112,118.475529 L364.11687,74.0964859 L364.11687,162.854572 L288.166112,207.233614 Z" id="Fill-126" fill="#C05513"></path>
                        <path d="M325.024568,121.386582 L325.024568,113.254465 C320.486943,116.269175 316.271439,120.686738 312.738416,125.851646 L316.580321,130.036456 C319.029314,126.513489 321.918097,123.501945 325.024568,121.386582" id="Fill-128" fill="#FFC29C"></path>
                        <path d="M314.972262,131.76098 L310.853187,127.798857 C307.176344,132.973629 304.314471,138.790746 302.68611,144.580848 L309.37171,143.29616 C310.52941,139.319029 312.475231,135.335895 314.972262,131.76098" id="Fill-130" fill="#FFC29C"></path>
                        <path d="M342.911992,124.442459 L349.596872,118.097875 C347.968302,113.901197 345.10764,111.09397 341.431904,109.898067 L337.31072,118.79024 C339.808072,119.666712 341.752564,121.605335 342.911992,124.442459" id="Fill-134" fill="#FF6613"></path>
                        <path d="M349.714116,119.967261 L342.895335,126.114757 C343.319392,127.581426 343.566087,129.223607 343.566087,131.065719 C343.566087,132.907831 343.319392,134.820147 342.895335,136.749252 L349.714116,135.445886 C350.360683,132.63159 350.713795,129.84324 350.713795,127.158671 C350.713795,124.475628 350.360683,122.073404 349.714116,119.967261" id="Fill-138" fill="#FF6613"></path>
                        <path d="M337.31072,150.68792 L341.430325,154.650043 C345.10764,149.47527 347.968302,143.658154 349.596872,137.868052 L342.911992,139.15274 C341.752564,143.129871 339.808072,147.113005 337.31072,150.68792" id="Fill-140" fill="#FF6613"></path>
                        <path d="M308.718507,151.382664 C308.718507,149.54072 308.96359,147.630103 309.387647,145.699647 L302.570479,147.004422 C301.922299,149.818461 301.569187,152.605032 301.569187,155.289357 C301.569187,157.973682 301.922299,160.374161 302.570479,162.481638 L309.387647,156.334702 C308.96359,154.868166 308.718507,153.226135 308.718507,151.382664" id="Fill-142" fill="#FF6613"></path>
                        <path d="M309.37171,158.006441 L302.68611,164.351025 C304.314471,168.547703 307.176344,171.354929 310.851607,172.550833 L314.972262,163.657086 C312.475231,162.782188 310.52941,160.843565 309.37171,158.006441" id="Fill-144" fill="#FF6613"></path>
                        <g id="Group-164" transform="translate(301.569187, 109.642341)" fill="#C05513">
                            <path d="M34.8957198,9.59153086 L39.092302,0.525722898 C35.0898278,-0.272413688 30.426424,0.717659552 25.689227,3.24802444 L25.689227,11.4437196 C28.9409365,9.75787596 32.1236655,9.10209239 34.8957198,9.59153086" id="Fill-148"></path>
                            <path d="M41.3428055,14.8001178 L48.0276853,8.45553383 C46.3991146,4.25885592 43.5384536,1.45162929 39.8627175,0.255725577 L35.7415333,9.14789914 C38.2388856,10.0243707 40.1833769,11.9629935 41.3428055,14.8001178" id="Fill-150"></path>
                            <path d="M15.3592948,54.7043226 L11.1692291,63.7449805 C15.0222922,64.5280673 19.6215754,63.6986345 24.5723041,61.0489243 L24.5723041,52.8392973 C21.1830208,54.6020418 18.0312441,55.1885579 15.3592948,54.7043226" id="Fill-152"></path>
                            <path d="M48.1449288,10.3249202 L41.3261478,16.4724156 C41.7502054,17.9390847 41.9969005,19.5812657 41.9969005,21.4233776 C41.9969005,23.2654896 41.7502054,25.1778063 41.3261478,27.1069112 L48.1449288,25.8035444 C48.7914957,22.9892491 49.1446082,20.200899 49.1446082,17.5163299 C49.1446082,14.833287 48.7914957,12.4310631 48.1449288,10.3249202" id="Fill-154"></path>
                            <path d="M35.7415333,41.0455788 L39.8611379,45.0077015 C43.5384536,39.8329291 46.3991146,34.0158126 48.0276853,28.2257106 L41.3428055,29.5103988 C40.1833769,33.4875296 38.2388856,37.4706636 35.7415333,41.0455788" id="Fill-156"></path>
                            <path d="M7.14932015,41.740323 C7.14932015,39.8983786 7.39440285,37.9877618 7.8184604,36.0573063 L1.00129179,37.3620806 C0.353112565,40.17612 -1.13686838e-13,42.9626905 -1.13686838e-13,45.6470155 C-1.13686838e-13,48.3313405 0.353112565,50.7318199 1.00129179,52.8392973 L7.8184604,46.6923609 C7.39440285,45.2258252 7.14932015,43.5837935 7.14932015,41.740323" id="Fill-158"></path>
                            <path d="M7.80252282,48.3640997 L1.11692291,54.7086837 C2.74528424,58.9053616 5.60715692,61.7125882 9.28242055,62.9084919 L13.403075,54.0147448 C10.9060437,53.1398468 8.96022297,51.2012239 7.80252282,48.3640997" id="Fill-160"></path>
                            <path d="M25.689227,51.4199769 L25.689227,59.5520937 C30.6399558,56.5373838 35.2392389,52.118237 39.092302,46.9533295 L34.9022363,42.7701027 C32.2302871,46.29307 29.0785104,49.3046132 25.689227,51.4199769" id="Fill-162"></path>
                        </g>
                        <path d="M311.621493,149.728858 C311.621493,140.336138 318.122666,128.912768 326.141491,124.216408 C334.160316,119.520047 340.661489,123.327321 340.661489,132.720041 C340.661489,142.112762 334.160316,153.536132 326.141491,158.232492 C318.122666,162.928852 311.621493,159.121579 311.621493,149.728858" id="Fill-165" fill="#FF6613"></path>
                        <path d="M311.621493,149.728858 C311.621493,140.336138 318.122666,128.912768 326.141491,124.216408 C334.160316,119.520047 340.661489,123.327321 340.661489,132.720041 C340.661489,142.112762 334.160316,153.536132 326.141491,158.232492 C318.122666,162.928852 311.621493,159.121579 311.621493,149.728858" id="Fill-167" fill="#C05513"></path>
                        <path d="M329.532062,143.657441 C329.567442,144.066212 329.657857,144.342967 329.809204,144.486117 C329.958586,144.629266 330.223935,144.61018 330.611148,144.428857 C330.99443,144.249125 331.26371,144.018496 331.409161,143.736969 C331.558543,143.453851 331.650923,143.092796 331.686303,142.650624 C331.739373,142.085979 331.739373,141.545193 331.686303,141.029855 C331.650923,140.619494 331.558543,140.344329 331.409161,140.201179 C331.26371,140.05803 330.99443,140.075526 330.611148,140.255258 C330.223935,140.436581 329.958586,140.668801 329.809204,140.950328 C329.657857,141.233445 329.567442,141.5945 329.532062,142.035082 C329.478992,142.601317 329.478992,143.142103 329.532062,143.657441 L329.532062,143.657441 Z M333.926783,138.905857 C333.971007,139.540967 333.971007,140.166479 333.926783,140.783991 C333.899933,141.294319 333.819382,141.798248 333.686709,142.295777 C333.550878,142.793306 333.347131,143.284437 333.07231,143.764369 C332.799068,144.2475 332.45633,144.697037 332.048837,145.116177 C331.641343,145.536918 331.162774,145.906465 330.614711,146.22802 C330.065068,146.549574 329.586499,146.738347 329.177426,146.795939 C328.769932,146.853531 328.433513,146.800739 328.165009,146.635962 C327.896505,146.471185 327.692758,146.220021 327.550609,145.882469 C327.411619,145.544917 327.329488,145.138574 327.2979,144.660242 C327.271049,144.348286 327.258414,144.045929 327.258414,143.75957 C327.258414,143.47161 327.271049,143.146856 327.2979,142.782108 C327.329488,142.27178 327.411619,141.767852 327.550609,141.265523 C327.692758,140.763194 327.896505,140.272064 328.165009,139.795331 C328.433513,139.316999 328.769932,138.870662 329.177426,138.449922 C329.586499,138.030781 330.065068,137.659634 330.614711,137.339679 C331.162774,137.018125 331.641343,136.829352 332.048837,136.77176 C332.45633,136.714168 332.795909,136.766961 333.064412,136.931737 C333.329757,137.094914 333.535084,137.346078 333.674074,137.683631 C333.816223,138.022783 333.899933,138.429125 333.926783,138.905857 L333.926783,138.905857 Z M320.595213,140.300084 C320.632567,140.708928 320.721036,140.985733 320.872416,141.128908 C321.021831,141.273673 321.289204,141.252993 321.674537,141.073229 C322.057903,140.893465 322.327242,140.662794 322.476657,140.381217 C322.626071,140.098049 322.718472,139.735339 322.75386,139.293088 C322.80301,138.728343 322.80301,138.189051 322.75386,137.672031 C322.718472,137.263187 322.626071,136.987973 322.476657,136.844798 C322.327242,136.701623 322.057903,136.719122 321.674537,136.898886 C321.289204,137.07865 321.021831,137.310912 320.872416,137.59408 C320.721036,137.875657 320.632567,138.236776 320.595213,138.679027 C320.544098,139.245363 320.544098,139.784655 320.595213,140.300084 L320.595213,140.300084 Z M328.999519,130.834232 C329.089974,130.63862 329.181866,130.473335 329.276628,130.338377 C329.372827,130.200387 329.510664,130.077561 329.690139,129.968382 L331.262342,129.010032 C331.40305,128.923599 331.515043,128.89782 331.599755,128.932697 C331.683032,128.96909 331.726106,129.055523 331.726106,129.196546 C331.726106,129.226874 331.717491,129.269332 331.706004,129.325438 C331.691646,129.378511 331.671545,129.43765 331.647136,129.501338 L322.165104,150.497076 C322.076085,150.691172 321.982758,150.856457 321.887995,150.992931 C321.793232,151.129404 321.655395,151.252231 321.47592,151.36141 L319.89941,152.321276 C319.760137,152.407709 319.646709,152.431971 319.566304,152.397095 C319.481592,152.362218 319.439954,152.274268 319.439954,152.134762 C319.439954,152.102918 319.448568,152.058943 319.460055,152.00587 C319.472977,151.95128 319.493078,151.892141 319.518923,151.82997 L328.999519,130.834232 Z M324.993773,136.670079 C325.034833,137.305062 325.034833,137.928849 324.993773,138.546238 C324.963767,139.056464 324.883225,139.560292 324.750569,140.059321 C324.617912,140.555152 324.41103,141.046184 324.136241,141.527619 C323.863031,142.009055 323.523493,142.460101 323.116047,142.879158 C322.705443,143.299814 322.226931,143.669288 321.678932,143.990778 C321.129354,144.312268 320.650842,144.501003 320.244975,144.558584 C319.834371,144.616164 319.497991,144.561783 319.229519,144.398638 C318.961047,144.232295 318.757324,143.981181 318.61835,143.645296 C318.476218,143.307811 318.390938,142.899951 318.362512,142.421714 C318.335665,142.11142 318.323031,141.809123 318.323031,141.521222 C318.323031,141.23332 318.335665,140.908631 318.362512,140.547155 C318.390938,140.036929 318.476218,139.529902 318.61835,139.027674 C318.757324,138.525445 318.961047,138.036013 319.229519,137.559375 C319.497991,137.081139 319.834371,136.633292 320.244975,136.212636 C320.650842,135.793579 321.129354,135.424105 321.678932,135.102615 C322.226931,134.782724 322.705443,134.592389 323.116047,134.533209 C323.523493,134.477229 323.859873,134.530011 324.126766,134.694754 C324.395238,134.859498 324.598961,135.110612 324.737935,135.448097 C324.880067,135.785582 324.963767,136.193442 324.993773,136.670079 L324.993773,136.670079 Z" id="Fill-169" fill="#FFC29C"></path>
                        <polygon id="Fill-171" fill="#FF6613" points="89.3538331 343.353183 89.3538331 429.874695 164.187668 386.615476 164.187668 300.093964"></polygon>
                        <polygon id="Fill-173" fill="#FF995B" points="89.3538331 343.353183 89.3538331 429.874695 164.187668 386.615476 164.187668 300.093964"></polygon>
                        <path d="M89.3538331,366.708786 C91.8343728,367.697821 95.0260004,367.286753 98.5122861,365.217508 C106.407919,360.531957 112.809214,349.136427 112.809214,339.76378 C112.809214,336.030175 111.780918,333.199064 110.059574,331.420348 L89.3538331,343.707555 L89.3538331,366.708786 Z" id="Fill-175" fill="#FF6613"></path>
                        <path d="M121.603395,369.162169 C122.336147,366.713563 123.781887,366.616237 124.830846,368.941254 L135.280916,392.121901 L150.873929,332.16428 C151.516987,329.687867 152.591791,329.680142 153.274375,332.144197 L163.070745,367.53543 L163.070745,387.50431 L106.107677,420.9243 L121.603395,369.162169 Z" id="Fill-177" fill="#C05513"></path>
                        <g id="Group-183" transform="translate(89.353833, 330.908897)" fill="#C05513">
                            <path d="M0,35.7998899 C2.59866054,36.7889243 5.94227044,36.3778569 9.59456971,34.3086115 C17.866185,29.6230609 24.5723041,18.2275301 24.5723041,8.85488365 C24.5723041,5.12127874 23.4950412,2.29016773 21.6917283,0.511451154 L0,12.7986584 L0,35.7998899 Z" id="Fill-179"></path>
                        </g>
                        <polygon id="Fill-188" fill="#FF995B" points="188.759973 285.176639 188.759973 371.697126 263.593808 328.436883 263.593808 241.916396"></polygon>
                        <path d="M188.759973,308.531157 C191.240512,309.520189 194.43214,309.109123 197.918425,307.041426 C205.814058,302.354338 212.215354,290.958827 212.215354,281.586197 C212.215354,277.852599 211.187057,275.023038 209.46421,273.242779 L188.759973,285.53151 L188.759973,308.531157 Z" id="Fill-192" fill="#FF6613"></path>
                        <path d="M222.126871,310.985372 C222.858122,308.53673 224.305421,308.437857 225.352888,310.764453 L235.804757,333.945447 L251.396666,273.985385 C252.041261,271.51048 253.116094,271.502756 253.797176,273.966847 L263.593808,309.358608 L263.593808,329.327787 L206.630739,362.746731 L222.126871,310.985372 Z" id="Fill-194" fill="#C05513"></path>
                        <g id="Group-200" transform="translate(188.759973, 272.731328)" fill="#C05513">
                            <path d="M0,35.7998288 C2.59866054,36.7888615 5.94227044,36.3777948 9.59456971,34.3100983 C17.866185,29.6230105 24.5723041,18.2274994 24.5723041,8.85486919 C24.5723041,5.12127075 23.4950412,2.29171001 21.6901533,0.511451154 L0,12.8001824 L0,35.7998288 Z" id="Fill-196"></path>
                        </g>
                        <polygon id="Fill-205" fill="#FF6613" points="288.166112 228.118382 288.166112 314.638357 362.999947 271.379138 362.999947 184.857626"></polygon>
                        <polygon id="Fill-207" fill="#FF995B" points="288.166112 228.118382 288.166112 314.638357 362.999947 271.379138 362.999947 184.857626"></polygon>
                        <path d="M321.532597,252.807141 C322.265348,250.35854 323.711088,250.259669 324.760048,252.586226 L335.210118,275.766824 L350.803131,215.807785 C351.446189,213.332922 352.520992,213.325198 353.203576,215.789247 L362.999947,251.180405 L362.999947,271.149243 L306.036879,304.569162 L321.532597,252.807141 Z" id="Fill-211" fill="#C05513"></path>
                        <g id="Group-217" transform="translate(288.166112, 215.672558)" fill="#C05513">
                            <path d="M0,35.7994763 C2.59866054,36.7884991 5.94227044,36.3789818 9.59614466,34.3097606 C17.8677599,29.6227197 24.5723041,18.2273224 24.5723041,8.85478584 C24.5723041,5.1212247 23.4950412,2.29169223 21.6917283,0.511451154 L0,12.8000597 L0,35.7994763 Z" id="Fill-213"></path>
                        </g>
                    </g>
                    <path d="M208.181519,95.6810772 L203.351845,97.5332018 L203.351845,86.9209872 C203.351845,78.5083619 196.623757,76.4909237 189.318626,80.6972364 C182.015029,84.903549 176.092654,95.1346239 176.092654,103.547249 L176.092654,105.088645 C174.435187,104.428922 172.295827,104.683015 169.955423,106.031545 C164.699104,109.057702 160.437266,116.42028 160.437266,122.474125 L160.437266,123.173647 L153.70304,127.052394 C150.240775,129.045341 147.433825,133.893009 147.433825,137.880434 C147.433825,141.866329 150.240775,143.482729 153.70304,141.489781 L208.181519,110.118465 C211.643783,108.123987 214.4492,103.276319 214.4492,99.2904241 C214.4492,95.3029989 211.643783,93.6881299 208.181519,95.6810772" id="Fill-223" fill="#FFFFFF" opacity="0.75"></path>
                    <g id="Group-291" transform="translate(241.000053, 182.620028)">
                        <path d="M76.6126115,325.219939 L76.3306259,315.739645 L83.8557421,314.382631 L84.28922,322.46987 C84.6492017,324.353393 85.9286364,324.970787 86.2451203,326.030073 C86.5616042,327.089359 81.1288812,337.947037 78.0630375,340.342966 C74.9971939,342.740462 70.0279473,339.666026 69.5404721,338.512721 C69.0544969,337.360983 73.6427629,338.21656 74.3837252,336.566518 C75.387174,334.336691 76.6126115,325.219939 76.6126115,325.219939" id="Fill-225" fill="#FFCAA8"></path>
                        <path d="M85.7588457,323.333026 C84.7389336,324.203652 83.9639853,326.388101 82.5696947,329.380087 C81.1738633,332.372073 79.1756368,337.233065 77.0048572,337.925465 C74.4781868,338.733001 69.5157445,337.255146 72.6817857,337.010677 C73.3719981,336.958629 74.5814105,336.687347 74.9049476,335.938168 C75.151452,335.370368 75.2084561,335.10855 75.2084561,335.10855 C75.2084561,335.10855 74.0729951,335.526513 71.8375081,335.427148 C69.894745,335.340401 68.4588567,335.799372 67.442026,337.365552 C66.9182041,338.174665 67.7624817,339.526343 67.7624817,339.526343 C68.723849,340.747111 70.5387379,341.95053 74.6954188,342.278592 C78.6995751,342.594036 81.3248473,341.969456 82.8161991,339.076835 C84.6280066,335.567521 87.8356455,331.842128 89.1267125,329.870603 C90.685853,327.482692 88.1730485,323.970223 85.7588457,323.333026" id="Fill-227" fill="#1A2E35"></path>
                        <path d="M74.7492418,335.640432 C74.4773479,336.232986 72.512749,336.409613 71.5229891,336.522141 C70.5315712,336.636094 70.0723359,337.418095 71.6655676,337.859663 C74.4176639,338.111783 75.7705016,335.59485 74.7492418,335.640432" id="Fill-229" fill="#FFCAA8"></path>
                        <path d="M149.751581,295.007271 L143.22143,288.142455 L148.218866,281.937449 L153.941002,287.662028 C155.478433,288.817862 156.890102,288.395148 157.844316,288.966046 C158.798529,289.536944 161.76335,301.37138 160.953762,305.270957 C160.144174,309.170534 154.201956,310.31077 153.052813,309.788227 C151.90367,309.265684 156.071082,306.737198 155.553889,304.994867 C154.857487,302.644202 149.751581,295.007271 149.751581,295.007271" id="Fill-231" fill="#FFCAA8"></path>
                        <path d="M154.378133,288.01568 C154.18662,289.343916 154.986556,291.481253 155.842474,294.628798 C156.698391,297.777901 158.279113,302.715135 157.15655,304.684104 C155.848366,306.977338 151.383159,309.216007 153.494225,306.910302 C153.956804,306.406757 154.653618,305.393432 154.422329,304.621746 C154.24702,304.037135 154.124746,303.806408 154.124746,303.806408 C154.124746,303.806408 153.572304,304.877415 151.910557,306.305425 C150.468314,307.5448 149.724359,308.848092 149.968906,310.689227 C150.094127,311.638635 151.534896,312.072026 151.534896,312.072026 C152.980086,312.330814 155.023386,312.000314 158.202508,309.45297 C161.262302,306.999163 162.75316,304.776083 162.028355,301.634774 C161.15034,297.823111 161.135608,292.913939 160.836553,290.589527 C160.475624,287.777159 156.499512,286.866725 154.378133,288.01568" id="Fill-233" fill="#1A2E35"></path>
                        <path d="M154.870435,304.423976 C155.066137,305.145467 154.037744,306.660772 153.532502,307.445975 C153.028539,308.231179 153.229357,309.255731 154.412519,308.554903 C156.152088,306.888068 155.433237,303.678377 154.870435,304.423976" id="Fill-235" fill="#FFCAA8"></path>
                        <path d="M97.4922659,152.156718 C99.5292521,145.034508 98.2501785,140.691472 96.6774714,134.528555 C93.7934064,123.229873 91.0538521,111.898804 91.0538521,111.898804 C91.0538521,111.898804 89.0061044,68.8956472 88.9154008,64.9767352 C88.8077865,60.3221598 87.9207366,57.7712426 87.5363996,53.8415348 C87.3196335,51.622206 85.7300156,51.4001189 85.882213,51.4772325 L85.882213,60.1725594 C85.882213,60.1725594 83.3240658,57.869948 81.8774212,56.1179275 C80.4307767,54.3674494 78.9672213,54.5617756 78.4998675,55.4547508 C78.0309763,56.3492683 80.4307767,58.0488515 81.5607275,60.3159907 C82.689141,62.5800453 85.882213,66.8274611 85.882213,66.8274611 L85.882213,90.3378484 L79.7112978,93.9128338 L78.4998675,116.36985 L88.0713967,151.300758 L97.4922659,152.156718 Z" id="Fill-237" fill="#FFCAA8"></path>
                        <polygon id="Fill-239" fill="#FFCAA8" points="69.5045174 136.770196 70.7749904 148.577138 81.7906694 149.919119 80.2018412 134.255928"></polygon>
                        <polygon id="Fill-241" fill="#FF6613" points="11.4245258 46.617154 11.4245258 133.137128 86.2583611 89.8779098 86.2583611 3.3563982"></polygon>
                        <polygon id="Fill-243" fill="#FF995B" points="11.4245258 46.617154 11.4245258 133.137128 86.2583611 89.8779098 86.2583611 3.3563982"></polygon>
                        <path d="M11.4245258,69.9712201 C13.9049064,70.9602546 17.0978328,70.5491871 20.583895,68.4799417 C28.4790217,63.7943912 34.879907,52.3988603 34.879907,43.0262139 C34.879907,39.292609 33.8501732,36.4630433 32.1289394,34.6827814 L11.4245258,46.9715339 L11.4245258,69.9712201 Z" id="Fill-245" fill="#FF6613"></path>
                        <path d="M11.4245258,69.9712201 C13.9049064,70.9602546 17.0978328,70.5491871 20.583895,68.4799417 C28.4790217,63.7943912 34.879907,52.3988603 34.879907,43.0262139 C34.879907,39.292609 33.8501732,36.4630433 32.1289394,34.6827814 L11.4245258,46.9715339 L11.4245258,69.9712201 Z" id="Fill-247" fill="#C05513"></path>
                        <path d="M43.6745012,72.4242726 C44.4072723,69.9756514 45.8530509,69.8767796 46.9020385,72.2033559 L57.3523877,95.3841511 L72.9458168,35.4261477 C73.5888918,32.9512637 74.6637241,32.9419945 75.3448059,35.4060643 L85.1414382,70.7990678 L85.1414382,90.7665305 L28.1783695,124.186733 L43.6745012,72.4242726 Z" id="Fill-249" fill="#FF6613"></path>
                        <path d="M43.6745012,72.4242726 C44.4072723,69.9756514 45.8530509,69.8767796 46.9020385,72.2033559 L57.3523877,95.3841511 L72.9458168,35.4261477 C73.5888918,32.9512637 74.6637241,32.9419945 75.3448059,35.4060643 L85.1414382,70.7990678 L85.1414382,90.7665305 L28.1783695,124.186733 L43.6745012,72.4242726 Z" id="Fill-251" fill="#C05513"></path>
                        <path d="M86.2583611,3.3563982 L11.4245258,46.617154 L11.426061,133.137128 L86.2583611,89.8763727 L86.2583611,3.3563982 Z M84.0245152,5.59399699 L84.0245152,88.3851525 L12.5429779,129.78073 L12.5414487,46.9895748 L84.0245152,5.59399699 Z" id="Fill-253" fill="#FF6613"></path>
                        <path d="M86.2583611,3.3563982 L11.4245258,46.617154 L11.426061,133.137128 L86.2583611,89.8763727 L86.2583611,3.3563982 Z M84.0245152,5.59399699 L84.0245152,88.3851525 L12.5429779,129.78073 L12.5414487,46.9895748 L84.0245152,5.59399699 Z" id="Fill-255" fill="#D25C14"></path>
                        <polygon id="Fill-257" fill="#FF6613" points="11.4245258 134.255928 4.72463773 130.631327 4.72298832 43.6331766 11.4245258 47.2577775"></polygon>
                        <polygon id="Fill-259" fill="#D25C14" points="11.4245258 134.255928 4.72463773 130.631327 4.72298832 43.6331766 11.4245258 47.2577775"></polygon>
                        <polygon id="Fill-261" fill="#FF6613" points="4.72298832 43.3753478 79.9865281 -1.42108547e-14 86.2583611 3.61576825 10.9948213 46.9895748"></polygon>
                        <polygon id="Fill-263" fill="#F88139" points="4.72298832 43.3753478 79.9865281 -1.42108547e-14 86.2583611 3.61576825 10.9948213 46.9895748"></polygon>
                        <path d="M98.157507,151.427319 C97.9574787,152.4236 97.4958749,154.385506 96.5726673,157.696223 C94.8801202,163.781198 92.3259126,172.517811 91.2334503,175.414688 C91.1719032,175.535775 91.1395909,175.644599 91.0949692,175.736564 L95.634073,183.093712 C95.634073,183.093712 92.5874881,186.848923 83.5400541,189.469907 C74.4772333,192.090891 63.4910635,186.772286 63.4910635,186.772286 C63.4910635,186.772286 61.1676578,174.632991 60.7368276,171.23031 C60.706054,171.031054 60.6598936,170.724506 60.6137333,170.371976 C60.5214125,169.651589 60.4290918,169.007838 60.2906106,168.41007 C60.2752238,168.348761 60.2752238,168.302778 60.259837,168.241469 C60.0905823,167.505754 59.967488,166.524801 59.7520729,165.436556 C59.1673748,162.524351 57.967205,158.76914 53.735837,156.485359 C52.4587332,155.795626 25.9472898,145.342344 21.7620822,142.797997 C18.3616011,140.744127 18.0846388,138.90484 17.5153275,137.295463 C16.9306294,135.686087 8.8679501,109.169698 7.91396896,106.533387 C6.95998783,103.897075 6.08294066,103.084723 3.97495008,100.846924 C1.8823463,98.6091248 1.14378026,98.1033209 0.497534979,96.0954324 C-0.148710306,94.0262345 0.666789697,93.5970675 0.989912339,92.600787 C1.43612932,91.2213216 0.928365169,90.2556959 1.23610102,89.2134332 C1.62077083,87.9106049 2.42088404,87.5734022 2.62091234,86.9909613 C2.92864819,86.0713178 2.55936517,85.5655138 3.15945008,83.894828 C3.35947838,83.3123871 4.09804442,82.254797 5.28282745,81.6723561 L5.28282745,84.6918524 C6.43683688,89.3973619 11.622186,91.7117982 12.283818,91.3745956 C12.9454501,91.0373929 13.914818,88.3550992 15.3611765,87.17489 C16.7613746,86.0253356 18.8078181,86.1479547 18.069252,87.5734022 C17.6538086,88.4010814 16.6998275,91.4818873 16.2074501,92.8460252 C15.7150728,94.2101632 14.2533275,97.0763856 14.5764501,99.2682027 C14.9918935,102.195735 28.6553653,132.37537 28.6553653,132.37537 C28.6553653,132.37537 43.50362,137.218826 55.2899031,140.866746 C62.5986295,143.1352 68.6148654,144.529993 68.6148654,144.529993 C69.4303654,144.392046 70.7074691,144.162135 72.2615352,143.886242 C72.6923654,143.794278 73.1539692,143.717641 73.6309597,143.641004 C79.7087428,142.522104 88.8931192,140.836091 91.3873183,140.391597 C91.6181202,140.345615 91.8335352,140.31496 92.0335636,140.268978 C92.6028749,140.207668 93.2029598,140.238323 93.7876579,140.330287 C95.6032994,140.774781 97.0188843,142.353503 97.5420353,143.518385 C98.5421768,145.725529 98.8806862,147.672108 98.157507,151.427319" id="Fill-265" fill="#FFCAA8"></path>
                        <path d="M71.7383632,193.417774 C71.7383632,193.417774 94.0311697,248.183581 96.0548572,253.19571 C98.0800801,258.209383 100.177468,259.841993 103.166936,261.920984 C106.153334,263.99843 144.973434,290.887844 144.973434,290.887844 C150.918592,288.407265 151.03989,284.514949 151.03989,284.514949 C151.03989,284.514949 130.988801,258.800953 126.807844,255.097075 C122.626888,251.391652 114.73942,249.49801 114.73942,249.49801 L104.854366,207.853322 C103.544651,201.452625 104.353818,194.381585 94.8910065,183.483101 L71.7383632,193.417774 Z" id="Fill-267" fill="#081216"></path>
                        <path d="M78.8745879,191.094545 C83.4540654,197.497779 87.7853327,203.124258 88.9938059,210.498051 C91.5457166,226.071615 85.3823481,245.085974 84.6423715,256.720387 C84.6423715,256.720387 88.336049,262.231505 88.6121828,268.342495 C88.830918,273.127616 84.5818703,317.161193 84.5818703,317.161193 C84.5818703,317.161193 80.478646,319.551446 75.9565671,318.657793 C75.9565671,318.657793 66.4857982,255.025368 64.6769666,234.332909 C62.8696864,213.641989 62.8029799,187.958299 62.8029799,187.958299 L78.8745879,191.094545 Z" id="Fill-269" fill="#081216"></path>
                        <path d="M62.2952934,119.571652 C62.2952934,119.571652 60.1557141,114.692452 63.8957296,109.647882 C68.3031083,103.70382 76.6745018,101.167625 85.5556867,104.243206 C89.958431,105.765541 95.339048,110.79311 95.190745,121.656555 C95.0996005,128.330101 76.2821169,131.911066 76.3825303,136.493527 L62.2952934,119.571652 Z" id="Fill-271" fill="#081216"></path>
                        <path d="M61.686057,121.949134 C61.686057,121.949134 59.1871248,126.059313 59.4753571,126.522594 C59.7649684,126.987524 61.2364698,127.543131 61.2364698,127.543131 L61.686057,121.949134 Z" id="Fill-273" fill="#FFCAA8"></path>
                        <path d="M70.0179418,110.449108 C67.3817804,111.630173 62.8180528,113.825743 61.2525881,122.988082 C59.6465431,132.392692 61.2088862,135.493744 62.4809239,136.789888 C63.3409149,137.665087 68.1715363,137.877073 70.618843,137.254743 C73.681098,136.473423 80.60785,134.183974 83.8979792,129.435486 C87.7671586,123.84814 88.861267,116.227242 84.8328878,113.048966 C79.1625655,108.57606 72.2498605,109.448231 70.0179418,110.449108" id="Fill-275" fill="#FFCAA8"></path>
                        <path d="M62.8029799,187.204319 L95.1482908,183.483101 C97.4348951,187.204319 102.895189,193.568542 101.735631,199.682522 C100.326823,207.094062 96.3310706,212.301294 84.108497,215.928284" id="Fill-277" fill="#081216"></path>
                        <path d="M91.1691629,175.786658 C91.7031001,176.561582 91.9568027,177.020365 91.6271392,176.479863 L96.4426647,183.098345 C96.4426647,183.098345 92.1116212,187.961878 83.1137922,190.587561 C74.0991278,193.213245 63.1698037,187.883568 63.1698037,187.883568 C63.1698037,187.883568 60.8587437,175.722509 60.4302027,172.315263 C60.3995927,172.11565 60.3536776,171.808552 60.309293,171.45539 C60.2174628,170.88726 60.108797,170.19629 59.9863568,169.489966 C59.9710517,169.428547 59.9710517,169.382482 59.9557467,169.321063 C59.7567813,168.108028 59.5440413,166.925703 59.4522111,166.509585 C70.976901,161.351884 68.0146003,144.449156 68.0146003,144.449156 C68.8272976,144.310962 70.1940853,144.284092 71.7383632,144.007704 C72.1684346,143.93093 72.8192552,143.830039 73.2921807,143.739445 C78.5724171,142.801262 81.4831908,142.125498 86.2583611,141.188851 C86.4879366,141.142786 97.3979796,153.642202 94.7517394,163.470856 C93.1263448,169.506857 92.1991916,173.031994 91.1691629,175.786658 Z" id="Fill-279" fill="#FAFAFA"></path>
                        <path d="M90.7260527,173.413907 C90.6151736,173.661706 82.1262637,178.32432 79.5568236,179.007904 C83.6090879,178.814222 86.9739014,177.89708 89.697094,176.300626 L90.7260527,173.413907 Z" id="Fill-281" fill="#F0F0F0"></path>
                        <path d="M69.6032883,110.414275 C69.6032883,110.414275 67.0011918,119.057912 69.4108255,124.700138 C69.4108255,124.700138 71.1152757,121.35654 74.0145347,122.465958 C76.9338098,123.581513 76.4872962,127.505138 74.0668846,129.414012 C71.6464729,131.321351 69.4323813,130.182779 69.4323813,130.182779 C69.4323813,130.182779 69.5186046,134.680293 72.3578153,137.819807 C72.3578153,137.819807 81.8546977,141.640624 90.0613097,133.635323 C97.507309,126.371169 97.1932097,112.757402 86.8648882,108.818432 C76.5381064,104.882531 69.6032883,110.414275 69.6032883,110.414275" id="Fill-283" fill="#081216"></path>
                        <path d="M88.4922069,233.807721 L91.0732147,212.301137 C91.0732147,212.301137 98.602794,209.33153 101.895282,204.74029 C101.895282,204.74029 100.354246,210.141565 94.3399682,214.462273 C93.8192253,215.137823 89.8303951,237.185473 89.8303951,237.185473 L88.4922069,233.807721 Z" id="Fill-285" fill="#1A2E35"></path>
                        <path d="M100.433288,119.303026 C96.8692041,120.791775 94.1618559,118.054155 92.2157087,113.643377 C90.2695615,109.2326 89.8227026,104.820323 93.3883279,103.331573 C96.9524122,101.842823 101.239175,104.652408 103.185322,109.061686 C105.13147,113.472463 103.997373,117.814276 100.433288,119.303026" id="Fill-287" fill="#081216"></path>
                        <path d="M86.1830681,60.3970908 C86.1830681,60.3970908 84.5727462,59.5483205 83.4654521,57.9038281 C82.358158,56.2608959 80.7810549,55.5915532 79.8287819,56.1142334 C79.1232774,56.5011728 79.953748,57.6401476 80.4741762,58.6667852 C80.9946044,59.6918625 82.1825728,62.5705044 83.6505284,63.9154308 C85.1200658,65.2634777 86.1830681,65.5958088 86.1830681,67.1279639 C86.1830681,67.1279639 87.4169101,65.9671458 87.3742002,63.851461 C87.3314903,61.7357763 86.1830681,60.3970908 86.1830681,60.3970908" id="Fill-289" fill="#FFCAA8"></path>
                    </g>
                </g>
            </g>
        </g>
    </g>
</svg>